<svg enable-background="new 0 0 512 512" height="512" viewBox="0 0 512 512" width="512" xmlns="http://www.w3.org/2000/svg"><path d="m488 40v272c0 106.04-85.96 192-192 192h-80c-106.04 0-192-85.96-192-192v-160c0-11.04 4.48-21.04 11.72-28.28 25.016-25.016 68.28-7.384 68.28 28.28v-32c0-13.26 5.37-25.26 14.06-33.94 29.892-29.926 81.94-9.035 81.94 33.94v-32c0-23.079 16.226-41.942 37.02-46.74 28.854-6.686 55.955 13.742 58.73 41.83 1.678 15.89-4.862-9.88 14.31-29.03 29.892-29.926 81.94-9.035 81.94 33.94v-16c0-35.234 28.531-64 64-64 17.67 0 32 14.33 32 32z" fill="#f9cfac"/><path d="m296 88v112c0 10.19-3.17 19.64-8.59 27.41-26.643 38.38-87.41 19.442-87.41-27.41v-112c0-13.26 5.37-25.26 14.06-33.94 30.342-30.342 81.94-8.529 81.94 33.94z" fill="#f9cfac"/><path d="m296 88v112c0 16.645-8.523 31.413-21.36 39.92-26.654 1.838-50.64-19.881-50.64-47.92 0-152.596-.056-145.536.1-145.64 32.742-18.506 71.9 5.352 71.9 41.64z" fill="#ffe4cc"/><path d="m200 120v104c0 10.19-3.17 19.64-8.59 27.41-26.643 38.38-87.41 19.442-87.41-27.41v-104c0-21.993 14.786-40.523 34.94-46.2 30.349-8.629 61.06 14.19 61.06 46.2z" fill="#f9cfac"/><path d="m200 120v104c0 16.645-8.523 31.413-21.36 39.92-26.654 1.838-50.64-19.881-50.64-47.92v-137.58c31.868-18.464 72 4.673 72 41.58z" fill="#ffe4cc"/><path d="m104 152v96c0 22.081-17.919 40-40 40-22.09 0-40-17.91-40-40v-96c0-16.559 10.101-30.663 24-36.66 25.943-11.435 56 7.502 56 36.66z" fill="#f9cfac"/><path d="m104 152v96c0 12.003-5.257 23.719-16 32-21.986 0-40-17.804-40-40v-124.66c26.254-11.572 56 7.815 56 36.66z" fill="#ffe4cc"/><path d="m392 88v112c0 10.19-3.17 19.64-8.59 27.41-26.643 38.38-87.41 19.442-87.41-27.41v-112c0-26.506 21.48-48 48-48 26.51 0 48 21.49 48 48z" fill="#f9cfac"/><path d="m392 88v112c0 16.645-8.523 31.413-21.36 39.92-26.654 1.838-50.64-19.881-50.64-47.92v-145.58c31.868-18.464 72 4.673 72 41.58z" fill="#ffe4cc"/><path d="m488 40v272c0 48.95-18.32 93.62-48.47 127.53-25.626 22.835-69.78 40.47-116.53 40.47h-80c-95.14 0-174.1-69.2-189.33-160-.162-1.739-1.1 0 10.33 0 21.2 0 40.29-9.21 53.47-23.84 33.132 15.933 74.094 7.288 97.74-23.19 25.586 11.553 56.728 9.091 80.79-9 52.238 39.276 128 2.101 128-63.97v-183.44c9.502-5.524 20.655-8.613 32.3-8.56 17.55.08 31.7 14.44 31.7 32z" fill="#ffe4cc"/><path d="m240 384c-8.822 0-16-7.178-16-16 0-64.357 40.756-121.977 101.417-143.379 8.305-2.93 17.466 1.42 20.412 9.765 2.935 8.321-1.445 17.477-9.765 20.413-47.889 16.895-80.064 62.387-80.064 113.201 0 8.822-7.178 16-16 16z" fill="#f9cfac"/><path d="m456 0c-33.472 0-60.711 22.557-69.176 51.969-24.7-29.31-70.886-25.872-90.824 7.221-9.807-16.277-27.651-27.19-48-27.19-28.609 0-52.26 21.569-55.585 49.297-33.807-35.289-93.188-13.1-96.285 35.077-30.603-27.627-80.13-6.053-80.13 35.626v160c0 110.28 89.72 200 200 200h80c110.28 0 200-89.72 200-200v-96c0-4.418-3.582-8-8-8s-8 3.582-8 8v96c0 101.458-82.542 184-184 184h-80c-101.458 0-184-82.542-184-184v-28.261c26.389 23.653 68.435 11.449 78.152-22.582 29.946 33.69 85.439 19.938 96.215-23.752 25.286 28.116 70.23 23.611 89.633-8.595 4.997 8.294 12.085 15.185 20.524 19.958-46.495 24.689-76.524 73.471-76.524 127.232 0 4.418 3.582 8 8 8s8-3.582 8-8c0-53.65 33.639-101.72 83.865-120.169 32.702 2.4 60.135-23.562 60.135-55.831 0-16.089 0-111.863 0-128 0-30.962 25.032-56 56-56 13.233 0 24 10.767 24 24v104c0 4.418 3.582 8 8 8s8-3.582 8-8v-104c0-22.056-17.944-40-40-40zm-360 248c0 17.645-14.355 32-32 32s-32-14.355-32-32c0-9.602 0-86.361 0-96 0-17.645 14.355-32 32-32s32 14.355 32 32zm96-24c0 22.056-17.944 40-40 40s-40-17.944-40-40c0-12.81 0-91.744 0-104 0-22.056 17.944-40 40-40s40 17.944 40 40zm56 16c-22.056 0-40-17.944-40-40 0-10.802 0-100.758 0-112 0-22.056 17.944-40 40-40s40 17.944 40 40v112c0 22.056-17.944 40-40 40zm136-40c0 22.056-17.944 40-40 40s-40-17.944-40-40v-112c0-22.056 17.944-40 40-40s40 17.944 40 40z"/><path d="m488 168c-4.418 0-8 3.582-8 8v8c0 4.418 3.582 8 8 8s8-3.582 8-8v-8c0-4.418-3.582-8-8-8z"/></svg>