<svg enable-background="new 0 0 511.992 511.992" height="512" viewBox="0 0 511.992 511.992" width="512" xmlns="http://www.w3.org/2000/svg"><path d="m415.997 371.992c0 72.766-58.949 132-132 132h-56c-72.9 0-132-59.1-132-132v-228c0-14.949 10.225-27.449 24-30.99 20.228-5.236 40 10.089 40 30.99 0-49.433 0-55.764 0-60 0-19.93 16.152-36 36-36 19.88 0 36 16.12 36 36v-40c0-15.502 9.841-28.953 24-33.95 23.311-8.239 48 9.044 48 33.95v16c0-12.302 6.189-23.369 16.01-29.95 23.386-15.686 55.99.802 55.99 29.95v180c12.779 12.779 21.391 20.162 29.61 36.33 12.995 25.994 10.39 41.45 10.39 95.67z" fill="#f9cfac"/><path d="m415.997 319.752v40.24c0 70.692-57.308 128-128 128-40.291 0-46.515.464-59.03-1.41-61.67-9.19-108.97-62.37-108.97-126.59v-246.99c20.833-5.392 40 11.262 40 31.62 0 146.682.1 143.37 0 143.37 13.255 0 24-10.745 24-24v-213.95c23.727-8.415 48 9.687 48 34.602 0 207.957.1 203.348 0 203.348 13.255 0 24-10.745 24-24v-253.95c23.311-8.239 48 9.044 48 33.95v135.12c5.29-1.36 11.16.04 15.31 4.19l8.69 8.69v-165.95c23.682-8.399 48 9.639 48 34.602v179.348c12.783 12.783 40 35.518 40 79.76z" fill="#ffe4cc"/><path d="m343.997 313.052c0 4.01-2.97 7.4-6.94 7.93-55.33 7.37-97.06 55.09-97.06 111.01 0 3.39-2.11 6.29-5.09 7.45-13.077 3.967-18.91-16.23-18.91-23.45 0-61.28 30.88-99.18 87.07-119.47-13.623-18.779-31.057-55.706-29.39-77.36.21-4.23 3.71-7.59 7.99-7.59 4.42 0 8 3.58 8 8 0 11.51 4.46 22.34 12.57 30.5l27.32 27.75c9.212 9.332 14.44 21.944 14.44 35.23z" fill="#f9cfac"/><path d="m343.997 313.052c0 4.01-2.97 7.4-6.94 7.93-55.33 7.37-97.06 55.09-97.06 111.01 0 4.451-3.62 8-8 8-4.384 0-8-3.535-8-8 0-61.32 43.92-114.02 103.35-125.62-2.608-13.036-8.7-16.832-36.49-45.05-11.107-11.18-17.19-26.05-17.19-41.75 0-4.446 3.604-8 8-8 4.42 0 8 3.58 8 8 0 11.51 4.46 22.34 12.57 30.5 28.256 28.7 33.056 31.899 38.01 43.92 2.49 6.09 3.75 12.5 3.75 19.06z" fill="#f9cfac"/><path d="m393.533 246.215-9.537-9.537v-176.686c0-38.931-47.086-58.547-74.796-31.422-11.264-29.995-49.716-38.265-72.325-15.691-8.305 8.318-12.879 19.367-12.879 31.113v6.084c-28.518-23.586-72-3.218-72 33.916v28.022c-26.115-19.649-64-1.059-64 31.978v192c0 4.418 3.582 8 8 8s8-3.582 8-8c0-19.117 0-168.872 0-192 0-13.233 10.767-24 24-24s24 10.767 24 24v136c0 4.418 3.582 8 8 8s8-3.582 8-8c0-9.472 0-190.644 0-196 0-15.439 12.561-28 28-28s28 12.561 28 28v196c0 4.418 3.582 8 8 8s8-3.582 8-8c0-9.401 0-224.531 0-236 0-7.477 2.913-14.511 8.193-19.799 17.502-17.476 47.807-5.229 47.807 19.799v129.862c-10.222 5.914-22.33 24.382-22.33 45.718 0 15.762 6.113 30.599 17.19 41.753l27.307 27.727c4.723 4.783 7.892 10.845 9.178 17.316-59.43 11.607-103.345 64.306-103.345 125.624 0 4.418 3.582 8 8 8s8-3.582 8-8c0-55.917 41.725-103.64 97.056-111.01 3.975-.53 6.944-3.92 6.944-7.93 0-6.565-1.261-12.972-3.752-19.055-4.819-11.707-9.056-14.521-38.011-43.922-16.767-16.885-16.816-44.224.146-61.152 3.101-3.095 8.156-3.079 11.271.036 35.441 35.441 31.325 31.325 68.57 68.57 16.623 16.623 25.777 38.721 25.777 62.223v52.24c0 68.374-55.626 124-124 124h-56c-55.571 0-104.719-37.36-119.52-90.854-1.178-4.259-5.587-6.754-9.844-5.577-4.258 1.178-6.755 5.585-5.577 9.844 16.712 60.402 72.201 102.587 134.94 102.587h56c77.196 0 140-62.804 140-140v-52.24c.001-27.777-10.818-53.893-30.463-73.537zm-81.536-75.238v-110.985c0-7.477 2.913-14.511 8.193-19.799 17.502-17.476 47.807-5.229 47.807 19.799v160.687l-43.033-43.033c-3.659-3.66-8.218-5.869-12.967-6.669z"/><path d="m96.297 383.988c4.417-.133 7.889-3.821 7.756-8.237-.074-2.459-.057-3.953-.057-7.759 0-4.418-3.582-8-8-8s-8 3.582-8 8c0 3.894-.017 5.575.063 8.241.134 4.395 3.8 7.887 8.238 7.755z"/></svg>