<svg enable-background="new 0 0 512 512" height="512" viewBox="0 0 512 512" width="512" xmlns="http://www.w3.org/2000/svg"><path d="m504 250.075c0 130.394.583 123.994-1.72 135.96-8.563 44.686-47.776 77.86-94.28 77.86-46.615 0-88.209 4.263-140-24-28.87-15.75-61.23-24-94.12-24h-61.88c-17.68 0-32-14.32-32-32 0-39.534 32.008-72 72-72h118.23c14.158 0 25.77-11.474 25.77-25.77 0-34.071-11.603-67.387-33.24-94.23h-178.76c-29.663 0-50.867-28.833-42-57.14-30.383-7.072-43.925-42.788-25.98-68.18 7.96-11.3 21.11-18.68 35.98-18.68h208.56c23.34 0 46.4 5.11 67.56 14.97l79.45 36.6c58.78 27.08 96.43 85.89 96.43 150.61z" fill="#f9cfac"/><path d="m504 250.075c0 130.394.583 123.994-1.72 135.96-1.51 7.88-3.97 15.41-7.28 22.47-11.09 12.19-25.27 21.5-41.31 26.71-18.486 6.011-28.538 4.68-75.57 4.68-32.508 0-64.894-8.051-94.12-24-28.87-15.75-61.23-24-94.12-24h-61.88c-17.68 0-32-14.32-32-32 0-3.55.26-7.03.76-10.44 12.21-22.38 35.95-37.56 63.24-37.56h118.23c7.11 0 13.56-2.88 18.22-7.55 7.158-7.143 7.803-14.648 7.45-23.48-.11-3.22-.32-6.42-.64-9.6.49-1.97.74-4.03.74-6.14 0-83.04-67.377-150.23-150.23-150.23-123.148 0-116.956.452-123.77-1.14-7.96-1.85-15.1-5.87-20.75-11.4-6.76-27.615 14.181-54.46 42.75-54.46h208.56c23.34 0 46.4 5.11 67.56 14.97l79.45 36.6c58.78 27.08 96.43 85.89 96.43 150.61z" fill="#ffe4cc"/><path d="m238.45 167.895h-154.45c-20.14 0-37.11-13.53-42.34-31.99.11-.39.22-.77.34-1.15 6.83 1.596 2.921 1.14 103.77 1.14 33.78 0 66.38 11.37 92.68 32z" fill="#ffe4cc"/><path d="m136 199.895c4.418 0 8-3.582 8-8s-3.582-8-8-8h-8c-4.418 0-8 3.582-8 8s3.582 8 8 8z"/><path d="m410.916 92.199-79.413-36.59c-22.066-10.28-46.599-15.713-70.942-15.713h-208.561c-28.673 0-52 23.327-52 52 0 21.809 13.502 40.513 32.582 48.224-4.717 31.349 19.573 59.775 51.418 59.775h12c4.418 0 8-3.582 8-8s-3.582-8-8-8h-12c-21.115 0-38.242-18.363-35.737-40.149 2.984.213-4.616.149 97.512.149 37.198 0 72.209 14.191 98.871 40h-76.646c-4.418 0-8 3.582-8 8s3.582 8 8 8h90.9c18.873 24.655 29.1 54.652 29.1 86.226 0 9.801-7.974 17.774-17.774 17.774h-118.226c-74.84 0-106.871 98.065-53.746 117.566 1.455 1.5 3.491 2.434 5.746 2.434h69.88c31.454 0 62.675 7.961 90.289 23.023 53.482 29.172 96.548 24.977 143.831 24.977 57.346 0 104-46.654 104-104v-117.824c0-67.611-39.678-129.579-101.084-157.872zm85.084 275.696c0 48.523-39.477 88-88 88-49.958 0-87.314 3.625-136.169-23.023-29.957-16.34-63.828-24.977-97.951-24.977h-61.88c-13.234 0-24-10.766-24-24 0-35.29 28.71-64 64-64h118.226c18.623 0 33.774-15.151 33.774-33.775 0-87.447-70.767-158.225-158.225-158.225h-93.775c-19.851 0-36-16.149-36-36s16.149-36 36-36h208.561c22.025 0 44.221 4.916 64.217 14.231l79.443 36.604c55.754 25.689 91.779 81.954 91.779 143.341z"/></svg>