<svg enable-background="new 0 0 512.002 512.002" height="512" viewBox="0 0 512.002 512.002" width="512" xmlns="http://www.w3.org/2000/svg"><path d="m387.881 251.882-11.88-11.88v-196c0-28.972-32.399-45.743-56-29.94-9.57 6.364-16 17.408-16 29.94v120c0-19.88-16.12-36-36-36-19.893 0-36 16.119-36 36v32c0-19.88-16.12-36-36-36-19.893 0-36 16.119-36 36v20c0-17.67-14.33-32-32-32-15.275 0-28.135 10.729-31.27 25.2l-.73 162.8c0 72.9 59.1 132 132 132h56c72.9 0 132-59.1 132-132v-52.24c0-25.46-10.11-49.87-28.12-67.88z" fill="#f9cfac"/><path d="m387.881 251.882c-.143-.143-69.665-69.665-68.566-68.566-6.231-6.231-16.356-6.272-22.587-.04-32.946 32.946-2.827 67.606-2.827 67.606-9.933 4.062-20.244 5.636-30.01 4.99-2.544 44.991-47.577 74.99-89.82 60.5-11.64 12.1-27.99 19.63-46.07 19.63v36c0 61.856 50.144 112 112 112h76c18.91 0 36.89-3.98 53.16-11.14 28.65-24.22 46.84-60.41 46.84-100.86v-52.24c0-25.46-10.11-49.87-28.12-67.88z" fill="#ffe4cc"/><path d="m344.001 313.062c0 4.01-2.97 7.4-6.94 7.93-55.34 7.37-97.06 55.09-97.06 111.01 0 4.393-3.551 8-8 8-13.356 0-16-10.701-16-24 0-56 42-104 87.07-119.47l-23.61-23.97c-11.09-11.16-18.26-25.27-20.77-40.56h32.78c3.933 13.208 9.685 16.978 38.09 45.83 9.146 9.265 14.44 21.877 14.44 35.23z" fill="#f9cfac"/><g fill="#ffe4cc"><path d="m232.001 196.002v56c0 15.412-9.738 28.898-24 33.95-13.98-4.94-24-18.28-24-33.95v-89.95c23.299-8.242 48 9.043 48 33.95z"/><path d="m232.001 196.002v56c0 15.412-9.738 28.898-24 33.95-13.98-4.94-24-18.28-24-33.95v-89.95c23.299-8.242 48 9.043 48 33.95z"/><path d="m376.001 44.002v162.06c-42.683-42.684-41.901-42.561-48-46.09v-149.92c23.299-8.242 48 9.043 48 33.95z"/><path d="m304.001 164.002v24c0 15.412-9.738 28.898-24 33.95-13.98-4.94-24-18.28-24-33.95v-57.95c23.299-8.242 48 9.043 48 33.95z"/><path d="m160.001 216.002v56c0 13.371-8.19 24.88-20 29.68-11.72-4.75-20-16.25-20-29.68v-86.99c20.244-5.22 40 10.09 40 30.99z"/><path d="m376.001 216.002v1.38l-1.38-1.38z"/></g><path d="m393.538 246.225-9.537-9.537v-192.686c0-39.335-47.624-58.572-75.121-31.112-8.305 8.318-12.879 19.367-12.879 31.112v86.084c-28.111-23.249-70.452-3.962-71.954 32.04-24.801-20.568-62.689-8.247-70.677 22.974-25.791-21.212-65.369-3.053-65.369 30.902v156c0 77.196 62.804 140 140 140h56c27.244 0 53.666-7.839 76.409-22.669 3.701-2.413 4.745-7.37 2.332-11.071s-7.368-4.746-11.07-2.332c-20.139 13.131-43.538 20.071-67.671 20.071h-56c-68.374 0-124-55.626-124-124v-68.021c21.773 16.383 53.6 6.609 62.083-19.754 28.082 26.09 73.917 5.959 73.917-32.224v-30.084c9.434 7.803 21.95 11.567 34.86 9.546 2.273 11.238 7.76 21.575 16 29.873l27.308 27.727c4.849 4.911 7.927 11.027 9.179 17.316-59.431 11.607-103.346 64.306-103.346 125.624 0 4.418 3.582 8 8 8s8-3.582 8-8c0-55.917 41.726-103.64 97.057-111.01 3.975-.53 6.943-3.92 6.943-7.93 0-6.565-1.261-12.972-3.752-19.054-4.814-11.701-9.046-14.513-38.012-43.922-16.802-16.921-16.783-44.256.146-61.152 3.103-3.096 8.157-3.078 11.27.036l68.57 68.57c16.623 16.623 25.777 38.721 25.777 62.223v52.24c0 20.435-5.076 40.689-14.679 58.576-2.09 3.893-.628 8.743 3.265 10.833 3.918 2.103 8.757.603 10.833-3.264 10.848-20.205 16.581-43.077 16.581-66.144v-52.24c0-27.781-10.819-53.896-30.463-73.541zm-241.537 25.777c0 13.234-10.767 24-24 24s-24-10.766-24-24c0-11.424 0-44.59 0-56 0-13.234 10.767-24 24-24s24 10.766 24 24zm72-20c0 15.439-12.561 28-28 28s-28-12.561-28-28c0-12.313 0-44.175 0-56 0-15.439 12.561-28 28-28s28 12.561 28 28zm49.832-36.613c-17.484 3.701-33.833-9.67-33.833-27.388v-24c0-7.476 2.913-14.511 8.193-19.799 17.5-17.474 47.807-5.231 47.807 19.799v9.862c-9.199 5.324-20.801 21.85-22.167 41.526zm38.168-44.402c0-19.863 0-113.148 0-126.985 0-15.367 12.415-28 28-28 15.439 0 28 12.561 28 28v176.686l-43.033-43.033c-3.659-3.659-8.217-5.868-12.967-6.668z"/><path d="m376.039 455.104c-.432.477-.939 1.027-1.39 1.515-4.748 5.15-1.014 13.423 5.88 13.423 3.807 0 5.627-2.273 7.373-4.202 2.965-3.276 2.713-8.334-.563-11.299-3.277-2.967-8.336-2.713-11.3.563z"/></svg>