<svg enable-background="new 0 0 512.105 512.105" height="512" viewBox="0 0 512.105 512.105" width="512" xmlns="http://www.w3.org/2000/svg"><path d="m454.452 226.24v114.08c0 90.4-73.28 163.68-163.68 163.68h-69.44c-90.4 0-163.68-73.28-163.68-163.68 0-.117 0-187.959 0-203.36 0-10.975 4.465-20.905 11.62-28.06 24.978-24.978 67.74-7.117 67.74 28.06v-64.48c0-24.639 19.999-44.64 44.64-44.64 24.65 0 44.64 19.99 44.64 44.64v-19.84c0-24.658 19.979-44.64 44.64-44.64 24.65 0 44.64 19.99 44.64 44.64 0-12.33 5-23.49 13.07-31.57 27.918-27.885 76.21-8.267 76.21 31.57v93.61c29.39 14.62 49.6 44.94 49.6 79.99z" fill="#f9cfac"/><path d="m454.452 226.24v114.08c0 51.8-24.06 97.98-61.62 127.97-22.72 11.95-48.6 18.71-76.06 18.71h-69.44c-90.4 0-163.68-73.28-163.68-163.68v-34.88c32.397 7.126 64.21-11.832 74.22-42.45 28.701 10.655 61.342.91 79.51-24.37 15.458 8.701 33.743 11.067 51.03 6.51 25.632 20.954 50.343 19.87 66.84 19.87v-21.76h-9.92c-38.277 0-69.44-31.026-69.44-69.44 0-10.963 8.857-19.84 19.84-19.84h69.44c49.3 0 89.28 39.98 89.28 89.28z" fill="#ffe4cc"/><path d="m363.252 226.24v40.99c0 4.01-2.97 7.4-6.94 7.93-69.56 9.27-122.02 69.27-122.02 139.56 0 4.38-3.51 7.93-7.88 8-12.964 0-20.417-17.271-19.69-30.55 1.83-33.92 10.91-60.16 38.75-91.72 22.72-25.76 52.8-44.23 85.78-52.9v-21.31z" fill="#f9cfac"/><g fill="#ffe4cc"><path d="m226.292 72.48v109.12c0 11.426-4.253 22.722-13.4 31.88-27.536 5.156-52.88-16.005-52.88-43.88v-136.16c29.403-16.375 66.28 4.827 66.28 39.04z"/><path d="m226.292 72.48v109.12c0 11.426-4.253 22.722-13.4 31.88-27.536 5.156-52.88-16.005-52.88-43.88v-136.16c29.403-16.375 66.28 4.827 66.28 39.04z"/><path d="m314.292 52.48v109.12c0 11.426-4.253 22.722-13.4 31.88-27.536 5.156-52.88-16.005-52.88-43.88v-136.16c29.403-16.375 66.28 4.827 66.28 39.04z"/><path d="m404.852 52.64v109.12c0 11.426-4.253 22.722-13.4 31.88-27.536 5.156-52.88-16.005-52.88-43.88v-136.16c29.403-16.375 66.28 4.827 66.28 39.04z"/><path d="m137.012 136.96v89.28c0 11.671-5.102 22.365-13.17 29.52-22.883 2.169-43.19-16.046-43.19-39.52v-115.3c26.005-12.054 56.36 6.808 56.36 36.02z"/><path d="m137.012 136.96v89.28c0 11.671-5.102 22.365-13.17 29.52-22.883 2.169-43.19-16.046-43.19-39.52v-115.3c26.005-12.054 56.36 6.808 56.36 36.02z"/></g><path d="m358.559 480.514c-1.074.518-2.146 1.027-3.239 1.516-4.031 1.807-5.835 6.541-4.027 10.572 1.815 4.052 6.559 5.826 10.572 4.028 1.228-.551 2.435-1.122 3.642-1.704 3.98-1.918 5.651-6.7 3.732-10.68-1.918-3.979-6.702-5.651-10.68-3.732z"/><path d="m412.852 141.473v-88.833c0-29.026-23.614-52.64-52.64-52.64-18.528 0-35.122 9.539-44.659 24.763-24.174-38.554-81.89-30.142-94.942 12.354-32.268-35.517-91.6-12.612-91.6 35.363v28.887c-30.506-27.182-79.36-5.59-79.36 35.593v203.36c0 94.665 77.016 171.68 171.681 171.68 73.348 0 84.44 1.206 108.974-4.573 4.301-1.013 6.966-5.321 5.953-9.622-1.014-4.3-5.323-6.964-9.621-5.953-23.228 5.473-34.807 4.148-105.305 4.148-85.843 0-155.681-69.838-155.681-155.68v-78.487c30.507 27.183 79.36 5.591 79.36-35.592v-6.897c28.154 27.339 75.348 15.314 86.947-22.237 14.756 16.255 37.733 21.561 57.988 13.741 14.678 15.037 33.904 23.392 57.306 23.392v26.149c-73.712 13.229-128.96 77.643-128.96 154.331 0 4.418 3.582 8 8 8s8-3.582 8-8c0-70.295 52.455-130.291 122.017-139.556 3.975-.53 6.943-3.92 6.943-7.93v-40.994c0-4.418-3.582-8-8-8h-9.92c-33.878 0-61.44-27.562-61.44-61.44 0-6.555 5.278-11.84 11.84-11.84h69.44c44.818 0 81.28 36.462 81.28 81.28v114.08c0 49.29-22.587 94.604-61.97 124.324-3.526 2.662-4.228 7.678-1.566 11.205 2.662 3.528 7.678 4.228 11.205 1.567 41.769-31.522 68.331-81.397 68.331-137.096v-114.08c0-36.327-20.019-68.062-49.601-84.767zm-283.84 84.767c0 17.468-14.212 31.68-31.68 31.68-17.469 0-31.681-14.211-31.681-31.68v-89.28c0-17.468 14.212-31.68 31.681-31.68 17.468 0 31.68 14.211 31.68 31.68zm89.281-44.64c0 20.204-16.437 36.64-36.641 36.64-20.203 0-36.64-16.437-36.64-36.64 0-46.792 0-58.649 0-109.12 0-20.204 16.437-36.64 36.64-36.64 20.204 0 36.641 16.437 36.641 36.64zm57.737-44.484c-5.248 5.265-8.138 12.255-8.138 19.684 0 14.883 4.23 28.793 11.537 40.608-23.182 5.499-45.136-12.188-45.136-35.648 0-12.568 0-90.976 0-109.12 0-20.108 16.24-36.64 36.64-36.64 20.203 0 36.64 16.437 36.64 36.64v76.32c-12.515 0-22.022-1.334-31.543 8.156zm47.542-8.156v-76.32c0-9.783 3.812-18.987 10.723-25.909 22.905-22.869 62.558-6.836 62.558 25.909v81.62c-19.374-6.691-30.311-5.3-73.281-5.3z"/></svg>