<svg enable-background="new 0 0 512 512" height="512" viewBox="0 0 512 512" width="512" xmlns="http://www.w3.org/2000/svg"><path d="m416 372c0 72.9-59.1 132-132 132h-56c-72.9 0-132-59.1-132-132v-228c0-8.84 3.58-16.84 9.37-22.63 20.021-20.021 54.63-5.918 54.63 22.63v-60c0-18.876 14.615-34.559 33.23-35.89 19.926-1.994 38.77 14.387 38.77 35.89v-40c0-18.054 13.259-32.584 29.39-35.39 21.986-4.16 42.61 12.778 42.61 35.39v112c0-19.964 16.199-36 36-36 19.88 0 36 16.12 36 36v84c11.909 11.909 22.493 21.046 30.64 38.42 11.769 25.074 9.36 39.512 9.36 93.58z" fill="#f9cfac"/><path d="m416 319.76v40.24c0 70.692-57.308 128-128 128-40.291 0-46.515.464-59.03-1.41-61.67-9.19-108.97-62.37-108.97-126.59v-246.99c19.841-5.148 40 9.748 40 30.99v144c13.218 0 24-10.709 24-24 0-224.13-.117-213.927.21-214.02 21.968-8.16 47.79 8.405 47.79 34.02v204c13.218 0 24-10.709 24-24 0-267.444-.116-253.924.22-254.02 21.741-8.36 47.78 8.425 47.78 34.02v135.12c5.29-1.36 11.16.04 15.31 4.19l8.69 8.69v-69.94c23.539-8.411 48 9.527 48 34.587v83.353c9.63 9.63 14.724 14.332 19.55 20.54 12.697 15.999 20.45 37.146 20.45 59.22z" fill="#ffe4cc"/><path d="m344 313.06c0 4.01-2.97 7.4-6.94 7.93-55.33 7.37-97.06 55.09-97.06 111.01 0 3.39-2.11 6.29-5.09 7.45-13.077 3.967-18.91-16.23-18.91-23.45 0-61.28 30.88-99.18 87.07-119.47-13.623-18.779-31.057-55.706-29.39-77.36.21-4.23 3.71-7.59 7.99-7.59 4.42 0 8 3.58 8 8 0 11.51 4.46 22.34 12.57 30.5l27.32 27.75c9.212 9.333 14.44 21.944 14.44 35.23z" fill="#f9cfac"/><path d="m96 296c4.418 0 8-3.582 8-8v-7.69c0-4.418-3.582-8-8-8s-8 3.582-8 8v7.69c0 4.418 3.582 8 8 8z"/><path d="m393.537 246.223-9.537-9.536v-80.687c0-37.361-43.67-57.37-72-33.946v-78.054c0-24.262-19.738-44-44-44-24.094 0-44 19.468-44 44v6.084c-28.518-23.585-72-3.218-72 33.916v28.022c-26.4-19.864-64-.806-64 31.978v104c0 4.418 3.582 8 8 8s8-3.582 8-8v-104c0-6.414 2.496-12.441 7.027-16.973 15.07-15.068 40.973-4.285 40.973 16.973v136c0 4.418 3.582 8 8 8s8-3.582 8-8c0-9.472 0-190.644 0-196 0-15.439 12.561-28 28-28s28 12.561 28 28v196c0 4.418 3.582 8 8 8s8-3.582 8-8c0-9.401 0-224.531 0-236 0-15.604 12.648-28 28-28 15.439 0 28 12.561 28 28v129.862c-1.756 1.016-3.42 2.247-4.921 3.745-23.225 23.18-23.159 60.625-.218 83.726 27.536 27.96 33.888 31.976 36.485 45.043-59.431 11.608-103.346 64.307-103.346 125.624 0 4.418 3.582 8 8 8s8-3.582 8-8c0-55.917 41.725-103.64 97.056-111.01 3.975-.53 6.944-3.92 6.944-7.93 0-13.306-5.264-25.941-14.44-35.233l-27.323-27.744c-16.767-16.885-16.816-44.224.146-61.152 3.101-3.094 8.156-3.079 11.271.036 8.419 8.419 60.389 60.389 68.57 68.57 16.622 16.622 25.776 38.72 25.776 62.223v52.24c0 68.374-55.626 124-124 124h-56c-68.374 0-124-55.626-124-124v-52c0-4.418-3.582-8-8-8s-8 3.582-8 8v52c0 77.196 62.804 140 140 140h56c77.196 0 140-62.804 140-140v-52.24c0-27.777-10.819-53.892-30.463-73.537zm-81.537-75.237c0-14.146-1.713-24.864 8.193-34.784 17.502-17.477 47.807-5.23 47.807 19.798v64.687l-43.033-43.033c-3.659-3.659-8.217-5.868-12.967-6.668z"/></svg>