<svg enable-background="new 0 0 512.001 512.001" height="512" viewBox="0 0 512.001 512.001" width="512" xmlns="http://www.w3.org/2000/svg"><path d="m368.001 111.337h-319.29c-35.564 0-54.441 42.829-28.99 68.28 7.24 7.24 17.24 11.72 28.28 11.72h142.57c-20.065 9.799-29.458 34.694-16.78 56.73-34.93 4.95-61.79 34.97-61.79 71.27 0 8.853 7.16 16 16 16 61.897 0 74.019-1.299 99.06 5l23.3 40.36c15.852 27.447 55.841 26.358 70.22-1.72 24.711 5.791 37.56 4.36 111.42 4.36 39.76 0 72-32.24 72-72v-64c0-75.118-60.878-136-136-136z" fill="#ffe4cc"/><g fill="#f9cfac"><path d="m296.001 207.627c-.138 18.814-13.258 34.528-30.86 38.66-11.241 2.638-77.177-.355-91.35 1.78-12.103-21.036-4.046-44.833 14.22-55.37 3.331-1.943-6.679-1.36 91.88-1.36 8.836 0 16.15 7.197 16.11 16.29z"/><path d="m320.581 378.977c-14.387 28.094-54.379 29.148-70.22 1.72l-23.3-40.36c43.212 10.884 49.245 28.301 93.52 38.64z"/><path d="m504.001 247.337v64c0 39.76-32.24 72-72 72-76.18 0-86.961 1.372-111.42-4.36-44.348-10.345-50.246-27.754-93.52-38.64-25.026-6.295-36.196-5-99.06-5-8.853 0-16-7.16-16-16 0-39.774 32.256-72 72-72 80.227 0 75.12.363 81.14-1.05 17.61-4.134 30.722-19.858 30.86-38.66.028-6.42-3.632-12-9.06-14.66-4.765-2.338 14.301-1.63-238.94-1.63-21.964 0-39.859-17.754-40-39.73-.157-22.021 18.458-40.27 40.71-40.27h319.29c75.118 0 136 60.877 136 136z"/></g><g fill="#ffe4cc"><path d="m504.001 247.337v41.33c0 39.77-32.24 72-72 72-76.18 0-86.961 1.372-111.42-4.36-44.314-10.337-50.28-27.762-93.52-38.64-25.026-6.295-36.196-5-99.06-5-6.249 0-11.741-3.61-14.31-8.85 6.649-30.332 32.171-52.783 62.31-56.04 5.716-.63 2.489-.44 80-.44 22.872 0 40.653-19.163 39.98-40.67-.53-9.433-.023-11.506.02-15.04.033-2.851-.314-1.1-.09-4.19.05-.82.08-1.64.09-2.48.04-6.43-3.65-12.01-9.06-14.66-4.766-2.338 14.301-1.63-238.94-1.63-18.199 0-33.465-12.158-38.33-28.56 5.05-16.59 20.88-28.77 39.04-28.77h319.29c75.118 0 136 60.877 136 136z"/><path d="m504.001 247.337v41.33c0 39.77-32.24 72-72 72-76.18 0-86.961 1.372-111.42-4.36-44.314-10.337-50.28-27.762-93.52-38.64-25.026-6.295-36.196-5-99.06-5-6.249 0-11.741-3.61-14.31-8.85 6.649-30.332 32.171-52.783 62.31-56.04 5.716-.63 2.489-.44 80-.44 22.872 0 40.653-19.163 39.98-40.67-.273-4.857.145.023-.17-10.79-.216-6.112.151-7.656.19-10.92.04-6.43-3.65-12.01-9.06-14.66-4.766-2.338 14.301-1.63-238.94-1.63-18.199 0-33.465-12.158-38.33-28.56 5.05-16.59 20.88-28.77 39.04-28.77h319.29c75.118 0 136 60.877 136 136z"/><path d="m286.631 199.337c-4.235 11.552-18.441 24-36.63 24h-81.78c1.25-12.36 8.21-23.96 19.79-30.64 3.334-1.945-5.982-1.36 85.88-1.36 5.449 0 10.783 2.577 12.74 8z"/><path d="m286.631 199.337c-4.235 11.552-18.441 24-36.63 24h-81.78c1.25-12.36 8.21-23.96 19.79-30.64 3.334-1.945-5.982-1.36 85.88-1.36 5.449 0 10.783 2.577 12.74 8z"/></g><path d="m216.001 119.337h8c4.418 0 8-3.582 8-8s-3.582-8-8-8h-8c-4.418 0-8 3.582-8 8s3.581 8 8 8z"/><path d="m368.001 103.337h-112c-4.418 0-8 3.582-8 8s3.582 8 8 8h112c70.751 0 128 57.24 128 128v64c0 35.29-28.71 64-64 64h-73.77c-26.088 0-52.516-6.568-76.204-19.711-9.765-5.418-42.967-28.289-95.276-28.289h-58.75c-4.435 0-8-3.567-8-8 0-31.678 23.607-58.913 54.98-63.359 14.287-2.156 78.969 1.154 91.988-1.903 12.608-2.959 22.969-12.077 22.969-12.802 12.91-12.909 16.404-31.502 12.616-41.953-3.102-8.558-10.698-14.766-19.929-15.826-2.061-.237 12.52-.157-234.625-.157-17.604 0-31.888-14.22-32-31.781-.114-17.915 15.216-32.219 32.71-32.219h135.29c4.418 0 8-3.582 8-8s-3.582-8-8-8h-135.289c-26.15 0-48.88 21.318-48.71 48.321.168 26.321 21.546 47.679 48 47.679h121.002c-8.772 12.229-11.478 28.238-6.608 42.97-34.192 9.579-58.394 40.841-58.394 77.03 0 13.238 10.695 24 24 24 62.697 0 71.907-1.035 93.861 3.995l21.571 37.366c17.504 30.306 60.957 32.385 81.038 3.296 22.283 4.434 31.075 3.343 107.53 3.343 44.112 0 80-35.888 80-80v-64c0-79.593-64.395-144-144-144zm-88.11 96c15.101 0 8.645 33.241-16.578 39.162-7.763 1.822-72.931.209-84.895 1.031-5.927-14.29-.772-31.619 13.62-39.921.699-.407-6.032-.272 87.853-.272zm-22.602 177.36-12.926-22.39c26.332 10.373 30.888 19.521 62.924 29.364-15.024 14.551-39.626 10.984-49.998-6.974z"/></svg>