<svg enable-background="new 0 0 512.041 512.041" height="512" viewBox="0 0 512.041 512.041" width="512" xmlns="http://www.w3.org/2000/svg"><path d="m476.241 270.161c-14.098-25.765-26.593-35.473-83.7-92.57-8.21-8.209-18.235-15.07-26.04-18.71-25.636-12.818-45.25-10.35-77.41-10.35-7.863-7.398-132.545-124.632-138.53-130.26-6.799-6.779-15.791-10.27-24.8-10.27-31.256 0-46.729 37.941-24.8 59.87l-24.8-24.8c-6.772-6.752-15.756-10.27-24.8-10.27-31.147 0-46.782 37.888-24.8 59.87l123.1 115.03c-13.34-11.18-33.24-10.5-45.77 2.03l-1.6 1.6c-13.26 13.26-13.26 34.75 0 48 14.446 14.446 10.172 10.173 24.8 24.8-12.075-12.075-33.053-14.946-49.6 1.6-13.162 13.162-13.355 34.645 0 48 71.702 71.715 45.488 45.498 124.03 124.04 29.6 29.6 69.75 46.23 111.6 46.23 37.619 0 24.96-.03 27.87-.03 119.271-2.364 191.997-130.823 135.25-233.81z" fill="#f9cfac"/><path d="m495.102 331.861c-7.25 80.44-74.85 143.47-157.17 143.47h-24.8c-41.86 0-82-16.62-111.6-46.22l-14.55-14.55c23.66-14.452 35.141-42.401 26.6-68.91 35.524-19.511 42.217-65.955 14.74-93.42-63.094-63.094-56.211-56.333-58.01-58.02-154.903-145.144-145.814-135.197-149.9-142.84 8.245-15.528 27.255-22.957 44.37-15.9 8.542 3.542 10.18 6.4 36.18 32.4l89.27 82.68c5.297-2.885-2.615-2.02 132.17-2.02 26.31 0 51.54 10.45 70.14 29.06l56.99 56.98c25.467 25.467 42.147 59.664 45.57 97.29z" fill="#ffe4cc"/><path d="m369.152 393.931c-2.759 2.741-6.262 2.34-5.66 2.34-17.514 0-33.82-8.922-43.274-23.665-19.745-30.792-30.326-66.622-30.326-104.085v-10.84l-2.48-2.48h-22.66c-40.08 0-74.14-26.3-85.81-62.55-3.011-9.313-5.452-24.356-3.87-32.16 4.421-6.356 14.5-3.366 14.551 4.941.195 31.884 26.199 57.769 58.129 57.769h49.6c4.422 0 4.631 1.312 22.2 18.87 3.046 3.046 2.34 4.251 2.34 26.45 0 43.1 16.78 83.62 47.26 114.09 3.12 3.13 3.12 8.19 0 11.32z" fill="#f9cfac"/><path d="m369.152 393.931c-3.141 3.121-8.18 3.12-11.32 0-33.49-33.5-51.94-78.04-51.94-125.41v-17.48l-11.85-11.84h-46.29c-40.943 0-74.13-33.311-74.13-74.13 0-4.324 3.505-8 8-8 4.42 0 8 3.58 8 8 0 32.05 26.08 58.13 58.13 58.13h49.6c2.12 0 4.16.84 5.66 2.34 17.358 17.348 18.88 17.758 18.88 22.19v20.79c0 43.1 16.78 83.62 47.26 114.09 3.12 3.13 3.12 8.19 0 11.32z"/><g fill="#ffe4cc"><path d="m191.511 355.941c-12.388 20.765-38.995 23.825-54.69 8.13l-55.33-55.34c-4.7-4.7-7.74-10.43-9.1-16.47 12.273-20.573 38.837-23.981 54.7-8.13l55.33 55.34c4.7 4.7 7.731 10.43 9.09 16.47z"/><path d="m191.511 355.941c-12.388 20.765-38.995 23.825-54.69 8.13l-55.33-55.34c-4.7-4.7-7.74-10.43-9.1-16.47 12.273-20.573 38.837-23.981 54.7-8.13l55.33 55.34c4.7 4.7 7.731 10.43 9.09 16.47z"/><path d="m220.221 284.701c-1.21 4.71-3.45 9.22-6.72 13.15-13.33 11.16-33.22 10.47-45.75-2.05l-59.46-59.47c-4.45-4.45-7.41-9.82-8.87-15.5 1.21-4.72 3.46-9.23 6.74-13.17 13.33-11.14 33.2-10.45 45.73 2.07l59.46 59.47c4.451 4.44 7.41 9.82 8.87 15.5z"/><path d="m220.221 284.701c-1.21 4.71-3.45 9.22-6.72 13.15-13.33 11.16-33.22 10.47-45.75-2.05l-59.46-59.47c-4.45-4.45-7.41-9.82-8.87-15.5 1.21-4.72 3.46-9.23 6.74-13.17 13.33-11.14 33.2-10.45 45.73 2.07l59.46 59.47c4.451 4.44 7.41 9.82 8.87 15.5z"/><path d="m265.882 126.701-68.03 1.03-90.39-82.13c-4.71-4.71-7.95-10.64-9.4-17.05 1.07-4.75 3.11-9.14 5.91-12.95 9.818-7.815 23.245-9.864 35.21-4.93 8.423 3.493 1.063-2.101 126.7 116.03z"/><path d="m265.882 126.701-68.03 1.03-90.39-82.13c-4.71-4.71-7.95-10.64-9.4-17.05 1.07-4.75 3.11-9.14 5.91-12.95 9.818-7.815 23.245-9.864 35.21-4.93 8.423 3.493 1.063-2.101 126.7 116.03z"/></g><path d="m455.188 228.913-56.988-56.978c-20.24-20.251-47.159-31.405-75.798-31.405h-30.146l-136.131-128.006c-25.482-25.332-69.444-10.008-73.196 26.004-19.22-19.22-46.087-17.052-62.026-1.113-17.012 17.012-16.624 44.29 0 60.914.152.152-4.43-4.133 100.566 93.981-31.968 4.912-51.923 45.596-23.336 74.183-11.534 1.35-19.191 6.474-26.302 13.584-16.391 16.39-16.393 42.921 0 59.313 64.38 64.381 30.984 30.988 95.083 95.086 1.562 1.562 3.609 2.343 5.657 2.343 7.062 0 10.712-8.602 5.657-13.657l-16.476-16.476c31.878-3.743 51.555-43.255 28.735-70.243 33.434-3.767 52.837-46.589 26.524-72.901-78.403-78.402-38.601-39.92-184.884-176.617-10.295-10.394-10.632-27.474.089-38.196 7.947-7.947 19.59-9.952 29.489-5.878 6.681 2.785 7.056 4.137 33.597 30.678.215.215-3.641-3.295 83.77 76.122-3.53 4.352-5.451 9.737-5.451 15.42 0 40.875 33.254 74.13 74.13 74.13h46.288l11.853 11.845v17.475c0 47.374 18.447 91.911 51.942 125.407 3.125 3.125 8.189 3.125 11.314 0 3.124-3.124 3.124-8.189 0-11.313-30.475-30.475-47.257-70.994-47.257-114.093v-20.79c0-4.399-1.239-4.554-18.885-22.188-1.5-1.499-3.534-2.341-5.655-2.341h-49.6c-32.053 0-58.13-26.077-58.13-58.13 0-3.514 2.127-6.485 5-7.769 2.468-1.102-8.419-.771 127.78-.771 24.363 0 47.263 9.488 64.483 26.717l56.989 56.979c28.295 28.294 43.878 65.919 43.878 105.943 0 82.785-67.001 149.83-149.82 149.83-31.528 0-69.595 2.74-112.707-28.498-3.577-2.593-8.581-1.793-11.172 1.784-2.593 3.578-1.794 8.58 1.784 11.172 46.949 34.019 88.727 31.542 122.094 31.542 91.624 0 165.82-74.166 165.82-165.83.002-44.299-17.245-85.942-48.562-117.259zm-278.423 152.898-1.6 1.6c-10.115 10.114-26.572 10.113-36.687 0l-55.333-55.333c-4.899-4.9-7.598-11.414-7.598-18.343 0-8.85 3.725-14.47 9.198-19.943 10.137-10.137 26.547-10.139 36.686 0l55.333 55.333c10.138 10.138 10.139 26.546.001 36.686zm28.933-106.953c10.114 10.115 10.114 26.572 0 36.687l-1.6 1.6c-10.114 10.114-26.572 10.114-36.687 0l-59.467-59.466c-10.114-10.115-10.114-26.572 0-36.687 5.419-5.419 11.068-9.186 19.943-9.186 5.824 0 11.647 1.944 16.403 5.831 3.997 3.733-4.423-4.61 61.408 61.221zm-99.082-250.929c9.572-9.571 25.936-11.637 38.463.171l123.819 116.43c-76.951 0-72.212-.192-75.555.468l-86.855-78.913c-10.184-10.325-10.647-27.38.128-38.156z"/><path d="m200.868 445.794c-3.124-3.124-8.189-3.124-11.313 0-3.125 3.124-3.125 8.189 0 11.313 1.743 1.743 3.419 3.703 7.017 3.703 7.062 0 10.712-8.602 5.657-13.657z"/><path d="m170.312 194.211c-1.678-1.573-.499-.468-5.37-5.03 2.385 1.997 3.699 3.359 5.37 5.03z" fill="#ffe4cc"/></svg>