<svg enable-background="new 0 0 512 512" height="512" viewBox="0 0 512 512" width="512" xmlns="http://www.w3.org/2000/svg"><path d="m433.135 300.02v57.84c0 80.238-64.892 146.14-146.14 146.14h-62c-80.71 0-146.14-65.43-146.14-146.14v-314.43c-.001-19.556 15.85-35.43 35.429-35.43 19.56 0 35.42 15.86 35.42 35.43v101.86c0-22.567 18.625-40.442 40.94-39.85 21.631.578 38.78 18.748 38.78 40.5 0-17.746-1.63-29.164 7.67-41.88 22.612-31.024 72.04-14.936 72.04 24.16 0 17.106-.07 16.11.03 16.11-.299-.298.01-15.583 11.64-27.23 25.344-25.175 68.05-6.964 68.05 28.19v66.42l13.15 13.16c19.93 19.93 31.131 46.97 31.131 75.15z" fill="#f9cfac"/><g fill="#ffe4cc"><path d="m309.005 144.311c.518-21.586 18.173-38.883 39.846-38.883 22.01 0 39.857 17.847 39.857 39.857v66.429z"/><path d="m229.284 145.94v70.2c0 17.28-10.99 31.99-26.36 37.51-15.37-5.52-26.36-20.23-26.36-37.51v-108.59c26.165-8.942 52.72 11.015 52.72 38.39z"/><path d="m309.284 128.94v87.2c0 17.28-10.99 31.99-26.36 37.51-15.37-5.52-26.36-20.23-26.36-37.51v-125.59c26.165-8.942 52.72 11.015 52.72 38.39z"/><path d="m431.135 300.02v49.84c0 46.195-21.496 88.069-56.2 115.19-38.028 18.385-66.565 14.45-125.44 14.45-71.419 0-134.99-51.769-144.97-127.53-1.573-14.137-1.402 16.634-.67-338.8 5.184-3.172 11.598-4.82 13.45-4.82 17.18 2.44 30.4 17.22 30.4 35.08v217.8c21.595 24.252 58.925 25.089 81.58 2.01 23.405 23.867 61.88 21.841 82.94-3.6.8-.63 1.58-1.29 2.34-1.97 13.817 14.008 16.471 16.031 19.27 22.26-62.981 15.881-109.365 71.456-112.26 137.82-.032.637-.23 6.08-.13 6.08-.299 4.485 3.338 8.45 7.99 8.45 5.002 0 8.404-4.55 7.99-8.27.14-67.23 50.23-122.76 115.14-131.41 0-22.552-13.397-32.763-27.68-47.25-5.066-5.146-1.63-1.657-15.99-16.23-22.047-22.208-21.953-58.11.19-80.21 4.33-4.32 10.33-5.92 15.91-4.81 4.676.925 7.99 3.749 7.99 3.85 1.296 1.057-2.761-3.42 67.02 76.92 19.929 19.93 31.13 46.97 31.13 75.15z"/></g><path d="m351.424 292.6c0 4.01-2.97 7.4-6.94 7.93-61.69 8.22-108.2 61.42-108.2 123.76 0 2.71-1.35 5.11-3.41 6.55-13.594 2.738-24.88-5.873-24.88-22.84 0-38.24 10.21-58.79 35.49-87.44 18.36-20.82 42.07-36.42 68.2-45.14 0 0-1.337-1.379-3.475-3.594-11.51-11.921-3.066-31.826 13.505-31.826.1 0-1.015-1.03 13.97 14.18 9.844 10.02 15.74 23.688 15.74 38.42z" fill="#f9cfac"/><path d="m407.661 219.213-10.81-10.81v-63.118c0-43.29-52.88-63.989-82.445-33.065-6.457-18.415-23.67-31.957-43.844-32.493-21.925-.599-40.258 13.495-46.657 32.596-18.106-19.012-47.211-19.732-66.198-2.753v-66.141c.001-23.947-19.48-43.429-43.426-43.429s-43.429 19.482-43.429 43.429c0 12.367.003 290.174.003 314.431 0 84.993 69.146 154.14 154.14 154.14h62c55.826 0 107.427-30.306 134.665-79.09 2.153-3.858.772-8.731-3.085-10.885-3.86-2.155-8.731-.773-10.886 3.085-24.413 43.726-70.661 70.89-120.695 70.89h-62c-76.171 0-138.14-61.969-138.14-138.14 0-24.411-.003-302.154-.003-314.431.001-15.124 12.306-27.429 27.43-27.429s27.428 12.305 27.428 27.429v212.571c0 4.418 3.582 8 8 8s8-3.582 8-8v-4.184c21.714 19.411 55.511 15.113 71.715-9.222 17.989 27.016 56.685 28.691 77.073 3.603 18.623 18.907 26.848 24.712 29.484 39.686-66.183 12.524-114.557 70.584-114.557 138.407 0 4.418 3.582 8 8 8s8-3.582 8-8c0-62.337 46.515-115.542 108.197-123.76 3.975-.53 6.943-3.92 6.943-7.93 0-14.318-5.605-28.115-15.741-38.414l-30.244-30.705c-18.817-18.936-19.025-49.761.153-68.906 3.778-3.766 9.92-3.75 13.694.032l75.921 75.92c18.294 18.293 28.786 43.623 28.786 69.493 0 62.731.115 60.929-.331 67.455-.301 4.408 3.028 8.225 7.437 8.526 4.402.303 8.226-3.028 8.526-7.437.493-7.221.368-4.824.368-68.545.001-30.524-11.887-59.222-33.472-80.806zm-218.095 28.787c-17.566 0-31.857-14.291-31.857-31.857v-70.857c0-17.605 14.233-31.857 31.85-31.857 17.644 0 31.865 14.869 31.865 32.51v70.204c-.001 17.566-14.292 31.857-31.858 31.857zm86.848-58.89c0 17.204 6.666 33.395 18.745 45.575-18.175 25.207-57.736 12.17-57.736-18.542 0-10.508 0-77.208 0-88.572 0-8.506 3.313-16.509 9.321-22.526 20.341-20.316 54.393-5.228 54.393 23.18v10.743c-11.17 6.169-24.723 26.568-24.723 50.142zm42.034-52.875c3.9-13.211 16.079-22.807 30.547-22.807 17.566 0 31.857 14.291 31.857 31.857v47.118l-49.106-49.106c-3.766-3.77-8.422-6.124-13.298-7.062z"/><path d="m429.517 391.607c-10.165-3.102-15.038 12.935-5.173 16.238 10.383 3.478 15.354-13.136 5.173-16.238z"/></svg>