<svg enable-background="new 0 0 512 512" height="512" viewBox="0 0 512 512" width="512" xmlns="http://www.w3.org/2000/svg"><path d="m502.14 300.02v57.84c0 79.763-64.369 146.14-146.14 146.14h-62c-80.71 0-146.14-65.43-146.14-146.14v-314.43c0-14.157 8.275-26.233 20.02-31.91 23.28-11.29 50.83 5.65 50.83 31.91v101.86c0-13.246 6.514-25.101 16.5-32.3 26.402-19.089 63.22.019 63.22 32.95 0-17.746-1.63-29.164 7.67-41.88 22.612-31.024 72.04-14.936 72.04 24.16 0 17.106-.07 16.11.03 16.11-.525-.524.48-23.16 21.13-34.25 26.21-13.951 58.56 4.93 58.56 35.21v66.42l13.15 13.16c19.93 19.93 31.13 46.97 31.13 75.15z" fill="#f9cfac"/><g fill="#ffe4cc"><path d="m380.011 144.311c.518-21.586 18.173-38.883 39.846-38.883 22.01 0 39.857 17.847 39.857 39.857v66.429z"/><path d="m300.29 145.94v70.2c0 17.28-10.99 31.99-26.36 37.51-15.37-5.52-26.36-20.23-26.36-37.51v-108.59c26.165-8.942 52.72 11.015 52.72 38.39z"/><path d="m380.29 128.94v87.2c0 17.28-10.99 31.99-26.36 37.51-15.37-5.52-26.36-20.23-26.36-37.51v-125.59c26.165-8.942 52.72 11.015 52.72 38.39z"/><path d="m303.44 259.74c-1 1.21-2.06 2.38-3.15 3.5-1.04-1.041-1.081-.095 3.15-3.5z"/><path d="m502.14 300.02v49.84c0 46.195-21.496 88.069-56.2 115.19-38.028 18.385-66.565 14.45-125.44 14.45-71.419 0-134.99-51.769-144.97-127.53-1.573-14.137-1.402 16.634-.67-338.8 5.184-3.172 11.598-4.82 13.45-4.82 17.18 2.44 30.4 17.22 30.4 35.08v217.8c21.595 24.252 58.925 25.089 81.58 2.01 23.405 23.867 61.88 21.841 82.94-3.6.8-.63 1.58-1.29 2.34-1.97 13.817 14.008 16.471 16.031 19.27 22.26-62.982 15.881-109.365 71.456-112.26 137.82-.032.637-.23 6.08-.13 6.08-.299 4.485 3.338 8.45 7.99 8.45 5.002 0 8.404-4.55 7.99-8.27.14-67.23 50.23-122.76 115.14-131.41 0-22.552-13.397-32.763-27.68-47.25-5.066-5.146-1.63-1.657-15.99-16.23-22.047-22.208-21.953-58.11.19-80.21 4.33-4.32 10.33-5.92 15.91-4.81 4.676.925 7.99 3.749 7.99 3.85 1.296 1.057-2.761-3.42 67.02 76.92 19.93 19.93 31.13 46.97 31.13 75.15z"/></g><path d="m166.185 477.073c2.35-2.856 2.395-6.927.232-9.835-.73-.98 1.409 1.275-32.76-32.894-3.125-3.124-8.189-3.124-11.314 0-3.124 3.124-3.124 8.189 0 11.313l18.344 18.343h-20.687c-57.346 0-104-46.654-104-104s46.654-104 104-104c4.418 0 8-3.582 8-8s-3.582-8-8-8c-66.168 0-120 53.832-120 120s53.832 120 120 120h20.687l-18.344 18.343c-5.056 5.056-1.405 13.657 5.657 13.657 2.048 0 4.095-.781 5.657-2.343 33.827-33.827 32.13-32.099 32.528-32.584z" fill="#ef6767"/><path d="m423.43 292.6c0 4.01-2.97 7.4-6.94 7.93-61.69 8.22-108.2 61.42-108.2 123.76 0 2.71-1.35 5.11-3.41 6.55-13.594 2.738-24.88-5.873-24.88-22.84 0-38.24 10.21-58.79 35.49-87.44 18.36-20.82 42.07-36.42 68.2-45.14 0 0-1.337-1.379-3.475-3.594-11.51-11.921-3.066-31.826 13.505-31.826.1 0-1.015-1.03 13.97 14.18 9.844 10.02 15.74 23.688 15.74 38.42z" fill="#f9cfac"/><path d="m303.44 259.74c-1 1.21-2.06 2.38-3.15 3.5-1.04-1.041-1.081-.095 3.15-3.5z" fill="#ffe4cc"/><path d="m303.44 259.74c-1 1.21-2.06 2.38-3.15 3.5-1.04-1.041-1.081-.095 3.15-3.5z" fill="#ffe4cc"/><circle cx="375.959" cy="502.833" r="8"/><path d="m478.527 219.213-10.813-10.813v-63.114c0-43.306-52.895-63.975-82.444-33.065-6.458-18.415-23.67-31.957-43.844-32.492-22.005-.601-40.287 13.576-46.657 32.596-18.104-19.009-47.212-19.73-66.198-2.753v-66.143c0-23.947-19.482-43.429-43.428-43.429s-43.429 19.482-43.429 43.429c0 12.994-.004 176.676-.004 314.431 0 84.993 69.151 154.14 154.15 154.14h48.14c4.418 0 8-3.582 8-8s-3.582-8-8-8h-48.14c-76.177 0-138.15-61.969-138.15-138.14 0-138.291.004-302.495.004-314.431 0-15.124 12.305-27.429 27.429-27.429s27.429 12.305 27.429 27.429v212.571c0 4.418 3.582 8 8 8s8-3.582 8-8v-4.184c21.718 19.415 55.515 15.108 71.715-9.222 17.988 27.015 56.681 28.691 77.071 3.605 18.619 18.897 26.854 24.716 29.488 39.684-66.244 12.535-114.556 70.634-114.556 138.407 0 4.418 3.582 8 8 8s8-3.582 8-8c0-62.337 46.515-115.542 108.196-123.76 3.975-.53 6.943-3.92 6.943-7.93 0-14.291-5.581-28.089-15.741-38.415l-30.251-30.701c-18.843-18.979-18.986-49.798.166-68.913 3.767-3.762 9.907-3.746 13.689.036l75.92 75.92c18.296 18.294 28.788 43.623 28.788 69.493v57.84c0 57.822-36.475 109.987-90.763 129.806-9.879 3.605-4.522 18.679 5.486 15.03 59.634-21.771 101.277-78.767 101.277-144.836v-57.84c0-30.523-11.888-59.221-33.473-80.807zm-218.098 28.787c-17.566 0-31.857-14.291-31.857-31.857v-70.857c0-17.608 14.235-31.857 31.85-31.857 17.608 0 31.865 14.834 31.865 32.51v70.204c-.001 17.566-14.292 31.857-31.858 31.857zm86.851-58.89c0 17.202 6.663 33.394 18.739 45.58-18.171 25.186-57.733 12.19-57.733-18.547 0-10.508 0-77.208 0-88.572 0-8.507 3.313-16.51 9.321-22.526 20.343-20.314 54.393-5.231 54.393 23.18v10.74c-11.07 6.118-24.72 26.449-24.72 50.145zm42.03-52.874c3.9-13.21 16.081-22.807 30.548-22.807 17.565 0 31.856 14.291 31.856 31.857v47.114l-49.106-49.106c-3.768-3.768-8.424-6.12-13.298-7.058z"/></svg>