<svg enable-background="new 0 0 512.003 512.003" height="512" viewBox="0 0 512.003 512.003" width="512" xmlns="http://www.w3.org/2000/svg"><path d="m430.764 68.043c-11.079 41.354-42.144 157.289-51.49 192.17 8.652 10.919 14.61 23.309 17.82 36.15 3.791 14.566 2.9 21.849 2.9 75.64 0 72.9-59.1 132-132 132h-56c-72.9 0-132-59.1-132-132v-164c0-14.896 10.184-27.45 24-30.99 20.33-5.242 40 10.161 40 30.99v-28c0-15.561 9.908-28.986 24-33.94 15.899-5.682 33.33.75 41.96 13.98-2.635-10.162 8.781 32.786-28.59-106.71-5.16-19.293 6.318-38.965 25.46-44.09 19.2-5.15 38.94 6.25 44.09 25.45 5.874 21.935 37.898 141.445 38.6 144.09.099.297 7.307-1.953 13.79 4.53l17.38 17.38c9.65-36.017 31.514-117.635 40.53-151.28 6.291-23.466 33.53-34.011 53.91-21.18 13.229 8.268 19.779 24.351 15.64 39.81z" fill="#f9cfac"/><g fill="#ffe4cc"><path d="m418.084 30.303c-6.978 26.064-39.332 146.804-49.81 185.91l-40.68-41.32c12.911-48.188 27.635-103.143 33.62-125.48 6.684-24.929 36.641-34.844 56.87-19.11z"/><path d="m418.084 30.303c-6.978 26.064-39.332 146.804-49.81 185.91l-40.68-41.32c12.911-48.188 27.635-103.143 33.62-125.48 6.684-24.929 36.641-34.844 56.87-19.11z"/><path d="m371.874 251.883-68.57-68.57c-3.75-3.75-8.91-5.25-13.78-4.5-4.138-15.425-34.304-128.039-38.61-144.12-6.302-23.496-33.612-34.042-54.03-21.11-1.8 6.12-1.99 12.8-.22 19.42 8.279 30.904.17-.662 43.39 169.93-.1.05-.06-3.401-.06 65.07 0 46.014-49.749 74.522-89.24 52.38-12.72 12.215-30.141 17.524-46.76 15.04v17.58c0 72.9 59.1 132 132 132h56c25.43 0 49.19-7.2 69.34-19.66.01 0 .01 0 .01-.01 23.87-23.89 38.65-56.89 38.65-93.33v-52.24c0-25.46-10.11-49.87-28.12-67.88z"/></g><path d="m327.994 313.063c0 4.01-2.97 7.4-6.94 7.93-55.33 7.37-97.06 55.09-97.06 111.01 0 4.42-3.58 8-8 8-11.46-5.785-18.799-17.694-18.488-30.819.244-10.295 1.382-21.974 4.486-29.849 15.001-38.049 45.811-68.632 85.072-82.802l-23.61-23.97c-14.03-14.13-6.193-58.48-5.293-60.98h7.503c4.42 0 8 3.582 8 8.003.001 11.509 4.461 22.338 12.57 30.497l27.32 27.74c9.31 9.46 14.44 21.97 14.44 35.24z" fill="#f9cfac"/><path d="m215.994 180.003c0 98.36.92 92.808-2.83 102.01-4.066 9.548-11.806 16.65-21.18 19.93-13.97-4.94-23.99-18.27-23.99-33.94v-121.94c22.833-8.261 48 8.702 48 33.94z" fill="#ffe4cc"/><path d="m143.994 208.003v72c0 13.36-8.204 24.911-20.01 29.68-11.63-4.72-19.86-16.07-19.99-29.36v-103.31c20.288-5.231 40 10.124 40 30.99z" fill="#ffe4cc"/><path d="m434.096 36.711c-19.536-33.701-70.457-27.237-80.609 10.631l-36.944 137.896c-7.377-7.376-11.471-12.833-20.844-14.29l-37.058-138.328c-6.298-23.477-30.4-37.406-53.886-31.105-23.464 6.281-37.413 30.355-31.122 53.875l.74 2.78c1.137 4.271 5.52 6.812 9.788 5.674 4.27-1.136 6.81-5.519 5.674-9.788l-.742-2.79c-4.027-15.055 4.933-30.316 19.804-34.296 14.939-4.007 30.28 4.847 34.29 19.792l36.741 137.145c-1.732 1.009-3.374 2.226-4.858 3.706-23.222 23.177-23.154 60.623-.215 83.724l27.299 27.714c4.753 4.826 7.907 10.821 9.19 17.327-59.437 11.603-103.35 64.303-103.35 125.624 0 4.418 3.582 8 8 8s8-3.582 8-8c0-55.917 41.725-103.64 97.056-111.01 3.975-.53 6.944-3.92 6.944-7.93 0-13.27-5.128-25.785-14.441-35.239l-27.322-27.738c-16.728-16.845-16.849-44.191.141-61.147 3.104-3.097 8.161-3.083 11.275.031l68.572 68.572c16.621 16.621 25.774 38.72 25.774 62.226v52.235c0 68.374-55.626 124-124 124h-56c-68.374 0-124-55.626-124-124v-60.022c19.829 14.919 48.483 8.35 59.757-14.081 26.445 28.499 74.297 10.995 76.184-27.657.088-1.807.06 5.332.06-90.24 0-8.301-2.309-16.328-6.636-23.236l-10.816-40.362c-1.143-4.269-5.533-6.804-9.796-5.66-4.268 1.143-6.802 5.529-5.66 9.796l4.956 18.485c-27.654-10.8-57.387 8.227-59.874 37.135-26.123-19.881-64.174-1.264-64.174 31.841v164c0 77.196 62.804 140 140 140h56c77.196 0 140-62.804 140-140v-52.235c0-22.347-7.006-43.614-19.969-61.305l50.467-188.351c3.038-11.348 1.48-23.203-4.396-33.399zm-282.102 143.292c0-13.689 9.894-25.76 24.412-27.768 15.864-2.221 31.588 10.246 31.588 27.768 0 94.169.022 88.199-.041 89.459-.363 7.587-3.998 14.739-9.009 19.159-19.038 16.679-46.951 2.98-46.951-20.619.001-10.156.001-77.859.001-87.999zm-64 28c0-13.234 10.766-24 24-24s24 10.766 24 24v72c0 13.234-10.766 24-24 24s-24-10.766-24-24zm335.043-142.03-47.707 178.052-45.722-45.722 39.335-146.818c3.998-14.911 19.38-23.798 34.294-19.803 14.864 3.978 23.826 19.25 19.8 34.291z"/><path d="m190.659 96.065c5.263 0 9.079-4.986 7.739-10.048l-.36-1.36c-1.13-4.271-5.511-6.815-9.78-5.688-4.271 1.13-6.818 5.509-5.688 9.78l.36 1.36c.95 3.586 4.187 5.956 7.729 5.956z"/></svg>