<svg enable-background="new 0 0 512.021 512.021" height="512" viewBox="0 0 512.021 512.021" width="512" xmlns="http://www.w3.org/2000/svg"><path d="m471.73 304.302-157.54 157.54c-27.01 27.01-63.64 42.18-101.83 42.18h-48.35c-72.9 0-132-59.1-132-132 0-67.439 0 122.105 0-164 0-8.84 3.58-16.84 9.37-22.63 19.969-19.969 54.63-5.97 54.63 22.63v-28c0-19.893 16.119-36 36-36 19.88 0 36 16.12 36 36v-16c0-19.893 16.119-36 36-36 19.88 0 36 16.12 36 36v-120c0-20.256 16.687-36.521 36.97-35.99 19.367.485 35.03 16.776 35.03 36.58v276.78c0 12.81 13.9 19.87 24.03 13.88 2.504-1.481-1.347 2.067 54.72-54 16.17-16.17 38.1-25.25 60.97-25.25 25.202 0 37.682 30.598 20 48.28z" fill="#f9cfac"/><path d="m475.66 299.371-153.47 153.47c-27.01 27.01-63.64 42.18-101.83 42.18h-32.35c-72.9 0-132-59.1-132-132v-27.58c16.611 2.483 34.033-2.818 46.76-15.04 24.856 13.937 56.708 8.503 75.49-14.2 39.419 18.826 85.75-9.964 85.75-54.18v-230.619c4.827-6.049 11.897-10.641 19.97-12.48 16.15 3.71 28.03 18.49 28.03 35.69v276.78c0 14.235 17.21 21.42 27.31 11.32l51.44-51.44c16.17-16.17 38.1-25.25 60.97-25.25 22.486 0 35.612 24.832 23.93 43.349z" fill="#ffe4cc"/><path d="m168.01 464.022c-.884 0-2.374-.68-4.193-1.768-12.678-7.584-19.376-22.252-17.051-36.841 1.309-8.211 3.068-16.983 5.243-22.823 13.4-35.976 42.588-64.707 79.557-77.037 26.551-8.855 47.994 7.093 48.443 10.468.583 4.379-19.808 6.603-24 8-24 8-80 40.083-80 96 .001 4.419-3.581 24.001-7.999 24.001z" fill="#f9cfac"/><g fill="#ffe4cc"><path d="m168.01 180.021v88c0 15.66-9.989 29.011-24.01 33.94-13.97-4.94-23.99-18.27-23.99-33.94v-121.96c23.336-8.214 48 9.054 48 33.96z"/><path d="m168.01 180.021v88c0 15.66-9.989 29.011-24.01 33.94-13.97-4.94-23.99-18.27-23.99-33.94v-121.96c23.336-8.214 48 9.054 48 33.96z"/><path d="m240.01 164.021v88c0 15.66-9.989 29.011-24.01 33.94-13.97-4.94-23.99-18.27-23.99-33.94v-121.96c23.336-8.214 48 9.054 48 33.96z"/><path d="m240.01 164.021v88c0 15.66-9.989 29.011-24.01 33.94-13.97-4.94-23.99-18.27-23.99-33.94v-121.96c23.336-8.214 48 9.054 48 33.96z"/><path d="m96.01 208.021v72c0 13.41-8.255 24.929-19.99 29.67-11.73-4.74-20.01-16.24-20.01-29.67v-99.72c3.62-2.09 7.68-3.49 12.01-4.03 15.78 1.97 27.99 15.44 27.99 31.75z"/><path d="m96.01 208.021v72c0 13.41-8.255 24.929-19.99 29.67-11.73-4.74-20.01-16.24-20.01-29.67v-102.99c20.244-5.219 40 10.091 40 30.99z"/></g><path d="m132.01 312.022c-24.262 0-44-19.738-44-44v-88c0-24.262 19.738-44 44-44s44 19.738 44 44v88c0 24.261-19.738 44-44 44zm0-160.001c-15.439 0-28 12.561-28 28v88c0 15.439 12.561 28 28 28s28-12.561 28-28v-88c0-15.439-12.561-28-28-28z"/><path d="m204.01 296.022c-24.262 0-44-19.738-44-44v-88c0-24.262 19.738-44 44-44s44 19.738 44 44v88c0 24.261-19.738 44-44 44zm0-160.001c-15.439 0-28 12.561-28 28v88c0 15.439 12.561 28 28 28s28-12.561 28-28v-88c0-15.439-12.561-28-28-28z"/><path d="m64.01 320.022c-22.056 0-40-17.944-40-40v-72c0-22.056 17.944-40 40-40s40 17.944 40 40v72c0 22.056-17.944 40-40 40zm0-136.001c-13.234 0-24 10.766-24 24v72c0 13.234 10.766 24 24 24s24-10.766 24-24v-72c0-13.233-10.766-24-24-24z"/><path d="m312.01 232.021c-4.418 0-8-3.582-8-8v-8c0-4.418 3.582-8 8-8s8 3.582 8 8v8c0 4.419-3.582 8-8 8z"/><path d="m212.36 512.021h-48.35c-77.196 0-140-62.804-140-140v-91.69c0-4.418 3.582-8 8-8s8 3.582 8 8v91.69c0 68.374 55.626 124 124 124h48.35c36.329 0 70.484-14.147 96.173-39.837l157.54-157.54c12.679-12.679 3.728-34.623-14.343-34.623-20.897 0-40.542 8.135-55.313 22.907l-51.44 51.44c-15.14 15.138-40.967 4.403-40.967-16.977v-65.37c0-4.418 3.582-8 8-8s8 3.582 8 8v65.37c0 7.124 8.607 10.709 13.653 5.663l51.44-51.44c17.793-17.794 41.456-27.593 66.627-27.593 32.271 0 48.371 39.226 25.657 61.937l-157.54 157.54c-28.712 28.712-66.884 44.523-107.487 44.523z"/><path d="m312.01 192.021c-4.418 0-8-3.582-8-8v-139.41c0-25.041-29.952-38.219-47.807-20.389-5.28 5.288-8.193 12.322-8.193 19.799v135.12c0 4.418-3.582 8-8 8s-8-3.582-8-8v-135.119c0-11.746 4.574-22.795 12.879-31.113 27.901-27.859 75.121-7.568 75.121 31.702v139.41c0 4.419-3.582 8-8 8z"/><path d="m168.01 463.022c-4.418 0-8-3.582-8-8 0-63.903 47.695-118.446 110.944-126.87 4.37-.582 8.403 2.494 8.986 6.874.583 4.379-2.494 8.403-6.874 8.986-55.331 7.37-97.056 55.093-97.056 111.01 0 4.418-3.582 8-8 8z"/></svg>