<svg enable-background="new 0 0 512 512" height="512" viewBox="0 0 512 512" width="512" xmlns="http://www.w3.org/2000/svg"><path d="m454.392 102.24c0 253.072 2.852 265.81-8.25 297.8-19.953 58.996-76.798 103.96-145.51 103.96h-89.28c-84.92 0-153.76-68.84-153.76-153.76v-148.8c0-37.719 44.032-58.421 73.09-34.39-22.12-36.043-16.946-83.124 13.49-113.56 6.99-6.971 17.583-7.446 24.76-2.66 2.567 1.712 2.253 1.613 17.62 16.98v-15.17c0-24.65 19.99-44.64 44.64-44.64 24.639 0 44.64 19.999 44.64 44.64v16.96c0-19.633 13.696-37.171 34.31-41.1 28.885-4.819 54.97 17.805 54.97 46.86v26.88c0-16.278 8.816-30.766 21.94-38.43 28.969-17.52 67.34 3.465 67.34 38.43z" fill="#f9cfac"/><g fill="#ffe4cc"><path d="m231.192 206.4c-24.585 0-44.64-19.918-44.64-44.64v-109.12c0-24.654 19.986-44.64 44.64-44.64 24.585 0 44.64 19.918 44.64 44.64v109.12c0 24.654-19.986 44.64-44.64 44.64z"/><path d="m146.872 209.48v81.24c0 21.03-14.55 38.67-34.14 43.39-19.59-4.72-34.14-22.36-34.14-43.39 0-133.699-.005-126.71.01-127.14 8.968-5.63 19.476-7.744 29.53-6.39 5.957 15.844 10.855 20.889 18.61 30.95 0 1.863-.706-.891 8.13 10.53 1.677 0-.377-1.567 12 10.81z"/><path d="m365.112 75.36v119.04c0 20.81-15.22 38.06-35.14 41.24-19.92-3.18-35.14-20.43-35.14-41.24v-159.82c28.895-18.793 70.28 3.425 70.28 40.78z"/><path d="m454.392 102.24v119.04c0 21.39-15.05 39.27-35.14 43.62-20.09-4.35-35.14-22.23-35.14-43.62v-155.58c29.497-20.721 70.28.493 70.28 36.54z"/><path d="m454.392 262.28c0 88.001 2.398 107.077-8.25 137.76-7.818 23.116-22.305 46.359-43.87 65.57-40.992 36.143-57.597 30.39-169.92 30.39-83.47 0-151.4-66.5-153.7-149.41 40.31 17.06 84.22-13.225 84.22-56.8v-57.31l21.52 20.52v12.92c0 94.867 60.333 163.973 111.2 177.27 16.677 4.36 56.4 2.764 56.4-3.84 0-3.35-42.15-10.29-45.31-11.4-63.608-22.307-100.29-92.642-100.29-162.03v-19.55c-61.967-61.967-79.153-74.165-86.68-105.75-7.617-31.102 1.515-64.185 24.46-87.13 6.614-6.597 17.219-7.989 25.57-2.11 1.26.945.81-11.605.81 110.38 0 46.854 51.868 76.764 92.48 51.59 7.86 22.57 29.35 38.81 54.56 38.81 8.81 0 21.179.509 35.81-8.46 16.574 41.471 70.743 51.5 100.99 18.58z"/></g><path d="m206.392 254.37c-2.048 0-4.095-.781-5.657-2.343-68.76-68.761-66.003-64.566-66.003-69.357 0-7.213 8.881-10.748 13.837-5.47.1 0-2.761-2.727 63.479 63.514 5.055 5.053 1.407 13.656-5.656 13.656z"/><path d="m130.69 175.051c-2.691 0-5.318-1.357-6.828-3.819-23.968-39.081-18.443-90.304 14.653-123.398 10.912-10.885 28.474-10.87 39.366-.008l14.327 14.328c3.125 3.124 3.125 8.189 0 11.313-3.124 3.124-8.189 3.124-11.313 0l-14.32-14.32c-4.567-4.554-12.042-4.693-16.753.007-27.707 27.707-32.776 70.358-12.32 103.713 3.278 5.346-.614 12.184-6.812 12.184z"/><path d="m231.192 214.4c-29.026 0-52.64-23.614-52.64-52.64v-109.12c0-29.026 23.614-52.64 52.64-52.64 29.025 0 52.64 23.614 52.64 52.64v109.12c0 29.026-23.614 52.64-52.64 52.64zm0-198.4c-20.204 0-36.64 16.437-36.64 36.64v109.12c0 20.203 16.437 36.64 36.64 36.64s36.64-16.437 36.64-36.64v-109.12c0-20.203-16.437-36.64-36.64-36.64z"/><path d="m102.232 343.36c-29.026 0-52.64-23.614-52.64-52.64v-89.28c0-29.026 23.614-52.64 52.64-52.64s52.64 23.614 52.64 52.64v89.28c0 29.026-23.614 52.64-52.64 52.64zm0-178.56c-20.204 0-36.64 16.437-36.64 36.64v89.28c0 20.14 16.373 36.64 36.64 36.64 20.203 0 36.64-16.437 36.64-36.64v-89.28c0-20.204-16.437-36.64-36.64-36.64z"/><path d="m323.355 244.16h-5.767c-27.436 0-49.757-22.321-49.757-49.757v-124.806c0-27.436 22.321-49.757 49.757-49.757 30.616 0 55.523 24.908 55.523 55.523v119.04c.001 27.436-22.32 49.757-49.756 49.757zm-5.766-208.32c-18.613 0-33.757 15.143-33.757 33.757v124.807c0 18.614 15.144 33.757 33.757 33.757h5.767c18.613 0 33.757-15.143 33.757-33.757v-119.041c-.001-21.793-17.731-39.523-39.524-39.523z"/><path d="m454.392 152.08c-4.235 0-8-3.341-8-8.16 0-4.418 3.582-8 8-8s8 3.582 8 8c0 4.805-3.751 8.16-8 8.16z"/><path d="m409.752 273.92c-29.025 0-52.64-23.614-52.64-52.64v-119.04c0-47.029 56.981-70.091 89.857-37.217 16.529 16.528 15.423 34.001 15.423 47.057 0 4.418-3.582 8-8 8s-8-3.582-8-8c0-10.802 1.418-23.589-10.736-35.743-22.895-22.894-62.544-6.813-62.544 25.903v119.04c0 20.204 16.437 36.64 36.64 36.64 20.204 0 36.641-16.437 36.641-36.64v-45.36c0-4.418 3.582-8 8-8s8 3.582 8 8v45.36c-.001 29.026-23.615 52.64-52.641 52.64z"/><path d="m345.272 442.56c-86.289 0-146.88-85.323-146.88-176.64v-19.84c0-4.418 3.582-8 8-8s8 3.582 8 8v19.84c0 88.577 58.712 160.64 130.88 160.64 4.418 0 8 3.582 8 8s-3.582 8-8 8z"/><path d="m300.632 512h-89.28c-89.195 0-161.76-72.565-161.76-161.76v-153.76c0-4.418 3.582-8 8-8s8 3.582 8 8v153.76c0 80.372 65.388 145.76 145.76 145.76h89.28c80.373 0 145.761-65.388 145.761-145.76v-153.76c0-4.418 3.582-8 8-8s8 3.582 8 8v153.76c-.001 89.195-72.566 161.76-161.761 161.76z"/></svg>