<svg enable-background="new 0 0 512 512" height="512" viewBox="0 0 512 512" width="512" xmlns="http://www.w3.org/2000/svg"><path d="m454.4 82.4c0 282.409 2.705 286.097-8.25 317.64-20.108 59.484-77.23 103.96-145.51 103.96h-89.28c-84.92 0-153.76-68.84-153.76-153.76 0-161.28-.155-153.76.28-153.76 1.24-11.16 6.58-21.08 14.49-28.21 26.751-24.114 70.215-8.072 74.23 28.21.4 0 .28 3.851.28-34.72 0-25.3 21.152-46.032 47.32-44.56-.316-24.326 9.05-48.29 27.05-66.29 4.741-4.741 11.656-6.891 18.61-5.28 7.243 1.805 6.972 2.802 35.98 31.81v-27.68c0-23.058 18.699-41.76 41.76-41.76 26.24 0 47.52 21.28 47.52 47.52v26.88c0-24.65 19.99-44.64 44.64-44.64s44.64 19.99 44.64 44.64z" fill="#f9cfac"/><path d="m454.4 82.4c0 282.409 2.705 286.097-8.25 317.64-20.108 59.484-77.23 103.96-145.51 103.96h-89.28c-84.92 0-153.76-68.84-153.76-153.76 0-161.28-.155-153.76.28-153.76 1.24-11.16 6.58-21.08 14.49-28.21 26.751-24.114 70.215-8.072 74.23 28.21.4 0 .28 3.851.28-34.72 0-25.3 21.152-46.032 47.32-44.56-.316-24.326 9.05-48.29 27.05-66.29 4.741-4.741 11.656-6.891 18.61-5.28 7.243 1.805 6.972 2.802 35.98 31.81v-27.68c0-23.058 18.699-41.76 41.76-41.76 26.24 0 47.52 21.28 47.52 47.52v26.88c0-24.65 19.99-44.64 44.64-44.64s44.64 19.99 44.64 44.64z" fill="#f9cfac"/><g fill="#ffe4cc"><path d="m236.16 219.11v51.77c0 21.21-14.8 38.97-34.64 43.52-19.84-4.55-34.64-22.31-34.64-43.52v-146.34c3.47-2.31 7.29-4.14 11.36-5.41.72 27.87 11.94 54 31.7 73.75z"/><path d="m323.363 216.32h-5.766c-23.062 0-41.757-18.695-41.757-41.757v-124.806c0-23.062 18.695-41.757 41.757-41.757 26.173 0 47.523 21.205 47.523 47.523v119.04c0 23.062-18.695 41.757-41.757 41.757z"/><path d="m454.4 82.4v119.04c0 16.33-8.77 30.61-21.86 38.38-26.433 2.861-49.42-17.899-49.42-44.38v-148.85c29.006-21.637 71.28-1.169 71.28 35.81z"/><path d="m146.88 201.44v89.28c0 22.27-16.31 40.73-37.64 44.1-21.33-3.37-37.64-21.83-37.64-44.1v-121.73c28.534-26.998 75.28-6.344 75.28 32.45z"/><path d="m454.4 242.44c0 102.102 2.29 119.25-8.25 149.6-7.119 21.061-16.569 32.968-17.17 35.73-.19.88-.9 1.51-1.75 1.84-1.018.406-19.713 33.031-63.16 52.74-25.926 7.239-35.813 5.65-130.71 5.65-80.57 0-146.65-61.96-153.22-140.82 27.796 10.997 60.479-.164 75.38-27.53 39.718 29.441 96.64.922 96.64-49.72v-34.82l7.68 7.68v37c0 51.1 21.65 99.7 58.82 133.89 1.6 1.47 3.72 2.26 5.89 2.14 6.216-.322 9.422-7.137 6.52-12-1.887-3.145-55.23-44.995-55.23-124.03v-43.63c-16.258-16.258-38.354-38.354-54.59-54.59-35.951-35.951-36.274-94.387 0-130.66 4.571-4.57 11.151-6.386 15.74-5.73 9.409.785 13.54 6.95 22.85 16.26v113.12c0 31.9 25.86 57.76 57.76 57.76 8.81 0 21.179.509 35.81-8.46 16.574 41.472 70.744 51.499 100.99 18.58z"/></g><path d="m191.52 323.52c-29.025 0-52.64-23.614-52.64-52.64v-109.12c0-29.872 25.08-54.281 55.771-52.547 4.411.249 7.785 4.027 7.536 8.438s-3.985 7.791-8.438 7.536c-21.495-1.216-38.869 15.845-38.869 36.572v109.12c0 20.204 16.437 36.64 36.64 36.64 20.204 0 36.641-16.437 36.641-36.64v-74.4c0-4.418 3.582-8 8-8s8 3.582 8 8v74.4c-.001 29.027-23.615 52.641-52.641 52.641z"/><path d="m102.24 343.36c-29.026 0-52.641-23.614-52.641-52.64v-66.8c0-4.418 3.582-8 8-8s8 3.582 8 8v66.8c0 20.203 16.437 36.64 36.641 36.64 20.203 0 36.64-16.437 36.64-36.64v-89.28c0-30.169-34.319-47.052-58.203-29.619-3.569 2.605-8.574 1.824-11.179-1.745-2.604-3.569-1.823-8.573 1.745-11.178 34.328-25.057 83.637-.817 83.637 42.542v89.28c0 29.026-23.614 52.64-52.64 52.64z"/><path d="m51.037 189.194c1.069-4.287 5.406-6.898 9.698-5.827 4.287 1.069 6.896 5.411 5.827 9.698-.057.225-.107.442-.151.667-2.003 10.265-18.465 7.927-15.374-4.538z"/><path d="m323.363 224.32h-5.767c-27.436 0-49.757-22.321-49.757-49.757v-124.806c.001-27.436 22.322-49.757 49.758-49.757 30.616 0 55.523 24.908 55.523 55.523v119.04c0 27.436-22.321 49.757-49.757 49.757zm-5.766-208.32c-18.613 0-33.757 15.143-33.757 33.757v124.806c0 18.614 15.144 33.757 33.757 33.757h5.767c18.613 0 33.757-15.143 33.757-33.757v-119.04c-.001-21.793-17.731-39.523-39.524-39.523z"/><path d="m409.76 254.08c-29.025 0-52.64-23.614-52.64-52.64v-119.04c0-29.026 23.614-52.64 52.64-52.64s52.641 23.614 52.641 52.64v119.04c-.001 29.026-23.615 52.64-52.641 52.64zm0-208.32c-20.203 0-36.64 16.437-36.64 36.64v119.04c0 20.204 16.437 36.64 36.64 36.64 20.204 0 36.641-16.437 36.641-36.64v-119.04c-.001-20.204-16.437-36.64-36.641-36.64z"/><path d="m300.64 512h-89.28c-89.195 0-161.76-72.565-161.76-161.76v-126.32c0-4.418 3.582-8 8-8s8 3.582 8 8v126.32c0 80.372 65.387 145.76 145.76 145.76h89.279c80.373 0 145.761-65.388 145.761-145.76v-153.76c0-4.418 3.582-8 8-8s8 3.582 8 8v153.76c0 89.195-72.565 161.76-161.76 161.76z"/><path d="m340.63 421.23c-45.579-32.556-72.79-85.433-72.79-141.445v-40.312l-52.247-52.247c-39.076-39.076-39.383-102.591 0-141.973 10.878-10.878 28.495-10.881 39.374 0l26.53 26.529c3.124 3.124 3.124 8.189 0 11.313-3.125 3.124-8.189 3.124-11.314 0l-26.53-26.53c-4.625-4.626-12.119-4.626-16.745 0-33.11 33.108-32.842 86.504 0 119.346l54.59 54.59c1.5 1.5 2.343 3.535 2.343 5.657v43.625c0 50.856 24.707 98.866 66.09 128.425z"/></svg>