<svg enable-background="new 0 0 512 512" height="512" viewBox="0 0 512 512" width="512" xmlns="http://www.w3.org/2000/svg"><path d="m118.594 71.795-73.391 73.391c-12.058 12.058-18.832 28.412-18.832 45.464v59.795c0 27.703 21.956 50.88 49.655 51.343 28.296.472 51.382-22.323 51.382-50.511v-35.3c0-9.744 3.871-19.089 10.761-25.98l26.571-26.571c14.348-14.348 37.611-14.348 51.959 0 86.346 86.346 85.123 85.228 85.228 85.228 0 29.349-23.792 53.141-53.141 53.141h-158.119c-45.656.001-82.667 37.012-82.667 82.668 0 20.291 16.449 36.741 36.741 36.741h80.233c37.759 0 74.915 9.474 108.063 27.556 33.149 18.081 70.304 27.556 108.063 27.556h52.677c60.874 0 110.222-49.348 110.222-110.222v-55.111c0-104.827-65.431-198.51-163.851-234.597l-91.005-33.368c-45.094-16.537-96.127-5.645-130.549 28.777z" fill="#f9cfac"/><path d="m504 310.54v19.11c0 60.88-49.35 110.22-110.22 110.22-51.652 0-101.009 5.017-160.74-27.55-33.15-18.08-70.31-27.56-108.07-27.56h-80.23c-10.14 0-19.33-4.11-25.98-10.76-4.88-4.895-7.87-11.207-7.87-11.69 9.53-35.12 41.63-60.95 79.78-60.95h158.11c29.335 0 53.15-23.79 53.15-53.15 0-22.463-8.747-44.746-25.457-61.454l-59.773-59.766c-14.35-14.35-37.61-14.35-51.96 0l-26.57 26.57c-6.89 6.889-10.76 16.234-10.76 25.977v74.303c0 28.196-23.099 50.989-51.397 50.51-27.695-.469-49.643-23.644-49.643-51.343v-62.797c0-17.05 6.77-33.41 18.83-45.46l73.39-73.4c34.529-34.5 85.632-45.273 130.55-28.77l91.01 33.36c98.42 36.09 163.85 129.77 163.85 234.6z" fill="#ffe4cc"/><path d="m251.35 206.07c-3.715 0-5.488-2.174-7.208-3.895-3.123-3.125-3.122-8.19.002-11.313 3.126-3.123 8.19-3.123 11.314.002l1.55 1.55c5.054 5.057 1.403 13.656-5.658 13.656z"/><path d="m393.78 484.31c-52.647 0-102.943 5.072-164.57-28.526-31.888-17.392-67.933-26.584-104.24-26.584h-80.23c-24.728 0-44.74-20.007-44.74-44.74 0-35.509 20.522-66.316 50.331-81.184-18.928-9.883-31.961-29.946-31.961-52.826v-59.8c0-19.321 7.521-37.476 21.176-51.119l73.387-73.397c36.318-36.288 90.544-48.415 138.966-30.623l91.005 33.358c101.228 37.12 169.096 133.442 169.096 242.111v55.11c0 65.187-53.033 118.22-118.22 118.22zm-303.11-174.51c-41.173 0-74.67 33.492-74.67 74.66 0 15.886 12.852 28.74 28.74 28.74h80.229c38.977 0 77.671 9.868 111.9 28.537 57.569 31.387 104.877 26.573 156.91 26.573 56.364 0 102.22-45.855 102.22-102.22v-55.11c0-101.042-63.738-192.302-158.604-227.089l-91.01-33.359c-41.963-15.416-89.764-5.43-122.143 26.918l-73.387 73.397c-10.479 10.47-16.487 24.977-16.487 39.804v59.8c0 38.051 45.318 57.713 72.335 31.143 8.193-8.058 12.705-18.823 12.705-30.313v-35.3c0-11.951 4.653-23.187 13.103-31.637l26.57-26.57c17.487-17.487 45.785-17.489 63.273 0l10.641 10.64c3.124 3.125 3.124 8.189 0 11.313-3.125 3.125-8.189 3.125-11.314 0l-10.64-10.64c-11.233-11.234-29.411-11.235-40.646 0l-26.57 26.57c-5.428 5.428-8.417 12.646-8.417 20.323v35.3c0 15.813-6.21 30.63-17.485 41.72-1.188 1.164-15.535.8 130.855.8 23.905 0 43.408-18.543 45.038-41.948l-25.676-25.676c-3.124-3.124-3.124-8.189 0-11.313 3.125-3.124 8.189-3.124 11.314 0l28.13 28.13c1.5 1.5 2.343 3.535 2.343 5.657 0 33.788-27.355 61.15-61.149 61.15z"/></svg>