<svg enable-background="new 0 0 512.001 512.001" height="512" viewBox="0 0 512.001 512.001" width="512" xmlns="http://www.w3.org/2000/svg"><path d="m504.001 256v64c0 39.76-32.24 72-72 72-77.921 0-90.776 1.574-118.29-6.11-14.43-4.04-28.3-10.04-41.22-17.89-45.494-27.641-82.418-24-127.92-24l-18.84 18.84c-15.528 15.528-40.734 15.635-56.38.19-15.77-15.56-15.35-41.6.31-57.26l77.65-77.65c17.816-17.816 42.173-28.12 67.88-28.12h-167.19c-11.04 0-21.04-4.48-28.28-11.72-25.45-25.449-6.577-68.28 28.99-68.28h319.29c75.118 0 136 60.879 136 136z" fill="#f9cfac"/><g fill="#ffe4cc"><path d="m296.001 192c0 4.023.069 1.558-.15 0z"/><path d="m295.191 224c1.12-5.469.81-14.22.81 0z"/><path d="m368.001 120h-319.29c-18.28 0-34.21 12.35-39.15 29.11v.01c4.846 16.67 20.197 28.88 38.44 28.88 251.264 0 234.134-.728 238.94 1.63 5.518 2.707 9.06 8.332 9.06 14.56 0 23.162.261 24.58-.81 29.81-3.678 18.226-19.839 32-39.19 32-77.483 0-74.441-.173-80 .44-30.98 3.43-56.04 26.51-62.42 56.5 2.589 5.411 8.121 9.06 14.42 9.06h58.75c30.24 0 59.9 8.3 85.74 24s55.5 24 85.74 24h73.77c39.76 0 72-32.24 72-72v-42c0-75.117-60.878-136-136-136z"/><path d="m96.001 328c0-44.93 33.64-82.53 78.24-87.46 6.517-.727 1.85-.54 81.76-.54 13.163 0 23.896-10.599 24-23.83 0-9.572 0-6.879 0-16.17h-64.81c-25.703 0-50.062 10.302-67.88 28.12l-77.65 77.65c-15.66 15.66-16.08 41.7-.31 57.26 15.628 15.427 40.834 15.356 56.38-.19 3.419-3.418 3.08-2.84 2.27-2.84-17.676 0-32-14.312-32-32z"/></g><path d="m368.001 112h-319.29c-26.15 0-48.88 21.318-48.71 48.321.168 26.322 21.546 47.679 48 47.679h111.7c-13.033 8.254-10.492 6.908-95.697 92.113-9.123 9.123-14.33 21.826-14.286 34.853.146 43.25 52.121 63.079 81.669 33.531l16.497-16.497c40.966 0 76.864-3.647 120.452 22.836 18.04 10.964 37.708 18.458 58.459 22.272 4.34.799 8.515-2.076 9.314-6.422.799-4.345-2.076-8.516-6.422-9.314-18.827-3.461-36.673-10.26-53.042-20.209-48.334-29.367-88.528-25.163-132.074-25.163-17.856 0-17.048.064-18.145-.154-3.732-.738-6.425-4.013-6.425-7.846 0-32.678 24.453-60.023 56.877-63.608 5.101-.562 1.368-.392 79.123-.392 26.588 0 47.807-21.465 48-47.651.097-13.197-10.59-24.349-24.11-24.349-7.168 0-207.466 0-231.89 0-17.604 0-31.888-14.22-32-31.781-.114-17.915 15.216-32.219 32.71-32.219h319.29c70.751 0 128 57.24 128 128v64c0 35.29-28.71 64-64 64h-32c-4.418 0-8 3.582-8 8s3.582 8 8 8h32c44.112 0 80-35.888 80-80v-64c0-79.592-64.395-144-144-144zm-88.11 96c4.393 0 8.135 3.562 8.11 8.232-.118 16.074-12.038 29.17-27.258 31.42-3.361.497 1.478.347-76.742.347-44.385 0-80 35.83-80 80 0 12.175 9.118 22.454 21.229 23.836.248.028.729-.538-5.156 5.347-12.456 12.456-32.606 12.491-45.104.152-12.702-12.533-12.075-33.485.348-45.909l77.652-77.652c16.621-16.619 38.72-25.773 62.225-25.773z"/><path d="m368.001 384h-8c-4.418 0-8 3.582-8 8s3.582 8 8 8h8c4.418 0 8-3.582 8-8s-3.582-8-8-8z"/></svg>