<svg enable-background="new 0 0 512.001 512.001" height="512" viewBox="0 0 512.001 512.001" width="512" xmlns="http://www.w3.org/2000/svg"><path d="m368.001 120.062h-319.29c-22.313 0-40.874 18.313-40.71 40.27.141 21.963 18.023 39.73 40 39.73h96v68.13c-19.29 12.91-32 34.91-32 59.87 0 8.853 7.16 16 16 16h60c29.91 0 59.07 8.59 84.65 24.1 25.8 15.63 55.4 23.9 85.58 23.9h73.77c39.76 0 72-32.24 72-72v-64c0-75.117-60.878-136-136-136zm-112 136h-32v-56h55.89c8.849 0 16.166 7.221 16.11 16.29-.161 21.957-18.024 39.71-40 39.71z" fill="#f9cfac"/><path d="m368.001 120.062h-160.85c-14.82 0-29.04 5.89-39.52 16.37l-7.26 7.26c-10.48 10.48-16.37 24.7-16.37 39.52v84.98c-17.166 11.564-28.191 29.326-31.17 48.94-1.418 9.202-1.796 16.585 3.85 22.25 2.9 2.89 6.9 4.68 11.32 4.68h60c29.91 0 59.07 8.59 84.65 24.1 25.8 15.63 55.4 23.9 85.58 23.9h73.77c39.76 0 72-32.24 72-72v-64c0-75.117-60.878-136-136-136zm-144 80c61.169 0 58.429-.583 62.94 1.63 5.419 2.656 9.089 8.23 9.06 14.66-.161 21.957-18.024 39.71-40 39.71h-32z" fill="#f9cfac"/><g fill="#ffe4cc"><path d="m153.381 120.062-4.32 4.32c-13.58 13.57-21.06 31.63-21.06 50.83 0 1.233 7.998.85-72 .85-20.56 0-38.09-12.92-44.92-31.08 6.15-14.59 20.91-24.92 37.63-24.92z"/><path d="m161.931 112.062c-3.905 3.16-5.961 5.411-12.87 12.32-13.197 13.187-21.06 30.811-21.06 51.68h-72c-22.329 0-40.858-15.22-46.3-35.31 5.06-16.55 20.88-28.69 39.01-28.69z"/><path d="m368.001 120.062h-160.85c-14.822 0-29.038 5.888-39.519 16.369l-7.261 7.261c-10.482 10.481-16.37 24.697-16.37 39.52v59.56c11.891-6.863 25.629-10.71 40-10.71h40v-32c0-13.218 10.709-24 24-24 34.8 0 34.545-.526 38.94 1.63 5.41 2.65 9.1 8.23 9.06 14.66-.01 1.6-.12 3.17-.32 4.71.767 3.696.01 9.238-.93 12.93 4.182 9.997-1.953 25.834-10.47 34.35-7.24 7.24-17.24 11.72-28.28 11.72h-72c-13.024 0-25.334 3.938-35.55 10.78-5.737 2.127-3.75.701-7.35 3.4-13.44 9.97-23.28 24.54-27.21 41.37 2.718 5.105 8.085 8.45 14.11 8.45h60c29.91 0 59.07 8.59 84.65 24.1 25.8 15.63 55.4 23.9 85.58 23.9h73.77c39.764 0 72-32.235 72-72v-40c0-75.117-60.878-136-136-136z"/></g><path d="m459.485 144.848c-3.415-2.802-8.456-2.306-11.259 1.11s-2.306 8.457 1.11 11.259c28.764 23.603 46.664 59.229 46.664 98.845v64c0 35.29-28.71 64-64 64h-73.77c-28.716 0-56.875-7.864-81.432-22.741-27.253-16.525-57.959-25.259-88.798-25.259h-60c-4.435 0-8-3.567-8-8 0-21.403 10.635-41.299 28.449-53.221 0 0 .001-.001.001-.001 8.476-5.675 18.307-9.266 28.426-10.386 4.931-.543.089-.392 79.123-.392 43.459 0 63.338-55.411 34.463-69.552-6.751-3.312-5.509-2.448-66.463-2.448-4.418 0-8 3.582-8 8v48c-28.617 0-43.99-2.053-64 6.677 0-65.55 0-48.962 0-71.527 0-21.635 12.703-32.539 21.287-41.123 8.915-8.914 21.257-14.027 33.863-14.027 178.59 0 168.842-.735 184.438 2.165 4.373.812 8.525-2.087 9.328-6.403.808-4.344-2.059-8.52-6.403-9.328-18.221-3.387.445-2.435-345.802-2.435-26.151 0-48.88 21.318-48.71 48.321.168 26.323 21.547 47.679 48 47.679h88v55.999c-20.115 15.091-32 38.703-32 64.001 0 13.238 10.695 24 24 24h60c27.913 0 55.75 7.933 80.505 22.942 27.06 16.393 58.086 25.058 89.725 25.058h73.77c44.112 0 80-35.888 80-80v-64c.001-44.667-20.218-84.718-52.515-111.213zm-227.484 63.214c51.805 0 49.049-.349 51.421.814 2.844 1.393 4.599 4.239 4.579 7.417-.129 17.57-14.404 31.769-32 31.769h-24zm-206.623-25.376c-20.645-20.645-4.823-54.624 23.333-54.624h116.146c-2.018 1.788-2.758 2.59-10.142 9.973-12.067 12.067-18.713 28.111-18.713 45.177v8.85h-88c-8.543 0-16.578-3.33-22.624-9.376z"/><path d="m420.301 139.207c3.953 1.75 4.896 2.627 7.384 2.627 8.463 0 11.101-11.482 3.52-15.189-1.579-.772-3.026-1.448-4.424-2.067-4.039-1.789-8.765.035-10.555 4.074-1.789 4.04.035 8.765 4.075 10.555z"/></svg>