<svg enable-background="new 0 0 512.115 512.115" height="512" viewBox="0 0 512.115 512.115" width="512" xmlns="http://www.w3.org/2000/svg"><path d="m415.967 319.875v52.24c0 72.9-59.1 132-132 132-54.561 0-85.42 4.672-125.23-19.6-36.065-22.419-58.167-59.707-61.93-97.46-1.261-11.085-.84-65.24-.84-178.94 0-8.84 3.58-16.84 9.37-22.63 19.966-19.967 54.63-5.976 54.63 22.63v-28c0-9.94 4.03-18.94 10.54-25.46 22.528-22.493 61.46-6.653 61.46 25.46v30.52l18.86-51.79c0-.11.571 1.238-31.48-67.51-4.2-9.01-4.35-18.87-1.21-27.53 10.94-29.946 52.906-31.948 66.47-2.9l1.05 2.24c7.354-20.213 4.552-12.512 11.4-31.33 6.8-18.68 27.46-28.32 46.14-21.52 18.688 6.803 28.32 27.459 21.52 46.14-10.692 29.367-3.866 10.613-36.03 99 0 .101-.342-.723 28.29 60.68 11.496 16.736 11.061 16 10.96 16 .332.288-.912-.942 19.91 19.88 17.67 17.67 28.12 41.984 28.12 67.88z" fill="#f9cfac"/><g fill="#ffe4cc"><path d="m159.967 208.115v72c0 14.896-10.185 27.45-24 30.99-13.8-3.55-24-16.08-24-30.99v-99.72c21.158-12.218 48 2.994 48 27.72z"/><path d="m351.157 203.645c-13.845-4.518-17.798-3.53-81.09-3.53-43.752-93.848-31.029-66.543-50.72-108.78-8.406-18.033-.607-39.432 17.41-47.84 18.02-8.4 39.44-.6 47.85 17.41 6.779 14.463-22.79-48.902 66.55 142.74z"/><path d="m364.717 56.435c-10.134 27.835-4.624 12.696-28.29 77.73-41.168-88.28-38.67-84.03-43.73-90.36l4.36-11.99c6.8-18.68 27.46-28.32 46.14-21.52 18.688 6.804 28.321 27.46 21.52 46.14z"/><path d="m415.967 372.115c0 49.45-27.2 92.56-67.45 115.17-28.86 11.153-47.22 8.83-103.55 8.83-65.21 0-119.968-47.417-130.29-110.71-2.351-11.756-1.71-30.767-1.71-59.69 18.414 6.085 39.497.51 52.42-15.57 26.781 19.571 64.977 9.215 78.27-21.32 12.23 9.57 27.62 15.29 44.31 15.29 42.874 0 .591-5.691-38.01 38.06-22.152 25.107-33.99 57.277-33.99 89.5-.594 10.471 15.49 11.638 16 .44 0-60.84 45.29-111.12 104-118.94 0-9.246-3.015-17.967-8.24-25.06h-39.76c-30.93 0-56-25.07-56-56 0-8.853 7.16-16 16-16h80.8c14.449 0 28.801 5.612 39.6 16.4 19.321 19.321 30.802 28.752 39.6 49.02 10.074 23.076 8 35.689 8 90.58z"/></g><path d="m108.676 406.074c-.078-.26-.148-.521-.219-.78-1.161-4.263-5.559-6.776-9.82-5.618-4.263 1.161-6.778 5.557-5.618 9.82.109.4.219.8.34 1.2 1.278 4.236 5.746 6.622 9.97 5.348 4.229-1.276 6.624-5.74 5.347-9.97z"/><path d="m231.057 276.175c-1.424 6.305-4.673 12.428-9.63 17.4-6.248 6.232-15.426 9.65-17.48 9.65-16.02-3.65-27.98-17.99-27.98-35.11v-117.94c23.599-15.802 56 .967 56 29.94 0 32.33.162 11.514-.91 96.06z" fill="#ffe4cc"/><path d="m415.306 278.35c-9.454-21.776-21.457-31.667-41.165-51.375-13.59-19.786-5.865-5.557-36.805-71.911l34.899-95.891c13.288-36.501-24.295-71.547-59.944-54.922-19.079 8.9-22.383 23.817-28.727 41.255-22.595-23.253-61.787-14.972-72.947 15.573-4.006 11.049-3.48 22.995 1.48 33.638l30.082 64.501-3.604 9.896c-4.898-18.955-22.143-32.998-42.607-32.998-22.968 0-41.87 17.692-43.822 40.162-26.124-19.887-64.178-1.267-64.178 31.838 0 178.099-.033 165.016.063 168.241.133 4.395 3.799 7.888 8.237 7.756 4.417-.133 7.889-3.821 7.756-8.237-.081-2.7-.057 1.212-.057-63.781 19.829 14.919 48.483 8.351 59.757-14.081 25.411 27.385 70.998 12.501 75.848-24.089 11.745 13.576 29.077 22.192 48.395 22.192h35.433c1.763 3.067 3.13 6.442 3.913 10.376-59.431 11.607-103.346 64.306-103.346 125.624 0 4.418 3.582 8 8 8s8-3.582 8-8c0-55.917 41.726-103.64 97.057-111.01 3.975-.53 6.943-3.92 6.943-7.93 0-15.476-7.859-29.193-11.939-31.798-2.702-1.728-.671-1.262-44.061-1.262-26.467 0-48-21.533-48-48 0-4.435 3.567-8 8-8h80.8c12.824 0 24.879 4.992 33.943 14.057 19.069 19.069 29.763 27.763 37.925 46.564 9.228 21.135 7.332 31.553 7.332 87.379 0 68.374-55.626 124-124 124h-56c-44.528 0-85.867-24.076-107.884-62.832-2.184-3.842-7.066-5.187-10.908-3.004s-5.187 7.066-3.004 10.908c24.854 43.75 71.524 70.928 121.796 70.928h56c77.196 0 140-62.804 140-140 0-53.985 2.218-68.85-8.661-93.767zm-110.731-243.798c5.291-14.538 21.345-22.032 35.887-16.739 14.687 5.346 21.978 21.495 16.738 35.885l-29.425 80.851-33.469-71.777zm-152.608 245.563c0 13.234-10.766 24-24 24s-24-10.766-24-24v-72c0-13.234 10.766-24 24-24s24 10.766 24 24zm72-12c0 15.439-12.561 28-28 28s-28-12.561-28-28c0-10.157 0-77.86 0-88 0-15.439 12.561-28 28-28s28 12.561 28 28zm17.063-58.985 10.707-29.401 13.234 28.387c-17.599-.001-19.461-.332-23.941 1.014zm41.594-1.015c-67.605-145.011 11.942 25.576-56.026-120.16-6.48-13.903-.621-30.601 13.539-37.209 13.993-6.521 30.689-.447 37.228 13.557 12.04 25.676-29.357-62.952 68.081 146.012-10.87-2.913-13.85-2.2-62.822-2.2z"/></svg>