<svg enable-background="new 0 0 512 512" height="512" viewBox="0 0 512 512" width="512" xmlns="http://www.w3.org/2000/svg"><path d="m425.327 179.17 20.499-35.505c16.59-28.734-4.408-64.412-37.175-64.379.076-.101-.005.338-.005-52.209 0-10.555-8.537-19.077-19.077-19.077-42.148 0-76.308 34.16-76.308 76.308v23.846c0-23.64-19.152-42.923-42.923-42.923-23.706 0-42.923 19.217-42.923 42.923v19.077c0-23.64-19.152-42.923-42.923-42.923-23.706 0-42.923 19.217-42.923 42.923 0 38.242.088 37.697-.012 37.693-.248-23.492-19.36-42.462-42.911-42.462-22.098 0-40.287 16.701-42.655 38.167-.457-.023-.268-10.587-.268 209.833 0 73.751 59.787 133.538 133.538 133.538h133.538c73.751 0 133.538-59.787 133.538-133.539.001-90.685-13.735-132.551-31.01-191.291z" fill="#f9cfac"/><g fill="#ffe4cc"><path d="m313.263 169.58v3.97l-2.23-.12z"/><path d="m313.263 169.58v3.97l-2.23-.12z"/><path d="m407.642 29.08v36.19c-20.99.02-40.53 11.31-51.02 29.47l-28.36 49.12-1.54-102.25c13.85-19.15 36.39-31.61 61.85-31.61 10.544 0 19.07 8.52 19.07 19.08z"/><path d="m334.73 250.242c20.473 11.82 46.749 4.875 58.634-15.711l52.462-90.866c11.853-20.53 4.819-46.781-15.711-58.634-20.473-11.82-46.749-4.875-58.634 15.711l-52.462 90.866c-11.853 20.53-4.819 46.781 15.711 58.634z"/><path d="m141.573 165.38v85.85c0 20.98-15.04 38.43-34.93 42.17-19.88-3.74-34.92-21.19-34.92-42.17v-119.28c28.162-22.729 69.85-2.353 69.85 33.43z"/><path d="m227.412 127.23v104.92c0 20.62-14.53 37.85-33.92 41.98-19.39-4.13-33.92-21.36-33.92-41.98v-139.87c28.139-20.122 67.84-.036 67.84 34.95z"/><path d="m313.263 108.15v61.43l-8.1 14.03c-10.36 17.96-10.18 39.15-1.37 56.36-5.86 7.28-14.06 12.62-23.45 14.86-18.89-4.5-32.93-21.49-32.93-41.75v-141.22c28.329-17.946 65.85 2.38 65.85 36.29z"/><path d="m456.343 370.46c0 41.55-18.98 78.67-48.73 103.16-18.36 9.51-39.21 14.88-61.31 14.88h-133.54c-73.75 0-133.54-59.79-133.54-133.54v-48.1c29.904 10.459 58.2-4.34 70.86-26.91 28.116 20.29 68.267 12.244 85.84-19.08 9.473 6.849 20.901 10.824 32.98 11.11-31.27 31.42-49.49 74.29-49.49 120.02 0 4.42 3.58 8 8 8s8-3.58 8-8c0-56.55 30.815-108.547 80.82-135.62 1.863 1.863 6.184 5.235 10.5 7.72 24.241 14.003 54.314 8.824 72.72-11.05 5.834-6.269 5.517-6.619 32.11-52.67 20.449 69.506 24.78 111.318 24.78 170.08z"/></g><path d="m433.966 180.206 18.787-32.541c17.887-30.978-.937-70.165-36.107-75.766v-44.822c-.001-14.936-12.065-27.077-27.078-27.077-42.309 0-77.428 31.331-83.401 72.009-27.066-26.832-72.772-15.452-84.333 20.648-30.893-33.342-88.266-12.835-88.266 35.719-29.716-28.056-79.003-11.314-85.25 29.222-.952 2.327-.596-11.4-.596 210.404 0 4.418 3.582 8 8 8s8-3.582 8-8v-79.759c27.498 25.962 72.125 13.778 83.427-21.513 26.543 28.647 73.987 17.953 85.846-19.077 8.229 8.881 19.573 14.836 32.28 16.096-29.044 31.034-45.861 72.327-45.861 116.253 0 4.418 3.582 8 8 8s8-3.582 8-8c0-56.671 30.896-108.501 80.693-135.543 22.25 28.488 66.241 25.152 84.184-5.926l22.626-39.19c21.6 73.415 25.425 112.472 25.425 171.119 0 69.223-56.317 125.54-125.54 125.54h-133.54c-47.616 0-90.56-26.406-112.072-68.912-1.994-3.941-6.807-5.522-10.75-3.526-3.942 1.995-5.521 6.809-3.525 10.75 23.834 47.093 72.256 77.686 126.348 77.686h133.54c78.046 0 141.54-63.495 141.54-141.54 0-85.423-11.502-126.098-30.377-190.254zm-112.705-95.898c0-37.665 30.643-68.308 68.308-68.308 6.134 0 11.077 4.935 11.077 11.077v44.836c-15.278 2.462-28.368 11.449-36.093 24.829l-43.292 74.982c0-7.266 0-66.256 0-87.416zm-187.693 166.923c0 19.256-15.666 34.923-34.923 34.923s-34.923-15.667-34.923-34.923v-85.846c0-19.257 15.666-34.923 34.923-34.923s34.923 15.667 34.923 34.923zm85.847-19.077c0 19.257-15.666 34.923-34.923 34.923s-34.924-15.667-34.924-34.923c0-27.251 0-89.369 0-104.923 0-19.257 15.667-34.923 34.924-34.923s34.923 15.667 34.923 34.923zm16-19.077c0-20.826 0-80.833 0-104.923 0-19.256 15.666-34.923 34.923-34.923s34.923 15.667 34.923 34.923v104.923c0 19.256-15.666 34.923-34.923 34.923s-34.923-15.667-34.923-34.923zm151.021 17.454c-9.63 16.677-31.031 22.41-47.707 12.783-16.677-9.628-22.41-31.029-12.783-47.706l52.463-90.866c4.663-8.079 12.194-13.857 21.205-16.271 30.202-8.095 54.68 24.53 39.282 51.194-11.153 19.318-35.735 61.897-52.46 90.866z"/><path d="m66.927 398.774c-.063-.257-.115-.506-.17-.763-.922-4.321-5.17-7.076-9.493-6.155-4.321.921-7.077 5.172-6.155 9.493.086.403.172.794.27 1.197 1.043 4.302 5.377 6.929 9.66 5.888 4.293-1.041 6.93-5.366 5.888-9.66z"/></svg>