<svg enable-background="new 0 0 511.991 511.991" height="512" viewBox="0 0 511.991 511.991" width="512" xmlns="http://www.w3.org/2000/svg"><path d="m415.951 319.751v52.24c0 72.9-59.1 132-132 132-60.059 0-69.89 1.286-92-4.97-55.4-15.67-96-66.61-96-127.03 0-67.419 0 122.084 0-164 0-8.84 3.58-16.84 9.37-22.63 19.966-19.967 54.63-5.976 54.63 22.63v-28c0-9.94 4.03-18.94 10.54-25.46 22.528-22.493 61.46-6.653 61.46 25.46v-136c0-9.94 4.03-18.94 10.54-25.46 22.528-22.493 61.46-6.653 61.46 25.46v16c0-9.94 4.03-18.94 10.54-25.46 22.528-22.493 61.46-6.653 61.46 25.46v180l11.88 11.88c18.01 18.011 28.12 42.421 28.12 67.88z" fill="#f9cfac"/><g fill="#ffe4cc"><path d="m203.951 303.101c16.056-3.65 28-17.989 28-35.11v-88c0-28.972-32.4-45.743-56-29.94v117.94c0 17.13 11.97 31.47 28 35.11z"/><path d="m135.951 310.981c13.808-3.538 24-16.085 24-30.99v-72c0-24.73-26.846-39.936-48-27.72v99.72c0 14.91 10.2 27.44 24 30.99z"/><path d="m375.951 217.362v-157.371c0-28.972-32.4-45.743-56-29.94v134.88c7.971 3.225 6.231 2.672 56 52.431z"/><path d="m387.831 251.871c-74.554-74.554-69.541-70.217-73.5-71.92-5.83-2.55-12.88-1.45-17.65 3.31-20.12 20.121-19.985 52.495-.17 72.45 29.364 29.815 30.498 30.229 34.21 36.99 3.458 6.275 5.23 13.341 5.23 20.35-51.324 6.82-92.342 46.133-101.89 96.47-.72 3.76-4.02 6.47-7.84 6.47-5.149 0-8.799-4.741-7.86-9.53 9.88-51.73 48.75-92.69 98.45-105.88-2.387-4.374-1.748-3.239-31.7-33.64-38.04-38.316-13.846-100.076 18.84-104.08v-118.87c0-28.972-32.4-45.743-56-29.94v253.08c0 42.814-48.331 68.047-82.58 42.89-11.071 13.72-28.375 20.184-45.42 17.3v33.67c0 73.328 59.58 132 132 132 58.373 0 72.683 1.832 98.68-7.06 39.08-22.92 65.32-65.36 65.32-113.94v-52.24c0-25.459-10.11-49.869-28.12-67.88z"/></g><path d="m393.487 246.215-9.537-9.537v-176.687c0-38.931-47.086-58.547-74.796-31.422-11.263-29.995-49.716-38.264-72.324-15.69-8.305 8.318-12.879 19.367-12.879 31.113v102.084c-27.166-22.468-68.757-5.195-71.822 30.077-26.124-19.887-64.178-1.267-64.178 31.838v164c0 77.196 62.804 140 140 140h56c39.515 0 77.387-16.827 103.905-46.166 2.962-3.278 2.707-8.336-.571-11.299-3.278-2.962-8.337-2.707-11.299.571-23.49 25.989-57.036 40.894-92.035 40.894h-56c-68.374 0-124-55.626-124-124v-60.021c19.829 14.919 48.483 8.351 59.757-14.081 27.214 29.328 76.243 9.799 76.243-29.897 0-7.731 0-189.032 0-224 0-15.604 12.648-28 28-28 15.439 0 28 12.561 28 28v129.862c-1.756 1.016-3.42 2.246-4.921 3.745-23.225 23.18-23.159 60.624-.218 83.727 27.536 27.959 33.887 31.975 36.485 45.042-59.43 11.607-103.345 64.306-103.345 125.624 0 4.418 3.582 8 8 8s8-3.582 8-8c0-55.916 41.725-103.64 97.056-111.01 3.975-.53 6.944-3.92 6.944-7.93 0-13.306-5.264-25.941-14.44-35.233l-27.323-27.744c-16.765-16.882-16.818-44.222.146-61.152 3.1-3.095 8.156-3.079 11.271.036 43.263 43.263-58.561-58.561 68.57 68.57 16.623 16.623 25.777 38.721 25.777 62.223 0 53.663.926 61.854-2.949 79.251-.96 4.313 1.757 8.587 6.069 9.548 4.318.963 8.587-1.757 9.548-6.069 4.284-19.233 3.332-27.598 3.332-82.729-.002-27.778-10.821-53.894-30.466-73.538zm-241.536 33.776c0 13.234-10.766 24-24 24s-24-10.766-24-24v-72c0-13.234 10.766-24 24-24s24 10.766 24 24zm72-12c0 15.439-12.561 28-28 28s-28-12.561-28-28c0-10.157 0-77.86 0-88 0-15.439 12.561-28 28-28s28 12.561 28 28zm88-97.014v-110.986c0-7.477 2.913-14.511 8.193-19.799 17.502-17.476 47.807-5.229 47.807 19.799v160.687l-43.033-43.033c-3.659-3.659-8.218-5.868-12.967-6.668z"/><path d="m405.688 423.736c-3.952-1.976-8.757-.374-10.733 3.578-.547 1.094-1.113 2.188-1.688 3.263-2.861 5.346 1.052 11.776 7.047 11.776 5.504 0 7.222-4.423 8.952-7.884 1.976-3.952.374-8.757-3.578-10.733z"/></svg>