<svg enable-background="new 0 0 512.002 512.002" height="512" viewBox="0 0 512.002 512.002" width="512" xmlns="http://www.w3.org/2000/svg"><path d="m422.764 69.322c-9.636 35.968-37.552 140.16-47.64 177.81 7.868 7.868 17.331 16.922 24.87 34.29 10.074 23.076 8 35.689 8 90.58 0 72.9-59.1 132-132 132h-56c-72.621 0-132-58.832-132-132 0-67.439 0 122.105 0-164 0-17.679 14.319-32 32-32 13.03 0 24.25 7.8 29.24 18.98-10.079-37.612-21.812-81.395-31.87-118.94-2.57-9.6-1.01-19.34 3.59-27.32 15.982-27.57 57.646-22.324 65.96 8.69 6.097 22.752 37.503 139.972 43.37 161.87 1.278-.976 1.834-1.14 1.71-1.14v-174.14c0-9.94 4.03-18.94 10.54-25.46 22.528-22.493 61.46-6.653 61.46 25.46v172h4.92c7.927-29.579 38.952-145.351 44.3-165.31 8.319-31.032 49.985-36.248 65.96-8.69 4.6 7.98 6.16 17.72 3.59 27.32z" fill="#f9cfac"/><g fill="#ffe4cc"><path d="m303.994 44.002c0-28.972-32.4-45.743-56-29.94v185.94h56z"/><path d="m353.214 50.691c-6.436 24.021-34.29 127.959-40.01 149.31 12.028 0 29.289-.635 48.55 12.77 2.63 1.82 5.16 3.83 7.56 6.03 47.308-186.182 39.148-154.497 46.44-181.7-18.347-22.295-54.904-14.894-62.54 13.59z"/><path d="m127.994 310.992c13.808-3.538 24-16.085 24-30.99v-72c0-24.73-26.846-39.936-48-27.72v99.72c0 14.909 10.2 27.439 24 30.99z"/><path d="m360.394 232.401c-10.5-10.5-24.74-16.4-39.6-16.4h-80.8c-32.248 0-14.244 72 40 72h39.76c5.511 7.581 8.24 16.168 8.24 25.06-56.522 7.535-100.094 54.172-103.75 111.18-.28 4.32-3.89 7.66-8.21 7.53-4.39-.131-8.034-3.81-7.76-8.47 3.5-55.001 39.658-101.304 89.69-119.3h-17.97c-35.055 0-63.758-25.022-70.48-57.26-2.956-14.069-2.372-27.131 7.83-37.35 2.57-2.56 5.49-4.63 8.64-6.17-5.858-21.864-32.751-122.228-39.07-145.81-7.938-29.608-46.672-36.063-64.11-11.56l40.31 141.08c3.297 6.728 4.88 13.927 4.88 21.07v72c0 29.522-26.665 52.294-56 47.33v28.67c0 60.41 40.6 111.35 96 127.02 0 .505 20.03 4.479 20.03 4 10.668 1.303 11.353.98 71.97.98 21.89 0 42.54-5.33 60.71-14.76 28.91-24.22 47.29-60.58 47.29-101.24 0-54.221 2.053-67.553-8-90.58-8.751-20.159-19.759-29.178-39.6-49.02z"/></g><path d="m426.094 37.989c-19.534-33.697-70.452-27.244-80.608 10.632l-33.492 124.98v-129.599c0-39.334-47.624-58.572-75.121-31.113-8.305 8.318-12.879 19.367-12.879 31.113v120.892l-29.353-109.554c-6.281-23.43-30.453-37.387-53.886-31.116-23.307 6.239-37.458 30.212-31.119 53.888l24.813 92.604c-26.109-10.159-54.456 9.182-54.456 37.286v164c0 77.196 62.804 140 140 140h56c39.515 0 77.387-16.827 103.904-46.165 2.963-3.278 2.708-8.336-.57-11.299-3.277-2.963-8.337-2.706-11.299.571-23.49 25.989-57.036 40.894-92.035 40.894h-56c-68.374 0-124-55.626-124-124v-60.023c26.116 19.65 64 1.059 64-31.978 0-78.533 1.057-77.661-3.168-87.599l-31.733-118.43c-1.935-7.227-.943-14.775 2.783-21.239 12.473-21.518 44.87-17.28 51.311 6.749l42.169 157.388c-17.05 20.965 6.813 79.131 58.638 79.131h35.433c1.763 3.067 3.13 6.442 3.913 10.376-59.431 11.607-103.346 64.306-103.346 125.624 0 4.418 3.582 8 8 8s8-3.582 8-8c0-55.917 41.726-103.64 97.057-111.01 3.975-.53 6.943-3.92 6.943-7.93 0-14.384-7.002-27.659-11.038-31.13-3.072-2.635-2.283-1.93-44.962-1.93-26.468 0-48-21.533-48-48 0-4.435 3.567-8 8-8h80.8c12.824 0 24.879 4.992 33.943 14.057l19.479 19.48c16.01 16.009 25.777 38.19 25.777 62.223 0 53.663.925 61.854-2.948 79.251-1.116 5.016 2.711 9.741 7.816 9.741 3.665 0 6.971-2.536 7.801-6.263 2.21-9.927 3.331-20.185 3.331-30.489 0-53.984 2.218-68.849-8.661-93.766-5.991-13.8-13.57-23.779-23.286-33.496l46.444-173.35c3.041-11.349 1.483-23.206-4.395-33.401zm-282.1 242.013c0 13.234-10.766 24-24 24s-24-10.766-24-24v-72c0-13.234 10.766-24 24-24 11.477 0 22.163 8.208 23.878 21.577.174 1.727.122-4.565.122 74.423zm96-236c0-15.62 12.669-28 28-28 15.439 0 28 12.561 28 28v164h-56zm175.042 23.249-44.053 164.425-4.931-4.931c-12.194-12.194-27.828-18.743-46.711-18.743l41.601-155.238c3.997-14.912 19.375-23.799 34.294-19.804 14.864 3.978 23.827 19.25 19.8 34.291z"/><path d="m397.732 423.746c-3.952-1.976-8.758-.375-10.733 3.578-.547 1.093-1.112 2.187-1.688 3.261-2.864 5.348 1.051 11.778 7.046 11.778 5.499 0 7.217-4.411 8.952-7.884 1.976-3.952.374-8.757-3.577-10.733z"/></svg>