<svg enable-background="new 0 0 512.238 512.238" height="512" viewBox="0 0 512.238 512.238" width="512" xmlns="http://www.w3.org/2000/svg"><path d="m433.439 357.949c0 80.79-65.5 146.29-146.29 146.29h-62.06c-80.79 0-146.29-65.5-146.29-146.29v-119.7c0-64.407 65.195-100.129 106.36-85.64 18.896-10.94 46.355-16.734 67.34-6.68 13.82-8.9 30.28-14.07 47.95-14.07h45.2c-8.241-17.017-16.284-22.486-51.24-56.02-15.4-15.39-15.58-40.24-.55-55.86 15.51-16.12 41.7-15.82 57.52 0 38.501 36.738 28.558 27.09 45.71 44.23 23.28 23.28 36.35 54.85 36.35 87.77z" fill="#f9cfac"/><g fill="#ffe4cc"><path d="m353.509 214.338c.05-.25.1-.37.14-.36 4.459 1.26 2.2.673-.14.36z"/><path d="m252.509 145.939c-.01 0-.01-.01-.02-.01"/><path d="m418.939 327.009v17.44c0 80.79-65.5 146.29-146.29 146.29h-62.06c-34.95 0-67.04-12.26-92.2-32.71-24.55-26.16-39.59-61.37-39.59-100.08v-58.42c19.629 20.055 50.963 22.41 73.36 5.67l4.36-3.26c22.826 10.986 50.238 4.64 64.9-12.06.532-.581 14.274 11.245 37.55 8.24 8.771 1.738 13.143 1.33 38.27 1.33-46.515 24.314-75.72 72.434-75.72 124.99 0 4.42 3.58 8 8 8s8-3.58 8-8c0-62.4 46.57-115.66 108.32-123.88 9.226-1.229 9.199-14.689-.04-15.87-12.827-1.65-.782-1.24-55.87-1.24 19.207-18.312 17.65-37.234 17.65-53.79h36.22c11.251 0 22.245 3.478 31.57 10.17 15.036 15.036 25.742 24.12 34.37 44.03 5.558 12.729 8.2 26.152 8.2 39.29 0 1.4.36 2.72 1 3.86z"/><path d="m416.439 151.979v105.31c-23.92-24.897-33.983-35.455-53.63-41.01-6.543-1.831-1.598-.165-9.16-2.3 0-49.282 2.094-61.333-8-82.12-8.241-17.017-16.284-22.486-51.24-56.02-22.401-22.386-10.829-60.49 19.47-66.95 7.53 1.59 14.71 5.3 20.5 11.09 38.501 36.738 28.558 27.09 45.71 44.23 23.28 23.28 36.35 54.85 36.35 87.77z"/><path d="m337.649 166.669v44.99h-46.07v31.03c0 11.01-4.46 20.99-11.68 28.21-17.848 17.849-47.529 14.84-61.47-6.17-8.222-12.402-6.64-22.299-6.64-44.21 0-31.006 15.959-58.621 40.7-74.59 25.477-16.407 46.232-14.07 74.82-14.07 6.884 10.563 10.34 22.768 10.34 34.81z"/><path d="m195.789 220.519c0 22.731-1.839 36.235 9.31 53.06 4.376 6.612 4.861 5.198 3.87 6.19-25.099 25.098-68.11 7.132-68.11-28.22v-22.16c0-53.174 45.926-91.268 91.75-88.57-22.602 19.224-36.82 47.735-36.82 79.7z"/><path d="m124.859 229.389v22.16c0 16.998 7.969 32.466 17.73 40.83-25.987 19.402-63.79 1.142-63.79-31.96v-22.17c0-46.711 36.263-85.413 82.76-88.46-23.501 20.129-36.7 48.857-36.7 79.6z"/></g><path d="m441.439 151.979c0-15.727-2.772-31.18-8.239-45.93-1.535-4.143-6.139-6.258-10.281-4.721-4.143 1.536-6.257 6.139-4.721 10.282 4.805 12.964 7.241 26.546 7.241 40.37v116.362c-4.847-8.193-10.688-15.761-17.505-22.578-21.57-21.57-28.69-30.86-46.285-37.546 0-41.138 2.199-57.177-8.793-79.83-9.254-19.073-19.59-26.358-52.847-58.262-19.525-19.608-6.359-53.849 22.026-54.123 8.431-.096 16.527 2.859 23.82 9.764 36.824 35.137 30.564 29.098 35.776 34.309 3.122 3.124 8.188 3.125 11.313-.001 3.124-3.124 3.124-8.189-.001-11.313-5.416-5.415 1.012.788-35.979-34.509-9.221-9.183-22.004-14.396-35.084-14.25-42.599.411-62.677 51.965-33.128 81.494 28.591 28.233 35.413 32.529 42.716 42.361-32.228 0-53.094-2.429-79.645 13.08-21.373-8.396-48.179-3.239-67.538 7.013-5.459-1.559-11.102-2.36-16.83-2.36-53.319 0-96.661 43.146-96.661 96.662v119.693c0 85.077 69.215 154.291 154.292 154.291h62.062c85.077 0 154.292-69.215 154.292-154.291.002-332.027-.001-147.622-.001-205.967zm-100.997-12.121c6.354 15.808 5.208 23.129 5.208 63.8-1.957 0-51.453-.004-54.065-.004-4.408 0-8.005 3.574-8.005 8.004v31.03c0 8.523-3.315 16.532-9.337 22.553-19.885 19.888-54.453 6.016-54.453-22.553v-22.17c0-44.557 36.062-80.66 80.66-80.66zm-105.126 9.245c-20.018 18.305-31.527 43.759-31.527 71.416 0 22.084-1.318 31.815 5.724 44.855-5.148 10.667-16.006 18.076-28.757 18.076-17.483 0-31.898-14.118-31.898-31.898v-22.165c0-50.62 45.764-85.45 86.458-80.284zm-148.52 89.15c0-43.582 34.516-79.166 77.945-80.596-20.448 18.47-31.882 44.231-31.882 71.73 0 21.773-2.094 36.072 10.153 51.659-19.12 22.58-56.215 8.949-56.215-20.628-.001-5.024-.001-14.178-.001-22.165zm338.646 119.694c0 76.254-62.037 138.292-138.292 138.292h-62.062c-76.255 0-138.292-62.037-138.292-138.292v-61.836c19.848 17.756 50.458 15.984 68.042-4.269 21.207 13.678 50.31 8.695 65.346-13.117 3.89 3.406 8.33 6.197 13.173 8.211.552.701 1.225 1.326 2.024 1.827 20.293 12.734 36.449 10.688 61.857 10.688-45.998 24.057-75.719 71.858-75.719 124.993 0 4.418 3.582 8 8 8s8-3.582 8-8c0-62.403 46.566-115.663 108.317-123.888 9.222-1.229 9.209-14.676-.036-15.865-13.707-1.763-.658-1.24-68.951-1.24 13.845-8.584 22.728-23.677 22.728-40.762v-23.03h37.449c14.401.061 28.023 5.848 38.004 15.829 21.274 21.274 33.129 30.946 42.211 51.869 9.947 22.796 8.201 38.834 8.201 70.59z"/><path d="m404.458 85.391c2.519 3.63 7.502 4.529 11.134 2.01 3.629-2.52 4.528-7.504 2.009-11.134-.736-1.061-1.525-2.148-2.408-3.316-4.476-6.374-14.554-3.215-14.554 4.598 0 3.37 1.704 4.799 3.819 7.842z"/></svg>