<svg enable-background="new 0 0 512.021 512.021" height="512" viewBox="0 0 512.021 512.021" width="512" xmlns="http://www.w3.org/2000/svg"><path d="m475.718 210.612c4.495 0-32.209-3.507-60.971 25.255l-35.431 35.716c-10.079 10.079-27.314 2.941-27.314-11.314 0-10.21 0-75.263 0-85.373 0-19.882-16.118-36-36-36s-36 16.118-36 36v-16c0-19.882-16.118-36-36-36s-36 16.118-36 36v16c0-19.882-16.118-36-36-36s-36 16.118-36 36c0 32.867.12 28.669-.28 27.99l-68-117.77c-8.84-15.31-28.41-20.55-43.71-11.72-15.262 8.812-20.58 28.375-11.72 43.72 37.413 64.794 59.71 107.451 59.71 193.78 0 72.902 59.098 132 132 132h48.353c38.191 0 74.818-15.171 101.823-42.177l141.539-141.823c17.658-17.657 5.274-48.284-19.999-48.284z" fill="#f9cfac"/><g fill="#ffe4cc"><path d="m208.002 174.898v72c0 17.121-11.957 31.463-28 35.11-16.03-3.64-28-17.98-28-35.11v-101.94c23.599-15.802 56 .966 56 29.94z"/><path d="m280.002 158.898v88c0 17.121-11.957 31.463-28 35.11-16.03-3.64-28-17.98-28-35.11v-117.94c23.599-15.802 56 .966 56 29.94z"/><path d="m352.002 174.898v72c0 17.121-11.957 31.463-28 35.11-16.03-3.64-28-17.98-28-35.11v-101.94c23.599-15.802 56 .966 56 29.94z"/><path d="m503.922 236.898c-.096.112 4.615-4.614-141.74 142.03-27.01 27.01-63.64 42.18-101.83 42.18h-48.35c-72.9 0-132-59.1-132-132 0-85.687-21.932-128.353-59.71-193.78-2.81-4.86-4.19-10.15-4.28-15.39 14.527-16.408 40.795-13.723 51.71 5.18l52.28 90.54v71.24c0 45.959 55.25 68.969 88 37.48 20.134 19.359 51.858 19.367 72 0 1.07 1.02 2.18 2 3.33 2.93-31.742 23.645-50.83 61.096-50.83 101.3 0 4.42 3.58 8 8 8s8-3.58 8-8c0-37.48 19.38-72.49 50.36-92.62 22.524 7.928 48.237-.623 61.35-21.75 5.82 3.23 13.54 2.9 19.1-2.65l35.44-35.72c16.17-16.17 38.1-25.26 60.97-25.26 14.916 0 27.193 11.576 28.2 26.29z"/></g><path d="m475.722 202.608c-25.165 0-48.826 9.803-66.648 27.625l-35.416 35.695c-5.042 5.037-13.655 1.469-13.655-5.66 0-17.824 0-67.648 0-85.372 0-38.853-47.046-58.602-74.786-31.396-14.251-38.024-68.156-38.079-82.428 0-27.164-26.641-73.61-8.416-74.752 30.077l-53.387-92.46c-11.028-19.1-35.538-25.671-54.639-14.647-18.776 10.843-25.866 35.219-14.646 54.648 36.552 63.305 58.638 104.701 58.638 189.78 0 77.196 62.804 140 140 140h48.35c40.604 0 78.776-15.812 107.493-44.529l9.44-9.46c3.12-3.127 3.115-8.192-.012-11.313-3.128-3.121-8.194-3.117-11.314.012l-9.435 9.454c-25.688 25.689-59.844 39.837-96.173 39.837h-48.35c-68.374 0-124-55.626-124-124 0-87.445-22.533-131.537-60.782-197.781-6.737-11.665-2.466-26.289 8.791-32.791 11.458-6.612 26.165-2.67 32.783 8.791l67.208 116.399v41.38c0 42.517 55.147 60.576 80 25.251 17.578 24.984 54.416 24.994 72 0 2.813 3.999 6.272 7.509 10.228 10.378-35.025 22.652-57.728 62.035-57.728 106.082 0 4.418 3.582 8 8 8s8-3.582 8-8c0-41.325 23.574-79.622 60.262-98.317 15.407 2.562 30.646-3.158 40.623-14.781 8.554 10.375 24.923 12.384 35.604 1.713l35.419-35.698c14.777-14.778 34.422-22.917 55.313-22.917 14.312 0 24.323 14.581 18.739 28.047-2.171 5.242 3.225-1.05-90.021 92.382-5.058 5.069-1.387 13.651 5.662 13.651 2.05 0 4.1-.783 5.662-2.349l85.614-85.784c22.821-22.814 6.472-61.947-25.657-61.947zm-303.72 72.289c-15.439 0-28-12.561-28-27.999 0-28.967 0 21.168 0-72 0-15.439 12.561-28 28-28s28 12.561 28 28v72c0 15.438-12.56 27.999-28 27.999zm72 0c-15.439 0-28-12.561-28-27.999 0-9.913 0-77.21 0-88 0-15.439 12.561-28 28-28s28 12.561 28 28v88c0 15.438-12.56 27.999-28 27.999zm72 0c-15.439 0-28-12.561-28-27.999v-72c0-15.439 12.561-28 28-28s28 12.561 28 28v72c0 15.438-12.56 27.999-28 27.999z"/><path d="m381.944 361.572-1.479 1.48c-3.123 3.125-3.122 8.19.002 11.313 3.126 3.124 8.189 3.123 11.314-.002l1.479-1.48c3.123-3.125 3.122-8.19-.002-11.313-3.125-3.124-8.189-3.122-11.314.002z"/></svg>