<svg enable-background="new 0 0 512.002 512.002" height="512" viewBox="0 0 512.002 512.002" width="512" xmlns="http://www.w3.org/2000/svg"><path d="m336.003 319.762v52.24c0 72.9-59.1 132-132 132-58.231 0-73.528 1.63-98.34-6.94-43.798-15.033-74.48-50.172-85.34-91.45-5.762-21.822-4.32-21.139-4.32-173.61 0-8.84 3.58-16.84 9.37-22.63 19.966-19.967 54.63-5.976 54.63 22.63v-28c0-9.94 4.03-18.94 10.54-25.46 22.528-22.493 61.46-6.653 61.46 25.46 0-16.48-1.801-29.1 10.54-41.46 19.775-19.745 53.775-10.388 60.43 16.89 0 .1-.184.027 1.05-.29-.101-.101-.02 3.062-.02-135.14 0-19.893 16.119-36 36-36 19.88 0 36 16.12 36 36v196l11.88 11.88c18.01 18.01 28.12 42.42 28.12 67.88z" fill="#f9cfac"/><g fill="#ffe4cc"><path d="m296.003 44.002v173.37c-49.778-49.767-48.033-49.207-56-52.43v-150.88c23.6-15.802 56 .966 56 29.94z"/><path d="m152.003 204.002v88c0 17.133-11.954 31.462-28 35.11-16.03-3.64-28-17.98-28-35.11v-117.94c23.6-15.802 56 .966 56 29.94z"/><path d="m224.003 188.002v88c0 17.133-11.954 31.462-28 35.11-16.03-3.64-28-17.98-28-35.11v-117.94c23.6-15.802 56 .966 56 29.94z"/><path d="m80.003 232.002v72c0 14.895-10.183 27.449-24 30.99-13.8-3.55-24-16.08-24-30.99v-99.72c21.159-12.219 48 2.993 48 27.72z"/><path d="m336.003 319.762v52.24c0 40.66-18.38 77.02-47.29 101.24-18.17 9.43-38.82 14.76-60.71 14.76h-56c-40.77 0-77.701-18.475-102.31-48.59-1.471-1.804-5.34-6.843-5.34-7.01 0-.83-.47-1.57-1.19-1.97-1.276-.726-20.552-29.187-22.77-64.32-.45-4.382-.39-12.253-.39-14.78 16.8 2.843 34.201-3.414 45.36-17.22.297-.442 11.244 9.89 30.64 9.89 18.173 0 34.615-9.468 43.95-24.23 7.445 4.773 15.824 7.54 24.56 8.11-28.038 23.528-45.839 57.848-48.23 95.42-.275 4.663 3.373 8.339 7.76 8.47 4.32.13 7.93-3.21 8.21-7.53 3.69-57.534 47.757-103.715 103.75-111.18 0-5.635-1.14-11.108-3.15-16.01-4.213-10.238-7.869-12.472-36.29-41.33-19.907-20.047-19.857-52.463.17-72.45 6.285-6.25 16.377-6.164 22.58.04l68.57 68.57c18.01 18.01 28.12 42.42 28.12 67.88z"/></g><path d="m313.54 246.224-9.537-9.537v-192.685c0-39.227-47.565-58.623-75.121-31.113-8.305 8.317-12.879 19.367-12.879 31.113v110.021c-23.33-19.214-58.708-9.623-69.227 18.57-26.567-26.034-71.4-9.194-74.595 27.57-26.124-19.887-64.178-1.266-64.178 31.838v140c0 77.196 62.804 140 140 140h56c23.066 0 45.939-5.733 66.144-16.581 3.893-2.091 5.354-6.94 3.264-10.833s-6.941-5.355-10.833-3.265c-17.886 9.604-38.141 14.679-58.576 14.679h-56c-68.374 0-124-55.626-124-124v-36.021c19.828 14.919 48.483 8.351 59.757-14.081 22.193 23.917 61.92 16.283 73.457-14.501 25.706 25.211 69.242 10.428 74.332-25.059 7.398 7.513 13.506 12.498 15.8 24.039-59.43 11.607-103.345 64.307-103.345 125.624 0 4.418 3.582 8 8 8s8-3.582 8-8c0-55.916 41.725-103.641 97.056-111.011 3.975-.529 6.944-3.92 6.944-7.93 0-13.307-5.265-25.94-14.44-35.232-27.271-27.69-17.921-18.254-19.947-20.254-8.985-9.123-19.944-18.368-19.944-37.993 0-11.583 4.514-22.467 12.712-30.649 3.099-3.095 8.156-3.078 11.271.036l68.57 68.57c16.623 16.622 25.777 38.72 25.777 62.223v52.24c0 24.133-6.94 47.532-20.071 67.671-3.494 5.356.424 12.37 6.694 12.37 2.613 0 5.175-1.279 6.708-3.632 14.83-22.743 22.669-49.165 22.669-76.409v-52.24c.001-27.778-10.818-53.893-30.462-73.538zm-241.537 57.778c0 13.233-10.766 24-24 24s-24-10.767-24-24c0-14.075 0-57.93 0-72 0-13.233 10.766-24 24-24s24 10.767 24 24zm72-12c0 15.439-12.561 28-28 28s-28-12.561-28-28c0-10.157 0-77.86 0-88 0-15.439 12.561-28 28-28s28 12.561 28 28zm66.86-30.667 5.14 5.219c0 9.801 1.268 19.771-8.192 29.247-17.531 17.502-47.808 5.174-47.808-19.799 0-9.913 0-77.209 0-88 0-15.631 12.681-28 28-28 10.932 0 20.584 6.262 25.177 15.763-22.161 17.488-28.633 59.069-2.317 85.57zm21.14-90.347v-126.986c0-7.477 2.913-14.511 8.192-19.799 17.531-17.502 47.808-5.174 47.808 19.799v176.686l-43.033-43.033c-3.659-3.659-8.217-5.867-12.967-6.667z"/><path d="m288.62 462.65c-.488.451-1.04.96-1.515 1.39-5.446 4.929-1.889 13.932 5.371 13.932 3.423 0 5.147-1.858 6.852-3.431 3.589-3.297 3.452-8.335.597-11.432-2.995-3.249-8.057-3.452-11.305-.459z"/><path d="m502.189 149.074c2.631-3.205 2.327-7.822-.482-10.677-2.076-2.144 7.97 7.965-32.047-32.052-3.124-3.123-8.189-3.123-11.313 0-3.125 3.125-3.125 8.189 0 11.314l18.343 18.343h-111.528c129.9-114.618 122.202-106.674 122.765-110.955.4-3.058-.955-5.894-3.298-7.564-2.975-2.111 8.128-1.481-156.626-1.481-4.418 0-8 3.582-8 8s3.582 8 8 8h130.841c-124.56 109.907-120.165 106.004-120.604 106.46-2.935 3.048-2.936 7.767-.235 10.833 3.469 3.927-2.801 2.707 138.685 2.707l-18.343 18.343c-5.054 5.055-1.407 13.657 5.657 13.657 2.047 0 4.095-.781 5.657-2.343 33.903-33.904 32.132-32.102 32.528-32.585z" fill="#ef6767"/></svg>