<svg id="visual" viewBox="0 0 900 600" width="900" height="600" xmlns="http://www.w3.org/2000/svg" xmlns:xlink="http://www.w3.org/1999/xlink" version="1.1"><rect width="900" height="600" fill="#000"></rect><g><g transform="translate(734 11)"><path d="M4.9 -6.2C5.6 -5.3 4.9 -3 5.4 -0.9C5.9 1.3 7.5 3.3 7.3 4.8C7.1 6.2 5 7.1 2.8 8.3C0.5 9.4 -1.9 10.7 -3 9.6C-4 8.6 -3.6 5.3 -4 3.1C-4.4 0.9 -5.5 -0.1 -5.6 -1.3C-5.8 -2.4 -4.9 -3.6 -3.8 -4.4C-2.7 -5.2 -1.4 -5.6 0.4 -6.1C2.1 -6.5 4.2 -7.1 4.9 -6.2Z" fill="#1b1a1b"></path></g><g transform="translate(212 425)"><path d="M4.8 -6.3C5.4 -5.3 4.4 -2.9 4.1 -1.3C3.7 0.4 3.8 1.3 3.5 2.1C3.1 2.8 2.2 3.2 1.1 4C0.1 4.7 -1.2 5.7 -2.3 5.6C-3.4 5.5 -4.4 4.3 -5.5 2.9C-6.7 1.5 -8.1 -0.1 -7.8 -1.4C-7.6 -2.6 -5.7 -3.6 -4.1 -4.5C-2.6 -5.3 -1.3 -6.1 0.4 -6.6C2.1 -7.1 4.2 -7.4 4.8 -6.3Z" fill="#1b1a1b"></path></g><g transform="translate(419 358)"><path d="M1.1 -1.5C1.5 -1 1.7 -0.7 2.1 -0.2C2.4 0.4 2.8 1.1 2.8 1.9C2.7 2.7 2.1 3.5 1.4 3.8C0.6 4.1 -0.4 3.8 -1.2 3.5C-2 3.1 -2.7 2.5 -3 1.9C-3.2 1.2 -2.9 0.4 -2.6 -0.3C-2.2 -0.9 -1.8 -1.3 -1.4 -1.7C-0.9 -2.1 -0.5 -2.5 0 -2.4C0.4 -2.4 0.8 -1.9 1.1 -1.5Z" fill="#1b1a1b"></path></g><g transform="translate(497 420)"><path d="M1.5 -1.7C1.8 -1.5 2 -0.9 2 -0.4C2 0.1 1.8 0.5 1.6 0.9C1.3 1.2 1 1.4 0.5 1.7C0.1 2 -0.4 2.3 -0.9 2.2C-1.4 2.2 -1.9 1.8 -2 1.3C-2.1 0.9 -1.7 0.3 -1.5 -0.1C-1.2 -0.6 -1.1 -0.9 -0.9 -1.1C-0.7 -1.4 -0.3 -1.6 0.1 -1.7C0.6 -1.9 1.2 -2 1.5 -1.7Z" fill="#1b1a1b"></path></g><g transform="translate(248 523)"><path d="M2.4 -2.7C3.1 -2.2 3.9 -1.5 4.1 -0.7C4.2 0.1 3.9 1.1 3.4 2C2.9 2.8 2.2 3.6 1.4 3.9C0.5 4.3 -0.5 4.3 -1.9 4.2C-3.2 4.1 -4.9 4 -5.9 3C-6.8 2.1 -7 0.4 -6.5 -0.9C-6 -2.2 -4.7 -3.2 -3.5 -3.6C-2.3 -4 -1.2 -3.8 -0.2 -3.6C0.8 -3.4 1.6 -3.1 2.4 -2.7Z" fill="#1b1a1b"></path></g><g transform="translate(751 482)"><path d="M2.4 -3C3.1 -2.4 3.4 -1.5 3.7 -0.6C3.9 0.4 4 1.4 3.5 1.8C3 2.3 1.9 2.2 1.1 2.1C0.3 2 -0.1 1.8 -0.6 1.7C-1.1 1.5 -1.7 1.4 -1.9 1.1C-2.2 0.7 -2.2 0.2 -2.2 -0.4C-2.1 -1 -1.9 -1.5 -1.5 -2.2C-1.2 -2.9 -0.6 -3.8 0.2 -4C0.9 -4.2 1.8 -3.7 2.4 -3Z" fill="#1b1a1b"></path></g><g transform="translate(389 95)"><path d="M2 -2.3C2.3 -2 2.3 -1.2 2.2 -0.5C2.2 0.1 2.2 0.7 2 1.3C1.8 2 1.6 2.8 1 3.1C0.5 3.4 -0.3 3.2 -1 2.9C-1.6 2.5 -2.1 2 -2.5 1.4C-2.8 0.8 -3 0.1 -2.7 -0.3C-2.5 -0.8 -1.8 -1 -1.2 -1.3C-0.7 -1.5 -0.4 -1.8 0.2 -2.1C0.8 -2.4 1.6 -2.6 2 -2.3Z" fill="#1b1a1b"></path></g><g transform="translate(396 432)"><path d="M4.8 -6C6.5 -4.3 8.3 -3.1 8.6 -1.5C8.8 0 7.6 1.8 6.1 2.7C4.6 3.6 2.9 3.5 1.5 3.9C0.1 4.2 -1 5 -2.6 5.3C-4.3 5.5 -6.4 5.2 -7.3 4.1C-8.1 2.9 -7.6 0.8 -6.7 -0.7C-5.9 -2.2 -4.7 -3.2 -3.5 -4.9C-2.3 -6.6 -1.2 -9.1 0.2 -9.3C1.6 -9.6 3.1 -7.6 4.8 -6Z" fill="#1b1a1b"></path></g><g transform="translate(222 324)"><path d="M0.9 -1.2C1.1 -0.9 1.3 -0.6 1.7 0C2.1 0.5 2.7 1.2 2.7 1.8C2.6 2.3 1.9 2.8 1.2 2.9C0.4 3 -0.3 2.9 -0.8 2.6C-1.4 2.3 -1.7 1.7 -2 1.2C-2.2 0.7 -2.4 0.1 -2.3 -0.4C-2.2 -1 -2 -1.5 -1.5 -1.8C-1.1 -2.1 -0.6 -2.3 -0.1 -2.1C0.3 -2 0.6 -1.6 0.9 -1.2Z" fill="#1b1a1b"></path></g><g transform="translate(641 13)"><path d="M3.6 -4.7C4 -4 3.2 -2.2 3.3 -0.7C3.5 0.9 4.7 2.2 4.8 3.3C4.8 4.5 3.6 5.5 2.2 6C0.9 6.4 -0.7 6.3 -1.7 5.6C-2.8 4.9 -3.4 3.6 -3.9 2.4C-4.5 1.2 -5 0.1 -5 -1C-5 -2.2 -4.4 -3.4 -3.5 -4C-2.6 -4.7 -1.3 -4.7 0.2 -4.9C1.6 -5.1 3.2 -5.4 3.6 -4.7Z" fill="#1b1a1b"></path></g><g transform="translate(192 381)"><path d="M3.9 -4.4C4.6 -4.1 4.3 -2.4 4.5 -0.9C4.7 0.6 5.3 2 4.9 2.9C4.4 3.7 3 4.1 1.8 4.1C0.6 4.1 -0.3 3.8 -1 3.4C-1.7 2.9 -2.1 2.2 -2.9 1.4C-3.7 0.6 -4.9 -0.2 -4.7 -0.8C-4.6 -1.4 -3.2 -1.8 -2.2 -2.1C-1.2 -2.4 -0.6 -2.7 0.5 -3.3C1.6 -3.9 3.2 -4.8 3.9 -4.4Z" fill="#1b1a1b"></path></g><g transform="translate(889 470)"><path d="M2.8 -2.9C3.7 -2.7 4.3 -1.8 4.2 -1C4.1 -0.1 3.2 0.6 2.6 1.4C2 2.2 1.7 3 1.1 3.5C0.4 4 -0.6 4.1 -1 3.6C-1.5 3.1 -1.4 1.9 -1.3 1.2C-1.3 0.4 -1.3 0.1 -1.5 -0.5C-1.6 -1 -1.9 -1.8 -1.7 -2.2C-1.5 -2.5 -0.7 -2.4 0.1 -2.6C1 -2.8 2 -3.2 2.8 -2.9Z" fill="#1b1a1b"></path></g><g transform="translate(629 325)"><path d="M3 -3.1C4.2 -2.5 5.7 -1.9 5.9 -1C6.1 0 5.1 1.2 4.2 2.2C3.4 3.3 2.6 4.1 1.5 4.9C0.3 5.7 -1.1 6.5 -2.4 6.2C-3.7 6 -4.8 4.7 -5.3 3.3C-5.9 1.9 -5.8 0.5 -5.4 -0.8C-5 -2.1 -4.3 -3.2 -3.4 -3.8C-2.4 -4.4 -1.2 -4.4 -0.2 -4.2C0.9 -4 1.8 -3.6 3 -3.1Z" fill="#1b1a1b"></path></g><g transform="translate(350 39)"><path d="M3.1 -3.6C3.7 -3.2 3.5 -1.9 3.1 -1C2.8 -0.1 2.1 0.3 1.7 1C1.4 1.7 1.3 2.6 0.9 2.9C0.5 3.2 -0.2 2.9 -1.1 2.7C-2 2.5 -3.1 2.4 -3.5 1.9C-3.9 1.4 -3.7 0.4 -3.6 -0.8C-3.6 -1.9 -3.6 -3.2 -3.1 -3.6C-2.5 -4 -1.2 -3.6 0 -3.6C1.3 -3.6 2.5 -4 3.1 -3.6Z" fill="#1b1a1b"></path></g><g transform="translate(283 184)"><path d="M2.2 -2.6C2.5 -2.3 2.4 -1.3 2.6 -0.4C2.8 0.5 3.5 1.5 3.2 1.9C3 2.3 1.9 2.1 0.9 2.5C-0.1 2.9 -0.9 3.7 -1.8 3.8C-2.7 3.9 -3.8 3.4 -4.5 2.4C-5.2 1.5 -5.6 0.2 -5.4 -0.9C-5.2 -2.1 -4.4 -3.2 -3.4 -3.3C-2.4 -3.5 -1.2 -2.8 -0.1 -2.6C0.9 -2.5 1.8 -2.9 2.2 -2.6Z" fill="#1b1a1b"></path></g><g transform="translate(280 109)"><path d="M1.3 -1.4C1.8 -1.2 2.2 -0.9 2.4 -0.4C2.6 0.1 2.5 0.7 2.1 1.2C1.8 1.6 1.3 1.9 0.9 1.7C0.4 1.6 0.1 1.2 -0.4 1C-0.9 0.9 -1.5 1.1 -1.8 0.9C-2 0.7 -1.9 0.2 -1.8 -0.3C-1.7 -0.8 -1.7 -1.3 -1.3 -1.5C-1 -1.7 -0.5 -1.6 0 -1.6C0.5 -1.5 0.9 -1.6 1.3 -1.4Z" fill="#1b1a1b"></path></g><g transform="translate(320 221)"><path d="M4.9 -4.9C6.3 -4.6 7.4 -3.1 7.8 -1.3C8.2 0.5 7.9 2.4 6.9 3.8C5.8 5.1 4.1 5.8 2.5 6C0.9 6.1 -0.6 5.8 -1.8 5.2C-3 4.6 -4 3.7 -4.9 2.6C-5.9 1.4 -6.8 0 -6.4 -0.9C-5.9 -1.8 -4.1 -2.3 -2.8 -2.5C-1.5 -2.7 -0.8 -2.8 0.5 -3.4C1.7 -4 3.5 -5.1 4.9 -4.9Z" fill="#1b1a1b"></path></g><g transform="translate(750 412)"><path d="M3.1 -3C4 -2.8 5 -1.9 4.8 -1.1C4.6 -0.3 3.3 0.4 2.6 1.4C1.9 2.4 1.9 3.7 1.3 4.2C0.8 4.6 -0.3 4.2 -1.4 3.8C-2.6 3.4 -3.8 3.2 -4.8 2.3C-5.9 1.5 -6.7 0.1 -6.3 -0.8C-5.8 -1.7 -4 -2.2 -2.7 -2.3C-1.4 -2.4 -0.7 -2.3 0.2 -2.5C1 -2.7 2.1 -3.2 3.1 -3Z" fill="#1b1a1b"></path></g><g transform="translate(304 565)"><path d="M1.5 -1.8C1.9 -1.4 2.2 -0.9 2.4 -0.4C2.6 0.2 2.6 0.9 2.4 1.6C2.2 2.3 1.8 3 1.3 3C0.7 2.9 0.1 2.1 -0.3 1.6C-0.6 1.1 -0.8 0.8 -0.9 0.6C-1 0.3 -1.1 0 -1.2 -0.3C-1.2 -0.6 -1.2 -1.1 -1 -1.5C-0.8 -2 -0.4 -2.4 0.1 -2.5C0.5 -2.5 1.1 -2.2 1.5 -1.8Z" fill="#1b1a1b"></path></g><g transform="translate(417 244)"><path d="M3.5 -3.9C4.3 -3.4 4.6 -2.2 5.2 -0.6C5.8 0.9 6.8 2.7 6.2 3.4C5.6 4.2 3.4 3.9 1.8 4C0.2 4.2 -0.8 4.7 -1.7 4.5C-2.6 4.3 -3.3 3.3 -3.8 2.3C-4.2 1.2 -4.5 0.2 -4.3 -0.6C-4 -1.5 -3.1 -2.1 -2.3 -2.5C-1.5 -3 -0.8 -3.2 0.3 -3.6C1.3 -3.9 2.6 -4.3 3.5 -3.9Z" fill="#1b1a1b"></path></g><g transform="translate(837 201)"><path d="M0.4 -0.5C0.5 -0.4 0.5 -0.3 0.5 -0.1C0.6 0.1 0.6 0.2 0.6 0.3C0.5 0.4 0.3 0.4 0.2 0.5C0 0.5 -0.1 0.6 -0.2 0.6C-0.4 0.6 -0.5 0.5 -0.5 0.3C-0.5 0.2 -0.5 0.1 -0.5 -0.1C-0.5 -0.3 -0.6 -0.5 -0.5 -0.6C-0.4 -0.6 -0.2 -0.5 0 -0.5C0.2 -0.4 0.3 -0.5 0.4 -0.5Z" fill="#1b1a1b"></path></g><g transform="translate(52 382)"><path d="M2.2 -2.9C2.5 -2.4 2 -1.4 2.1 -0.4C2.2 0.5 2.8 1.2 2.8 2C2.8 2.7 2.2 3.5 1.4 3.7C0.6 3.9 -0.3 3.6 -0.8 3.1C-1.3 2.5 -1.5 1.7 -1.6 1.1C-1.8 0.5 -2 0 -2.1 -0.5C-2.2 -1.1 -2.1 -1.8 -1.8 -2.3C-1.4 -2.8 -0.7 -3 0.1 -3.2C1 -3.4 2 -3.4 2.2 -2.9Z" fill="#1b1a1b"></path></g><g transform="translate(79 492)"><path d="M1.4 -1.7C1.9 -1.3 2.3 -0.9 2.3 -0.5C2.2 -0.1 1.6 0.2 1.3 0.7C1 1.2 0.9 1.8 0.7 2C0.4 2.2 -0.1 1.9 -0.5 1.7C-0.9 1.4 -1.3 1.2 -1.7 0.8C-2.2 0.4 -2.8 -0.1 -2.8 -0.6C-2.8 -1 -2.2 -1.4 -1.6 -1.9C-1 -2.3 -0.5 -2.7 0 -2.7C0.5 -2.7 0.9 -2.2 1.4 -1.7Z" fill="#1b1a1b"></path></g><g transform="translate(241 133)"><path d="M1.1 -1.6C1.6 -0.9 2.3 -0.7 2.8 -0.1C3.3 0.4 3.7 1.4 3.4 2.1C3.2 2.9 2.3 3.5 1.6 3.4C0.8 3.3 0.1 2.4 -0.3 1.8C-0.7 1.2 -0.9 0.9 -1.6 0.6C-2.2 0.2 -3.3 -0.3 -3.6 -1C-3.9 -1.7 -3.4 -2.5 -2.6 -3.2C-1.9 -3.8 -1 -4.3 -0.3 -3.9C0.3 -3.5 0.6 -2.3 1.1 -1.6Z" fill="#1b1a1b"></path></g><g transform="translate(316 516)"><path d="M2.2 -2.2C3.2 -1.8 4.6 -1.4 5 -0.6C5.5 0.2 5.1 1.4 4.4 2.6C3.8 3.9 3.1 5 2 5.3C1 5.5 -0.2 4.8 -1.1 4C-1.9 3.2 -2.3 2.4 -2.8 1.6C-3.2 0.8 -3.7 0 -3.8 -0.9C-3.9 -1.9 -3.7 -3 -3 -3.4C-2.3 -3.9 -1.2 -3.7 -0.3 -3.3C0.6 -3 1.2 -2.6 2.2 -2.2Z" fill="#1b1a1b"></path></g><g transform="translate(164 555)"><path d="M3.4 -4C4.2 -3.3 4.6 -2.1 4.3 -1.2C4 -0.2 2.9 0.4 2.2 1C1.6 1.6 1.3 2.1 0.6 2.8C0 3.5 -1 4.4 -1.5 4.2C-2.1 4 -2.3 2.7 -2.6 1.7C-2.8 0.8 -3.1 0.1 -2.9 -0.4C-2.7 -1 -2.1 -1.4 -1.5 -2.1C-1 -2.9 -0.5 -4.1 0.4 -4.6C1.3 -5 2.5 -4.8 3.4 -4Z" fill="#1b1a1b"></path></g><g transform="translate(356 192)"><path d="M2.3 -2.7C3.3 -2 4.6 -1.5 5.1 -0.6C5.6 0.3 5.3 1.6 4.4 2.2C3.6 2.8 2.3 2.8 1.2 3.1C0.1 3.5 -0.9 4.3 -2.2 4.5C-3.4 4.6 -5 4.2 -5.2 3.3C-5.3 2.4 -4 1 -3.5 -0.4C-3 -1.8 -3.4 -3.1 -2.9 -4C-2.5 -4.9 -1.2 -5.3 -0.3 -4.9C0.7 -4.6 1.3 -3.5 2.3 -2.7Z" fill="#1b1a1b"></path></g><g transform="translate(762 343)"><path d="M4.1 -4.7C5.8 -3.4 8.1 -2.6 8.7 -1.3C9.3 0.1 8.2 2.1 6.7 3.2C5.3 4.3 3.5 4.5 1.7 5.5C-0.1 6.5 -1.9 8.4 -2.8 8C-3.8 7.6 -3.8 4.9 -3.9 3C-4.1 1.2 -4.3 0.2 -4.2 -0.8C-4 -1.7 -3.5 -2.6 -2.7 -4C-2 -5.4 -1 -7.4 0.1 -7.5C1.2 -7.6 2.4 -5.9 4.1 -4.7Z" fill="#1b1a1b"></path></g><g transform="translate(607 168)"><path d="M3.3 -3C4.7 -2.7 6.6 -2.1 7.6 -0.7C8.5 0.7 8.6 2.8 7.6 4.2C6.6 5.6 4.6 6.3 2.7 6.5C0.9 6.8 -0.8 6.7 -1.8 5.9C-2.9 5.1 -3.5 3.7 -4.1 2.5C-4.6 1.2 -5.3 0.1 -5.3 -1.1C-5.3 -2.3 -4.7 -3.7 -3.8 -4C-2.8 -4.3 -1.4 -3.7 -0.2 -3.4C0.9 -3.1 1.9 -3.2 3.3 -3Z" fill="#1b1a1b"></path></g><g transform="translate(577 234)"><path d="M0.7 -0.9C0.9 -0.6 1.2 -0.4 1.2 -0.2C1.2 0 1 0.2 0.9 0.4C0.7 0.6 0.5 0.8 0.3 1C0 1.3 -0.3 1.5 -0.5 1.5C-0.7 1.4 -0.7 0.9 -1 0.5C-1.2 0.1 -1.8 -0.1 -1.8 -0.4C-1.9 -0.7 -1.6 -1.1 -1.2 -1.4C-0.8 -1.7 -0.4 -1.9 -0.1 -1.8C0.2 -1.7 0.4 -1.2 0.7 -0.9Z" fill="#1b1a1b"></path></g><g transform="translate(888 394)"><path d="M0.5 -0.6C0.7 -0.5 0.8 -0.3 1 -0.1C1.2 0.2 1.4 0.6 1.3 0.8C1.2 1.1 0.9 1.2 0.5 1.3C0.2 1.4 -0.2 1.5 -0.5 1.3C-0.7 1.2 -0.9 0.9 -1.1 0.6C-1.2 0.4 -1.2 0.1 -1.1 -0.1C-1 -0.3 -0.7 -0.4 -0.5 -0.5C-0.3 -0.7 -0.2 -0.8 0 -0.8C0.2 -0.8 0.3 -0.7 0.5 -0.6Z" fill="#1b1a1b"></path></g><g transform="translate(510 174)"><path d="M1.1 -1.5C1.3 -1.2 1.2 -0.7 1.3 -0.2C1.4 0.2 1.7 0.7 1.6 1C1.5 1.3 1 1.4 0.5 1.6C0.1 1.8 -0.4 2.2 -0.9 2.1C-1.3 2.1 -1.7 1.7 -1.9 1.2C-2 0.7 -1.9 0.2 -1.7 -0.2C-1.6 -0.7 -1.4 -1.1 -1.1 -1.4C-0.8 -1.6 -0.4 -1.8 0 -1.8C0.5 -1.8 0.9 -1.7 1.1 -1.5Z" fill="#1b1a1b"></path></g><g transform="translate(153 175)"><path d="M3.1 -3.8C3.6 -3.4 3.1 -1.9 2.7 -0.9C2.4 0.1 2.2 0.6 2.1 1.5C1.9 2.3 1.8 3.5 1.2 4.1C0.5 4.7 -0.6 4.8 -1.3 4.3C-2 3.7 -2.2 2.5 -2.3 1.6C-2.5 0.8 -2.6 0.1 -2.8 -0.8C-3 -1.8 -3.4 -3.2 -3 -3.6C-2.6 -4.1 -1.3 -3.5 0 -3.6C1.4 -3.6 2.7 -4.2 3.1 -3.8Z" fill="#1b1a1b"></path></g><g transform="translate(594 573)"><path d="M1.9 -2.8C2.4 -2 2.5 -1.2 2.5 -0.6C2.4 0.1 2.2 0.6 2.1 1.6C2 2.6 2 4 1.4 4.6C0.8 5.2 -0.4 4.9 -1.4 4.3C-2.3 3.7 -2.9 2.9 -3.2 2.1C-3.4 1.2 -3.2 0.3 -3.5 -1C-3.7 -2.4 -4.4 -4.2 -3.9 -5.1C-3.4 -6 -1.7 -5.9 -0.5 -5.3C0.8 -4.8 1.5 -3.7 1.9 -2.8Z" fill="#1b1a1b"></path></g><g transform="translate(292 54)"><path d="M5.5 -6C6.8 -5.5 7.2 -3.4 6.5 -1.9C5.9 -0.5 4.1 0.4 3.2 1.7C2.3 3 2.3 4.7 1.6 5.4C0.9 6.1 -0.5 5.7 -2.3 5.4C-4 5.1 -6.2 5 -7.4 3.8C-8.7 2.6 -9.1 0.5 -8.6 -1.4C-8.1 -3.2 -6.6 -4.7 -5 -5.1C-3.4 -5.6 -1.7 -5.1 0.2 -5.3C2.1 -5.5 4.2 -6.5 5.5 -6Z" fill="#1b1a1b"></path></g><g transform="translate(354 319)"><path d="M1.5 -1.9C1.8 -1.5 1.9 -0.9 1.7 -0.5C1.5 -0.1 1.2 0.2 0.9 0.4C0.7 0.6 0.5 0.8 0.2 1.1C-0.1 1.5 -0.5 2.1 -0.8 2C-1 2 -1.1 1.3 -1.4 0.8C-1.7 0.3 -2.2 -0.1 -2.3 -0.5C-2.3 -0.9 -1.9 -1.3 -1.4 -1.7C-1 -2 -0.5 -2.4 0.1 -2.4C0.6 -2.5 1.2 -2.3 1.5 -1.9Z" fill="#1b1a1b"></path></g><g transform="translate(727 525)"><path d="M5.1 -6.9C5.8 -5.4 5.1 -3.1 5.1 -1.2C5 0.6 5.5 2.1 5.1 3.2C4.8 4.3 3.5 5.2 1.8 6.3C0.2 7.4 -1.7 8.8 -3.6 8.6C-5.4 8.5 -7.2 6.8 -7.9 4.9C-8.7 2.9 -8.5 0.7 -7.9 -1.1C-7.2 -2.9 -6.1 -4.4 -4.7 -5.8C-3.3 -7.3 -1.6 -8.6 0.3 -8.9C2.2 -9.2 4.3 -8.5 5.1 -6.9Z" fill="#1b1a1b"></path></g><g transform="translate(296 262)"><path d="M1.7 -2.7C2.4 -1.5 3.2 -1.1 3.4 -0.5C3.6 0.1 3.2 0.8 2.7 1.5C2.2 2.1 1.7 2.6 0.8 3.4C-0.1 4.3 -1.3 5.5 -2.4 5.5C-3.5 5.6 -4.5 4.4 -5.4 3C-6.3 1.7 -7 0.2 -7 -1.5C-7 -3.1 -6.3 -4.9 -5 -6C-3.7 -7.2 -1.8 -7.7 -0.7 -6.9C0.5 -6.1 1.1 -4 1.7 -2.7Z" fill="#1b1a1b"></path></g><g transform="translate(233 61)"><path d="M3.4 -4.4C4.1 -3.5 4 -2.1 3.8 -1C3.6 0.1 3.3 0.9 3 2.1C2.8 3.3 2.5 4.8 1.6 5.7C0.7 6.6 -1 6.9 -1.9 6.2C-2.9 5.5 -3.2 3.8 -4 2.3C-4.9 0.9 -6.2 -0.2 -6.1 -1.1C-6 -2.1 -4.5 -2.8 -3.2 -3.5C-2 -4.3 -1 -5.1 0.2 -5.3C1.4 -5.5 2.8 -5.2 3.4 -4.4Z" fill="#1b1a1b"></path></g><g transform="translate(605 242)"><path d="M1.9 -2.4C2.2 -1.9 2.2 -1.2 2.4 -0.3C2.7 0.5 3.2 1.3 3 1.8C2.8 2.3 1.9 2.4 1.1 2.4C0.4 2.3 -0.2 2.1 -0.9 2.1C-1.7 2 -2.7 2.1 -3.4 1.6C-4.1 1.2 -4.5 0.2 -4.3 -0.8C-4.2 -1.8 -3.7 -2.8 -2.9 -3.2C-2.1 -3.6 -1 -3.5 -0.1 -3.3C0.8 -3.2 1.5 -2.9 1.9 -2.4Z" fill="#1b1a1b"></path></g><g transform="translate(422 429)"><path d="M1.5 -1.9C1.7 -1.6 1.5 -0.9 1.7 -0.2C1.9 0.4 2.5 1.1 2.5 1.7C2.4 2.2 1.8 2.6 1 2.9C0.3 3.1 -0.5 3.3 -1.1 3.1C-1.8 2.9 -2.4 2.3 -2.6 1.7C-2.7 1.1 -2.4 0.3 -2 -0.1C-1.7 -0.6 -1.3 -0.9 -1 -1.3C-0.7 -1.6 -0.3 -2 0.1 -2.2C0.6 -2.4 1.3 -2.3 1.5 -1.9Z" fill="#1b1a1b"></path></g><g transform="translate(482 56)"><path d="M1.2 -1.4C1.9 -0.9 3 -0.8 3.5 -0.2C4.1 0.3 4.1 1.4 3.6 1.9C3.1 2.5 2 2.5 1.2 2.5C0.4 2.4 -0.2 2.3 -1 2.3C-1.8 2.2 -2.9 2.2 -3.3 1.8C-3.8 1.3 -3.8 0.3 -3.3 -0.3C-2.9 -0.9 -2 -1.2 -1.4 -1.7C-0.8 -2.3 -0.4 -3.1 -0.1 -3C0.3 -2.9 0.6 -2 1.2 -1.4Z" fill="#1b1a1b"></path></g><g transform="translate(849 305)"><path d="M1.6 -2.6C2 -1.5 2.2 -1 2.7 -0.2C3.2 0.6 3.9 1.6 3.7 2.4C3.6 3.3 2.6 3.9 1.6 4.2C0.5 4.6 -0.6 4.7 -1.5 4.3C-2.4 4 -3.1 3.1 -3.5 2.1C-3.8 1.2 -3.8 0.3 -3.6 -0.5C-3.3 -1.3 -2.8 -2 -2.1 -3C-1.5 -4 -0.7 -5.4 -0.1 -5.3C0.6 -5.2 1.2 -3.6 1.6 -2.6Z" fill="#1b1a1b"></path></g><g transform="translate(641 176)"><path d="M3 -3.4C4 -2.8 4.8 -1.9 5.1 -0.8C5.4 0.2 5 1.5 4.2 1.9C3.3 2.3 2 1.9 0.9 2.3C-0.2 2.6 -1 3.7 -1.6 3.7C-2.2 3.8 -2.7 2.8 -2.7 2C-2.7 1.1 -2.3 0.4 -2.3 -0.5C-2.3 -1.5 -2.7 -2.6 -2.4 -3.3C-2.1 -4 -1 -4.3 0 -4.3C1 -4.3 2.1 -4 3 -3.4Z" fill="#1b1a1b"></path></g><g transform="translate(802 59)"><path d="M1.2 -1.1C1.8 -1 2.5 -0.8 2.7 -0.3C3 0.2 2.9 0.9 2.5 1.4C2.1 2 1.6 2.4 1.1 2.3C0.5 2.2 0.1 1.6 -0.4 1.4C-0.9 1.1 -1.4 1.1 -1.9 0.8C-2.4 0.6 -2.7 0 -2.5 -0.3C-2.3 -0.7 -1.5 -0.8 -1 -0.9C-0.5 -1 -0.3 -1.1 0.1 -1.2C0.4 -1.2 0.7 -1.3 1.2 -1.1Z" fill="#1b1a1b"></path></g><g transform="translate(401 314)"><path d="M2.1 -2.4C2.7 -2 3.2 -1.3 2.9 -0.8C2.7 -0.2 1.9 0.2 1.4 0.7C1 1.3 1 2 0.7 2.3C0.4 2.6 -0.3 2.5 -0.7 2.2C-1.1 1.9 -1.3 1.4 -1.4 0.9C-1.5 0.5 -1.6 0.1 -1.6 -0.3C-1.5 -0.7 -1.5 -1.2 -1.2 -1.6C-0.9 -2.1 -0.5 -2.5 0.2 -2.7C0.8 -2.9 1.5 -2.8 2.1 -2.4Z" fill="#1b1a1b"></path></g><g transform="translate(415 565)"><path d="M1.6 -1.9C2.1 -1.6 2.3 -1 2.5 -0.4C2.7 0.3 2.8 1 2.6 1.7C2.4 2.4 1.9 3 1.3 3C0.7 3.1 0 2.4 -0.6 2.1C-1.3 1.7 -1.9 1.6 -2.4 1.2C-2.8 0.8 -3.1 0.1 -3 -0.5C-2.9 -1.2 -2.4 -1.7 -1.9 -2C-1.3 -2.3 -0.6 -2.2 0 -2.2C0.6 -2.2 1.2 -2.2 1.6 -1.9Z" fill="#1b1a1b"></path></g><g transform="translate(568 490)"><path d="M1.3 -1.3C1.6 -1.3 1.8 -0.8 2 -0.3C2.2 0.2 2.3 0.8 2.1 1.1C1.8 1.4 1.2 1.4 0.7 1.4C0.2 1.4 -0.1 1.3 -0.5 1.2C-0.8 1.1 -1.2 1 -1.3 0.8C-1.4 0.6 -1.1 0.2 -0.9 -0.1C-0.8 -0.4 -0.8 -0.7 -0.7 -0.8C-0.5 -0.9 -0.3 -0.8 0.1 -1C0.5 -1.1 1 -1.4 1.3 -1.3Z" fill="#1b1a1b"></path></g><g transform="translate(516 6)"><path d="M0.7 -0.8C0.9 -0.6 1.3 -0.4 1.4 -0.2C1.5 0 1.3 0.4 1.1 0.5C0.9 0.6 0.5 0.6 0.3 0.7C0 0.8 -0.3 1.1 -0.5 1.2C-0.8 1.2 -1.1 1 -1.1 0.7C-1.2 0.5 -1 0.2 -1 -0.1C-0.9 -0.4 -0.8 -0.7 -0.7 -0.9C-0.5 -1.2 -0.3 -1.5 0 -1.4C0.2 -1.4 0.4 -1 0.7 -0.8Z" fill="#1b1a1b"></path></g><g transform="translate(544 165)"><path d="M3.4 -4C4.2 -3.5 4.2 -2.1 4.1 -1C4 0.1 3.7 1 3.1 1.6C2.5 2.1 1.7 2.3 0.8 3C-0.1 3.7 -1.2 4.9 -2.2 4.9C-3.2 5 -4.2 4 -4.8 2.8C-5.3 1.6 -5.6 0.3 -5.1 -0.6C-4.5 -1.5 -3.3 -2 -2.4 -2.4C-1.4 -2.8 -0.7 -3.2 0.3 -3.6C1.4 -4 2.7 -4.4 3.4 -4Z" fill="#1b1a1b"></path></g><g transform="translate(60 233)"><path d="M2.6 -2.5C3.7 -2.2 5 -1.7 5.2 -0.9C5.3 -0.1 4.3 0.9 3.5 1.7C2.6 2.6 2 3.2 1.2 3.6C0.4 4 -0.6 4.2 -1.1 3.7C-1.6 3.2 -1.7 2.1 -2.5 1.2C-3.3 0.3 -4.8 -0.4 -4.7 -0.8C-4.6 -1.3 -3 -1.5 -2 -1.8C-1 -2.1 -0.5 -2.4 0.1 -2.6C0.8 -2.7 1.5 -2.7 2.6 -2.5Z" fill="#1b1a1b"></path></g><g transform="translate(150 490)"><path d="M1.5 -2C1.7 -1.6 1.6 -0.9 1.7 -0.3C1.8 0.3 2 0.8 1.9 1.3C1.9 1.8 1.4 2.3 1 2.2C0.6 2.1 0.1 1.5 -0.5 1.3C-1.1 1.1 -1.8 1.3 -2.1 1.1C-2.5 0.9 -2.3 0.2 -2.1 -0.2C-1.8 -0.7 -1.5 -1 -1.1 -1.4C-0.7 -1.7 -0.4 -2.2 0.1 -2.3C0.6 -2.5 1.2 -2.4 1.5 -2Z" fill="#1b1a1b"></path></g><g transform="translate(885 254)"><path d="M0.3 -0.4C0.4 -0.3 0.4 -0.2 0.5 -0.1C0.6 0.1 0.7 0.3 0.7 0.4C0.6 0.6 0.5 0.7 0.3 0.7C0.1 0.7 0 0.6 -0.2 0.5C-0.3 0.4 -0.5 0.4 -0.5 0.3C-0.6 0.2 -0.4 0.1 -0.4 -0.1C-0.3 -0.2 -0.4 -0.4 -0.3 -0.4C-0.3 -0.5 -0.1 -0.4 0 -0.4C0.1 -0.4 0.2 -0.4 0.3 -0.4Z" fill="#1b1a1b"></path></g><g transform="translate(97 271)"><path d="M0.2 -0.3C0.3 -0.2 0.4 -0.1 0.5 -0.1C0.5 0 0.4 0.1 0.3 0.2C0.3 0.4 0.3 0.6 0.2 0.7C0.1 0.8 0 0.7 -0.1 0.6C-0.3 0.5 -0.3 0.3 -0.4 0.2C-0.5 0.1 -0.7 0 -0.7 -0.1C-0.7 -0.2 -0.5 -0.3 -0.4 -0.5C-0.2 -0.6 -0.1 -0.8 0 -0.7C0.1 -0.7 0.1 -0.5 0.2 -0.3Z" fill="#1b1a1b"></path></g><g transform="translate(876 569)"><path d="M2.7 -2.9C4.2 -2 6.4 -1.8 7.2 -0.8C7.9 0.2 7.2 2 6 2.7C4.7 3.4 2.8 3.1 1.4 3.5C-0.1 3.8 -1.1 4.9 -2.5 5.1C-3.9 5.4 -5.5 4.8 -5.6 3.7C-5.6 2.6 -4 1.1 -3.2 -0.1C-2.4 -1.3 -2.5 -2.2 -2.2 -3.3C-1.8 -4.4 -0.9 -5.6 -0.1 -5.4C0.6 -5.3 1.3 -3.8 2.7 -2.9Z" fill="#1b1a1b"></path></g><g transform="translate(17 290)"><path d="M3.2 -3.4C4.4 -2.8 5.7 -2 6.6 -0.7C7.4 0.7 7.7 2.6 6.8 3.7C5.9 4.8 3.9 5.1 2.4 4.9C0.9 4.7 -0.2 4.1 -1.3 3.6C-2.4 3.2 -3.6 3 -4.6 2.2C-5.6 1.4 -6.5 0 -6.3 -1.1C-6.1 -2.3 -4.8 -3.2 -3.6 -3.8C-2.3 -4.4 -1.2 -4.6 -0.1 -4.5C1 -4.4 2 -4 3.2 -3.4Z" fill="#1b1a1b"></path></g><g transform="translate(441 578)"><path d="M0.8 -1.1C1 -0.7 1.3 -0.5 1.5 -0.2C1.6 0.1 1.6 0.6 1.5 1C1.4 1.5 1.2 2 0.7 2.3C0.3 2.6 -0.4 2.7 -0.9 2.5C-1.4 2.3 -1.8 1.8 -2.1 1.2C-2.4 0.7 -2.6 0.1 -2.4 -0.3C-2.2 -0.7 -1.6 -0.9 -1.1 -1.4C-0.7 -1.8 -0.3 -2.4 0 -2.3C0.3 -2.3 0.5 -1.6 0.8 -1.1Z" fill="#1b1a1b"></path></g><g transform="translate(7 382)"><path d="M3.3 -4.4C3.9 -3.5 3.6 -2 3.3 -0.9C3.1 0.2 3 0.9 2.6 1.6C2.3 2.3 1.8 3 1.2 3.2C0.6 3.3 -0.2 2.9 -0.9 2.6C-1.6 2.3 -2.3 2 -2.6 1.5C-2.9 1 -2.9 0.2 -3.1 -0.8C-3.2 -1.9 -3.5 -3.2 -3 -4.1C-2.5 -5.1 -1.3 -5.6 0.1 -5.7C1.4 -5.7 2.8 -5.4 3.3 -4.4Z" fill="#1b1a1b"></path></g><g transform="translate(739 273)"><path d="M3.1 -4.2C3.7 -3.2 3.7 -1.9 4 -0.6C4.3 0.6 4.9 1.9 4.6 3C4.4 4.2 3.3 5.2 1.8 6.5C0.3 7.7 -1.8 9 -3.6 8.8C-5.4 8.6 -7 6.8 -7.4 4.9C-7.7 3 -6.8 1 -6.6 -1.4C-6.4 -3.7 -7.1 -6.4 -6.1 -7.4C-5.1 -8.4 -2.6 -7.6 -0.7 -6.9C1.2 -6.1 2.5 -5.3 3.1 -4.2Z" fill="#1b1a1b"></path></g><g transform="translate(571 200)"><path d="M4.9 -5.9C6 -4.9 6.4 -3 6.9 -1.1C7.4 0.8 7.9 2.9 7.2 4.1C6.4 5.3 4.3 5.8 2.7 5.7C1 5.6 -0.3 4.9 -1.5 4.4C-2.8 3.8 -3.9 3.4 -4.1 2.6C-4.3 1.8 -3.4 0.7 -2.9 -0.3C-2.4 -1.2 -2.4 -2 -2 -3.1C-1.5 -4.3 -0.8 -5.9 0.6 -6.5C1.9 -7.2 3.7 -6.9 4.9 -5.9Z" fill="#1b1a1b"></path></g><g transform="translate(730 467)"><path d="M2.8 -3.2C3.5 -2.7 3.9 -1.7 3.9 -0.8C3.9 0.1 3.6 1 3.2 2C2.8 3.1 2.4 4.3 1.7 4.7C0.9 5 -0.2 4.3 -1.5 3.9C-2.7 3.5 -4 3.3 -4.2 2.6C-4.4 1.9 -3.3 0.8 -2.8 -0.1C-2.2 -1 -2.1 -1.7 -1.7 -2.1C-1.3 -2.6 -0.6 -2.9 0.2 -3.2C1 -3.4 2.1 -3.6 2.8 -3.2Z" fill="#1b1a1b"></path></g><g transform="translate(50 413)"><path d="M1.8 -2.3C2.3 -1.8 2.6 -1.1 2.9 -0.4C3.1 0.3 3.2 1.1 3 2.1C2.9 3.1 2.4 4.2 1.7 4.3C1.1 4.3 0.2 3.2 -0.8 2.6C-1.8 2.1 -2.8 2.2 -4 1.6C-5.1 1.1 -6.4 -0.1 -6 -0.9C-5.7 -1.6 -3.7 -1.8 -2.4 -2.3C-1.2 -2.7 -0.6 -3.4 0 -3.4C0.7 -3.5 1.3 -2.9 1.8 -2.3Z" fill="#1b1a1b"></path></g><g transform="translate(451 493)"><path d="M3.7 -4.1C4.4 -3.8 4.4 -2.3 4.1 -1.2C3.7 -0.1 3 0.6 2.6 1.8C2.3 2.9 2.2 4.4 1.6 4.7C1 5.1 -0.1 4.3 -1.1 3.7C-2.1 3.1 -2.8 2.6 -3.7 1.8C-4.6 1 -5.6 -0.1 -5.6 -1.2C-5.6 -2.2 -4.6 -3.3 -3.5 -3.5C-2.4 -3.7 -1.2 -3.1 0.1 -3.2C1.5 -3.4 3 -4.3 3.7 -4.1Z" fill="#1b1a1b"></path></g><g transform="translate(108 194)"><path d="M2 -2.2C2.8 -1.7 3.7 -1.3 3.9 -0.6C4 0 3.4 0.8 2.8 1.5C2.2 2.2 1.7 2.7 1.1 3C0.5 3.2 -0.3 3 -0.7 2.6C-1.2 2.2 -1.3 1.5 -1.8 0.9C-2.2 0.3 -2.9 -0.2 -2.9 -0.6C-2.9 -1 -2.2 -1.4 -1.6 -1.9C-1 -2.4 -0.5 -3.2 0.1 -3.2C0.6 -3.3 1.2 -2.7 2 -2.2Z" fill="#1b1a1b"></path></g><g transform="translate(835 449)"><path d="M4.2 -5.2C5.1 -4.3 5.3 -2.6 5.4 -1.1C5.5 0.4 5.5 1.8 5 2.9C4.4 4 3.2 4.8 1.9 5.5C0.5 6.1 -1 6.6 -1.9 6C-2.8 5.3 -2.9 3.6 -3.6 2.2C-4.2 0.8 -5.3 -0.1 -5.6 -1.5C-5.9 -2.8 -5.5 -4.4 -4.4 -5.4C-3.4 -6.3 -1.7 -6.5 0 -6.5C1.7 -6.5 3.3 -6.2 4.2 -5.2Z" fill="#1b1a1b"></path></g><g transform="translate(193 488)"><path d="M2.5 -2.7C3.3 -2.3 4.1 -1.6 4.3 -0.7C4.5 0.1 4.1 1.1 3.4 1.7C2.7 2.2 1.8 2.2 1 2.5C0.1 2.7 -0.6 3.2 -1.3 3.1C-1.9 3 -2.6 2.4 -3.1 1.7C-3.6 1 -4 0.1 -3.7 -0.5C-3.5 -1.2 -2.6 -1.6 -1.9 -2C-1.1 -2.4 -0.6 -2.8 0.1 -2.9C0.8 -3.1 1.7 -3.1 2.5 -2.7Z" fill="#1b1a1b"></path></g><g transform="translate(310 339)"><path d="M0.8 -1.1C0.9 -0.8 1 -0.5 1.3 -0.1C1.6 0.4 2 0.9 1.9 1.1C1.8 1.4 1.1 1.3 0.6 1.4C0.1 1.4 -0.3 1.5 -0.5 1.5C-0.8 1.4 -1 1 -1.4 0.7C-1.8 0.3 -2.4 -0.1 -2.4 -0.5C-2.5 -0.9 -2 -1.4 -1.5 -1.7C-1 -2 -0.5 -2.2 -0.1 -2.1C0.3 -2 0.6 -1.5 0.8 -1.1Z" fill="#1b1a1b"></path></g><g transform="translate(556 122)"><path d="M3.2 -4.6C3.8 -3.4 3.5 -2 3.3 -0.9C3.1 0.1 2.9 0.9 2.8 2C2.6 3.1 2.4 4.6 1.6 5.2C0.9 5.7 -0.5 5.3 -1.3 4.6C-2.2 3.8 -2.5 2.8 -3.4 1.7C-4.2 0.7 -5.4 -0.2 -5.8 -1.5C-6.2 -2.8 -5.6 -4.4 -4.5 -5.5C-3.4 -6.6 -1.7 -7.2 -0.2 -7C1.3 -6.8 2.7 -5.8 3.2 -4.6Z" fill="#1b1a1b"></path></g><g transform="translate(201 93)"><path d="M2.9 -2.5C4.4 -2.2 6.6 -1.9 7.3 -0.8C8 0.2 7.2 2 6 2.9C4.7 3.8 3.1 3.8 1.6 4.3C0.1 4.8 -1.2 5.8 -1.9 5.4C-2.6 5.1 -2.7 3.3 -2.8 2.1C-3 0.9 -3.1 0.1 -3.5 -1.1C-3.9 -2.4 -4.5 -4.3 -4 -4.7C-3.4 -5.1 -1.7 -4.1 -0.5 -3.5C0.7 -2.9 1.4 -2.7 2.9 -2.5Z" fill="#1b1a1b"></path></g><g transform="translate(357 499)"><path d="M2.4 -3.2C3.5 -2 4.9 -1.5 5.3 -0.7C5.8 0.1 5.2 1.4 4.7 3.3C4.3 5.1 4 7.5 2.8 8C1.7 8.5 -0.2 7.1 -2.3 6.3C-4.4 5.6 -6.8 5.4 -7.4 4.3C-8 3.2 -6.9 1.1 -6.5 -1.1C-6.1 -3.4 -6.4 -5.7 -5.5 -7C-4.5 -8.2 -2.3 -8.3 -0.8 -7.4C0.7 -6.5 1.3 -4.4 2.4 -3.2Z" fill="#1b1a1b"></path></g><g transform="translate(421 182)"><path d="M2.6 -3.1C3.4 -2.4 4 -1.6 4.3 -0.7C4.6 0.3 4.5 1.4 3.9 2.2C3.4 3 2.4 3.5 1.1 4.6C-0.1 5.6 -1.7 7.3 -3.2 7.4C-4.7 7.4 -6.1 5.9 -6.4 4.2C-6.7 2.6 -5.8 0.9 -5.3 -0.7C-4.7 -2.3 -4.5 -3.7 -3.7 -4.4C-2.8 -5.1 -1.4 -5.2 -0.3 -4.8C0.9 -4.5 1.8 -3.9 2.6 -3.1Z" fill="#1b1a1b"></path></g><g transform="translate(435 140)"><path d="M2.8 -3C3.8 -2.5 5 -1.8 5.5 -0.7C6 0.4 5.8 1.8 5.1 2.9C4.4 3.9 3.2 4.6 1.9 4.9C0.6 5.2 -0.7 5.2 -2 5C-3.3 4.7 -4.6 4.1 -4.8 3.1C-5 2.1 -4.1 0.8 -3.8 -0.7C-3.6 -2.1 -4 -3.7 -3.5 -4.2C-3 -4.8 -1.5 -4.2 -0.3 -3.9C0.9 -3.5 1.8 -3.4 2.8 -3Z" fill="#1b1a1b"></path></g><g transform="translate(503 288)"><path d="M1.5 -1.5C2.1 -1.2 2.9 -0.9 2.8 -0.6C2.8 -0.2 2 0.2 1.5 0.8C1.1 1.5 1.1 2.3 0.8 2.7C0.4 3 -0.3 3 -0.8 2.6C-1.2 2.2 -1.3 1.5 -1.6 1C-1.9 0.4 -2.3 0 -2.5 -0.7C-2.7 -1.4 -2.7 -2.2 -2.2 -2.6C-1.7 -2.9 -0.9 -2.6 -0.2 -2.4C0.4 -2.1 0.8 -1.8 1.5 -1.5Z" fill="#1b1a1b"></path></g><g transform="translate(862 129)"><path d="M0.2 -0.3C0.3 -0.2 0.3 -0.2 0.4 0C0.4 0.1 0.5 0.2 0.5 0.3C0.5 0.4 0.3 0.3 0.1 0.4C0 0.5 -0.1 0.6 -0.3 0.6C-0.5 0.7 -0.7 0.6 -0.8 0.4C-0.9 0.3 -0.9 0.1 -0.8 -0.1C-0.7 -0.2 -0.4 -0.2 -0.3 -0.3C-0.1 -0.3 -0.1 -0.4 0 -0.4C0.1 -0.4 0.2 -0.4 0.2 -0.3Z" fill="#1b1a1b"></path></g><g transform="translate(551 570)"><path d="M2.3 -2.3C3.1 -2 4 -1.5 3.9 -0.8C3.9 -0.2 3 0.5 2.3 1C1.6 1.5 1.2 1.9 0.5 2.7C-0.2 3.5 -1.2 4.7 -2.3 4.9C-3.5 5.2 -4.8 4.3 -5 3.2C-5.3 2.1 -4.5 0.7 -4.3 -0.8C-4.1 -2.3 -4.4 -4 -3.8 -4.3C-3.1 -4.6 -1.6 -3.5 -0.4 -3C0.7 -2.5 1.5 -2.6 2.3 -2.3Z" fill="#1b1a1b"></path></g><g transform="translate(384 274)"><path d="M2.1 -2.4C2.5 -2.1 2.7 -1.3 2.6 -0.7C2.4 0 2 0.5 1.8 1.1C1.5 1.7 1.3 2.4 0.9 2.8C0.4 3.2 -0.4 3.3 -1.1 3C-1.7 2.7 -2.2 2.1 -2.3 1.5C-2.4 0.9 -2.1 0.3 -2.1 -0.5C-2.2 -1.4 -2.6 -2.5 -2.3 -2.8C-2 -3.1 -1 -2.6 -0.1 -2.5C0.8 -2.4 1.6 -2.6 2.1 -2.4Z" fill="#1b1a1b"></path></g><g transform="translate(135 584)"><path d="M2.6 -3.2C3.1 -2.6 3.3 -1.6 3.2 -0.8C3.1 0.1 2.8 0.7 2.4 1.5C2.1 2.2 1.7 2.9 1.2 3C0.7 3.1 0 2.4 -0.9 2.2C-1.8 2 -3 2.2 -3.1 1.8C-3.3 1.5 -2.6 0.6 -2.1 0C-1.5 -0.6 -1.3 -0.9 -1 -1.7C-0.7 -2.4 -0.3 -3.5 0.3 -3.9C1 -4.3 2 -3.9 2.6 -3.2Z" fill="#1b1a1b"></path></g><g transform="translate(283 463)"><path d="M1 -1.4C1.3 -1 1.4 -0.6 1.4 -0.2C1.5 0.2 1.6 0.6 1.5 1C1.4 1.4 1.1 1.9 0.7 1.9C0.4 2 -0.1 1.8 -0.4 1.5C-0.6 1.2 -0.7 0.8 -0.7 0.5C-0.8 0.2 -0.9 0 -1 -0.3C-1.1 -0.7 -1.3 -1.3 -1.2 -1.7C-1 -2.1 -0.5 -2.3 -0.1 -2.2C0.4 -2.2 0.8 -1.8 1 -1.4Z" fill="#1b1a1b"></path></g><g transform="translate(276 352)"><path d="M2.6 -2.4C3.6 -2.3 4.7 -1.7 5 -0.8C5.3 0.1 4.8 1.3 4.1 2.2C3.4 3.1 2.5 3.8 1.7 3.7C0.9 3.5 0.1 2.7 -0.6 2.2C-1.3 1.7 -1.9 1.6 -2.5 1.2C-3 0.8 -3.5 0 -3.7 -0.9C-3.8 -1.9 -3.7 -3.1 -3 -3.3C-2.4 -3.5 -1.2 -2.7 -0.2 -2.5C0.8 -2.3 1.6 -2.6 2.6 -2.4Z" fill="#1b1a1b"></path></g><g transform="translate(104 505)"><path d="M4.9 -6.3C6.1 -4.8 6.8 -3 7.5 -1C8.2 1 8.9 3.2 8.1 4.9C7.4 6.6 5.3 7.6 3.2 8.1C1 8.7 -1.1 8.7 -3.2 8.2C-5.4 7.7 -7.6 6.7 -8.2 5C-8.8 3.4 -7.8 1.1 -7 -0.8C-6.1 -2.7 -5.5 -4.3 -4.4 -5.8C-3.2 -7.4 -1.6 -9.1 0.1 -9.2C1.8 -9.3 3.6 -7.9 4.9 -6.3Z" fill="#1b1a1b"></path></g><g transform="translate(807 281)"><path d="M0.9 -1.2C1.2 -0.8 1.6 -0.5 1.8 -0.1C2.1 0.2 2.3 0.8 2.1 1.3C2 1.9 1.5 2.3 1 2.3C0.5 2.3 0 1.9 -0.4 1.5C-0.7 1.2 -1 0.9 -1.2 0.6C-1.4 0.3 -1.6 0 -1.7 -0.4C-1.7 -0.8 -1.5 -1.2 -1.2 -1.6C-0.9 -2.1 -0.5 -2.5 -0.1 -2.4C0.3 -2.3 0.5 -1.6 0.9 -1.2Z" fill="#1b1a1b"></path></g><g transform="translate(677 408)"><path d="M1.5 -1.8C1.9 -1.5 2.1 -0.9 2 -0.5C1.9 -0.1 1.4 0.3 1.2 0.7C0.9 1.1 0.9 1.6 0.5 2.1C0.1 2.5 -0.5 2.9 -0.9 2.7C-1.2 2.4 -1.1 1.5 -1.5 0.9C-1.8 0.2 -2.5 -0.2 -2.5 -0.5C-2.5 -0.8 -1.8 -1 -1.2 -1.3C-0.7 -1.6 -0.4 -1.9 0.1 -2C0.6 -2.1 1.1 -2.1 1.5 -1.8Z" fill="#1b1a1b"></path></g><g transform="translate(309 161)"><path d="M4.3 -5.8C4.9 -4.5 4.5 -2.6 4.7 -0.9C5 0.9 6 2.5 5.7 3.6C5.4 4.7 3.8 5.3 2.4 5.3C1 5.3 -0.2 4.6 -1.3 4C-2.4 3.4 -3.3 3 -4.4 2.1C-5.4 1.2 -6.4 -0.1 -6.2 -1C-5.9 -2 -4.3 -2.6 -3 -3.7C-1.8 -4.9 -0.9 -6.5 0.5 -7.1C1.8 -7.6 3.6 -7 4.3 -5.8Z" fill="#1b1a1b"></path></g><g transform="translate(284 313)"><path d="M1.5 -1.7C1.9 -1.4 2.2 -0.9 2.4 -0.4C2.7 0.2 2.7 0.9 2.5 1.5C2.2 2.1 1.7 2.5 1 2.9C0.3 3.2 -0.6 3.5 -1.2 3.3C-1.8 3 -2.3 2.3 -2.6 1.6C-2.9 0.9 -3 0.2 -2.7 -0.3C-2.4 -0.7 -1.6 -0.9 -1.1 -1.1C-0.6 -1.3 -0.3 -1.5 0.1 -1.7C0.5 -1.8 1.1 -1.9 1.5 -1.7Z" fill="#1b1a1b"></path></g><g transform="translate(530 80)"><path d="M3.6 -4.6C4.4 -3.7 4.4 -2.2 4 -1.2C3.5 -0.2 2.6 0.4 2.1 1.1C1.5 1.7 1.3 2.4 0.9 2.7C0.5 2.9 -0.2 2.7 -1.2 2.7C-2.3 2.6 -3.6 2.7 -3.9 2.2C-4.3 1.7 -3.7 0.6 -3.3 -0.4C-2.9 -1.4 -2.8 -2.4 -2.3 -3.3C-1.8 -4.3 -0.9 -5.2 0.3 -5.5C1.4 -5.9 2.9 -5.5 3.6 -4.6Z" fill="#1b1a1b"></path></g><g transform="translate(573 305)"><path d="M5.2 -5.5C7 -4.7 8.9 -3.3 8.5 -2.1C8 -0.8 5.3 0.3 3.8 1.7C2.4 3 2.3 4.6 1.6 5.1C1 5.6 -0.3 5 -1.5 4.4C-2.7 3.9 -3.9 3.4 -4.6 2.5C-5.2 1.6 -5.4 0.3 -5.6 -1.5C-5.9 -3.3 -6.2 -5.6 -5.3 -6.5C-4.4 -7.3 -2.2 -6.8 -0.2 -6.6C1.7 -6.3 3.4 -6.2 5.2 -5.5Z" fill="#1b1a1b"></path></g><g transform="translate(489 589)"><path d="M0.6 -0.8C0.7 -0.6 0.8 -0.4 0.9 -0.1C1 0.2 1.2 0.5 1.1 0.8C1.1 1.1 0.8 1.4 0.5 1.5C0.2 1.6 -0.2 1.6 -0.6 1.5C-1 1.4 -1.3 1.2 -1.6 0.9C-1.8 0.5 -1.8 0.1 -1.7 -0.2C-1.5 -0.5 -1.1 -0.6 -0.7 -0.8C-0.4 -1 -0.2 -1.2 0 -1.2C0.2 -1.2 0.5 -1 0.6 -0.8Z" fill="#1b1a1b"></path></g><g transform="translate(207 47)"><path d="M4 -5C5.6 -3.3 7.8 -2.5 8.7 -1C9.6 0.5 9.1 2.7 7.7 3.7C6.2 4.6 3.8 4.2 2.2 3.9C0.5 3.7 -0.3 3.5 -1.5 3.4C-2.7 3.3 -4.3 3.3 -4.6 2.7C-5 2 -4.1 0.7 -4.1 -0.9C-4 -2.6 -4.8 -4.6 -4.2 -6.4C-3.7 -8.2 -1.8 -9.9 -0.3 -9.5C1.2 -9.1 2.3 -6.6 4 -5Z" fill="#1b1a1b"></path></g><g transform="translate(581 458)"><path d="M4 -4.8C4.7 -4.2 4.4 -2.5 4.3 -1C4.2 0.4 4.5 1.6 4.2 2.9C4 4.3 3.4 5.9 2.3 6.3C1.2 6.7 -0.3 5.9 -1.3 4.9C-2.3 4 -2.9 3 -3 2C-3.2 1.1 -3.1 0.3 -2.8 -0.4C-2.5 -1 -2.1 -1.5 -1.6 -2.1C-1.1 -2.8 -0.5 -3.6 0.6 -4.2C1.7 -4.9 3.3 -5.4 4 -4.8Z" fill="#1b1a1b"></path></g><g transform="translate(472 223)"><path d="M3.3 -3.8C4.6 -2.9 6.2 -2.1 6.8 -0.9C7.4 0.4 7 2.1 6 3.1C5 4.1 3.3 4.2 1.8 4.6C0.3 5 -0.9 5.6 -1.8 5.1C-2.6 4.7 -3 3.3 -4 2.1C-5 0.8 -6.6 -0.3 -6.8 -1.5C-7 -2.7 -5.7 -4 -4.3 -4.9C-2.9 -5.8 -1.5 -6.4 -0.2 -6.1C1 -5.8 2.1 -4.8 3.3 -3.8Z" fill="#1b1a1b"></path></g><g transform="translate(190 561)"><path d="M1.5 -1.6C2 -1.4 2.4 -1 2.3 -0.5C2.2 -0.1 1.7 0.3 1.3 0.7C1 1.2 0.9 1.7 0.6 2C0.3 2.3 -0.3 2.3 -0.7 2.1C-1.2 1.9 -1.6 1.5 -1.6 1.1C-1.6 0.7 -1.4 0.2 -1.3 -0.2C-1.2 -0.7 -1.4 -1.3 -1.2 -1.6C-1 -1.8 -0.5 -1.8 0 -1.8C0.5 -1.8 1 -1.8 1.5 -1.6Z" fill="#1b1a1b"></path></g><g transform="translate(538 22)"><path d="M1.9 -2.2C2.6 -1.8 3.1 -1.2 3.6 -0.3C4.2 0.6 4.7 1.8 4.4 2.7C4.1 3.6 2.9 4.2 1.8 4.3C0.8 4.3 -0.2 3.8 -1.6 3.6C-3 3.4 -4.8 3.6 -5.6 2.9C-6.4 2.2 -6.2 0.6 -6 -1.1C-5.8 -2.8 -5.6 -4.6 -4.6 -4.9C-3.6 -5.2 -1.8 -3.9 -0.6 -3.3C0.7 -2.6 1.3 -2.5 1.9 -2.2Z" fill="#1b1a1b"></path></g><g transform="translate(11 459)"><path d="M2.9 -3.3C3.4 -3 3.2 -1.8 3.2 -0.7C3.2 0.3 3.4 1.2 3 1.7C2.7 2.3 1.8 2.4 1 2.8C0.1 3.1 -0.7 3.6 -1.6 3.6C-2.5 3.6 -3.4 3.1 -3.9 2.2C-4.4 1.4 -4.5 0.3 -4.3 -0.8C-4.1 -1.8 -3.7 -2.8 -2.9 -3C-2.1 -3.2 -1.1 -2.7 0.1 -2.7C1.2 -2.8 2.4 -3.5 2.9 -3.3Z" fill="#1b1a1b"></path></g><g transform="translate(416 24)"><path d="M0.8 -0.7C1.2 -0.6 2 -0.5 2.1 -0.3C2.2 -0.1 1.7 0.3 1.4 0.7C1 1 0.8 1.4 0.5 1.5C0.2 1.6 -0.1 1.4 -0.5 1.3C-0.8 1.2 -1.2 1 -1.4 0.7C-1.7 0.5 -1.8 0.1 -1.9 -0.5C-2 -1 -1.9 -1.6 -1.6 -1.8C-1.3 -2 -0.6 -1.7 -0.2 -1.4C0.2 -1.1 0.3 -0.8 0.8 -0.7Z" fill="#1b1a1b"></path></g><g transform="translate(840 557)"><path d="M1.8 -2.2C2.1 -1.9 1.8 -1.1 1.9 -0.4C2 0.4 2.4 1 2.3 1.3C2.1 1.7 1.4 1.7 0.8 1.7C0.3 1.7 -0.1 1.5 -0.8 1.5C-1.5 1.6 -2.4 1.8 -2.9 1.4C-3.3 1.1 -3.3 0.3 -3.1 -0.6C-3 -1.4 -2.8 -2.2 -2.2 -2.5C-1.7 -2.7 -0.8 -2.4 0 -2.4C0.8 -2.4 1.5 -2.6 1.8 -2.2Z" fill="#1b1a1b"></path></g><g transform="translate(857 421)"><path d="M1.9 -2.3C2.7 -1.6 3.7 -1.2 3.7 -0.7C3.7 -0.3 2.6 0.3 2 0.8C1.3 1.3 1 1.6 0.6 2C0.1 2.3 -0.5 2.6 -1.2 2.6C-2 2.7 -2.9 2.4 -3.6 1.8C-4.3 1.1 -4.9 0.1 -4.8 -0.9C-4.6 -1.8 -3.8 -2.6 -2.9 -3.4C-1.9 -4.1 -1 -4.7 -0.2 -4.4C0.6 -4.2 1.1 -3.1 1.9 -2.3Z" fill="#1b1a1b"></path></g><g transform="translate(66 52)"><path d="M0.8 -0.9C1.1 -0.8 1.4 -0.5 1.5 -0.2C1.6 0.1 1.5 0.5 1.4 0.9C1.3 1.3 1.1 1.8 0.7 1.8C0.4 1.8 0.1 1.4 -0.2 1.1C-0.5 0.8 -0.7 0.6 -1.1 0.4C-1.5 0.2 -2.2 -0.2 -2.1 -0.4C-2.1 -0.5 -1.3 -0.6 -0.8 -0.6C-0.4 -0.7 -0.2 -0.8 0.1 -0.8C0.3 -0.9 0.6 -1 0.8 -0.9Z" fill="#1b1a1b"></path></g><g transform="translate(830 140)"><path d="M5.1 -5.6C6.6 -4.8 7.9 -3.2 8.1 -1.5C8.3 0.1 7.3 1.9 6 2.6C4.6 3.3 2.8 3 1.2 3.7C-0.4 4.5 -1.7 6.4 -3 6.6C-4.3 6.8 -5.6 5.4 -5.7 3.9C-5.8 2.4 -4.7 0.9 -3.9 -0.2C-3.1 -1.3 -2.6 -1.9 -2 -2.9C-1.4 -3.9 -0.7 -5.3 0.5 -6C1.8 -6.6 3.6 -6.5 5.1 -5.6Z" fill="#1b1a1b"></path></g><g transform="translate(670 214)"><path d="M1.7 -2.1C2.2 -1.6 2.7 -1.1 2.6 -0.6C2.6 0 2.1 0.4 1.7 0.8C1.2 1.1 0.9 1.2 0.4 1.5C-0.1 1.9 -0.6 2.5 -1 2.5C-1.4 2.4 -1.7 1.8 -1.9 1.2C-2.1 0.6 -2.1 0.1 -2 -0.3C-1.9 -0.7 -1.5 -1.1 -1.2 -1.6C-0.8 -2.2 -0.4 -2.9 0.1 -3.1C0.6 -3.2 1.2 -2.7 1.7 -2.1Z" fill="#1b1a1b"></path></g><g transform="translate(51 485)"><path d="M3 -3.8C3.5 -3.2 3.2 -1.9 3.1 -0.8C3 0.3 3.1 1.1 2.7 1.4C2.3 1.8 1.5 1.8 0.8 1.9C0.1 2 -0.4 2.3 -0.9 2.3C-1.5 2.2 -2 1.9 -2.4 1.3C-2.7 0.8 -2.8 0.2 -2.9 -0.8C-3 -1.7 -3.2 -2.8 -2.7 -3.4C-2.2 -4 -1.1 -4.2 0.1 -4.3C1.3 -4.4 2.6 -4.5 3 -3.8Z" fill="#1b1a1b"></path></g><g transform="translate(568 373)"><path d="M0.6 -0.7C0.7 -0.6 0.7 -0.3 0.8 -0.1C1 0.2 1.3 0.6 1.3 0.9C1.3 1.1 0.9 1.3 0.6 1.4C0.2 1.5 -0.1 1.4 -0.5 1.3C-0.9 1.2 -1.2 1.1 -1.4 0.8C-1.7 0.5 -1.7 0.1 -1.5 -0.1C-1.3 -0.3 -0.8 -0.4 -0.5 -0.5C-0.2 -0.6 -0.1 -0.8 0.1 -0.9C0.2 -0.9 0.5 -0.9 0.6 -0.7Z" fill="#1b1a1b"></path></g><g transform="translate(417 388)"><path d="M2.5 -2.8C3.5 -2.2 4.7 -1.6 5.9 -0.2C7.1 1.1 8.2 3.3 7.8 5C7.4 6.6 5.3 7.8 3.2 8.4C1.1 9 -1.1 8.9 -2.7 8C-4.3 7.1 -5.3 5.4 -6.6 3.6C-8 1.8 -9.6 -0.1 -9.9 -2.2C-10.1 -4.4 -8.9 -6.7 -7 -7.1C-5.1 -7.6 -2.5 -6 -0.9 -5C0.8 -3.9 1.6 -3.3 2.5 -2.8Z" fill="#1b1a1b"></path></g><g transform="translate(546 339)"><path d="M4.7 -5.8C5.9 -4.6 6.6 -2.9 6.4 -1.5C6.2 -0.1 5.1 1.1 4.3 2.4C3.5 3.8 3 5.3 1.8 6.2C0.7 7.1 -1.1 7.4 -2.2 6.7C-3.3 6 -3.9 4.3 -4.1 2.9C-4.2 1.5 -4.1 0.4 -3.9 -0.7C-3.7 -1.7 -3.4 -2.7 -2.7 -4C-2.1 -5.4 -1 -7.1 0.3 -7.5C1.7 -7.9 3.5 -7 4.7 -5.8Z" fill="#1b1a1b"></path></g><g transform="translate(892 282)"><path d="M1.1 -1C1.5 -0.9 2.1 -0.7 2.4 -0.3C2.6 0.2 2.6 0.8 2.2 1.1C1.8 1.3 1.1 1.2 0.6 1.2C0 1.3 -0.3 1.5 -0.8 1.6C-1.2 1.6 -1.8 1.5 -2.2 1.1C-2.5 0.8 -2.7 0.1 -2.4 -0.3C-2.2 -0.7 -1.6 -0.9 -1.1 -1C-0.6 -1.1 -0.3 -1.2 0 -1.2C0.3 -1.2 0.6 -1.2 1.1 -1Z" fill="#1b1a1b"></path></g><g transform="translate(761 531)"><path d="M3 -4.1C3.4 -3.3 2.8 -1.8 3.2 -0.4C3.6 1 5 2.3 5 3.3C4.9 4.4 3.5 5.1 2.2 5.2C0.8 5.4 -0.4 5 -1.3 4.4C-2.2 3.7 -2.8 2.8 -3.5 1.9C-4.2 0.9 -5.1 -0.1 -4.8 -0.8C-4.6 -1.4 -3.2 -1.8 -2.2 -2.6C-1.2 -3.3 -0.6 -4.4 0.3 -4.8C1.3 -5.2 2.6 -4.9 3 -4.1Z" fill="#1b1a1b"></path></g><g transform="translate(152 252)"><path d="M1.9 -2.2C2.5 -1.7 3.2 -1.2 3.4 -0.5C3.6 0.2 3.4 1 2.9 1.4C2.4 1.8 1.5 1.8 0.9 1.7C0.2 1.7 -0.2 1.7 -0.8 1.7C-1.3 1.6 -2.1 1.6 -2.3 1.3C-2.5 1 -2.2 0.3 -1.9 -0.1C-1.5 -0.5 -1.1 -0.7 -0.8 -1.3C-0.5 -1.8 -0.2 -2.8 0.2 -3.1C0.6 -3.3 1.2 -2.8 1.9 -2.2Z" fill="#1b1a1b"></path></g><g transform="translate(791 445)"><path d="M2 -1.9C2.8 -1.7 3.8 -1.3 3.9 -0.6C4.1 0 3.6 0.9 3.1 1.7C2.5 2.6 2.1 3.5 1.4 3.5C0.8 3.6 0 2.8 -0.5 2.3C-1 1.7 -1.2 1.2 -1.7 0.8C-2.2 0.3 -3 -0.2 -3 -0.7C-3.1 -1.1 -2.4 -1.6 -1.8 -1.8C-1.2 -1.9 -0.6 -1.7 0 -1.8C0.6 -1.8 1.2 -2 2 -1.9Z" fill="#1b1a1b"></path></g><g transform="translate(81 550)"><path d="M1.3 -1.6C1.7 -1.2 2 -0.8 2.1 -0.3C2.3 0.2 2.3 0.8 2.1 1.3C1.9 1.8 1.4 2.2 0.9 2.3C0.4 2.5 -0.2 2.2 -0.8 2C-1.4 1.8 -2 1.7 -2 1.3C-2 0.9 -1.4 0.4 -1.1 0C-0.8 -0.4 -0.8 -0.7 -0.7 -1.1C-0.5 -1.5 -0.3 -2.1 0.1 -2.3C0.5 -2.4 0.9 -2 1.3 -1.6Z" fill="#1b1a1b"></path></g><g transform="translate(487 159)"><path d="M2.2 -2.8C2.6 -2.3 2.6 -1.4 2.6 -0.6C2.7 0.2 2.8 1 2.5 1.4C2.2 1.9 1.5 2.2 0.9 2.3C0.3 2.5 -0.3 2.5 -1 2.4C-1.7 2.3 -2.4 2.1 -3 1.5C-3.7 1 -4.1 0.1 -3.9 -0.6C-3.8 -1.4 -2.9 -1.9 -2.1 -2.4C-1.4 -2.9 -0.7 -3.4 0.1 -3.5C0.9 -3.6 1.8 -3.4 2.2 -2.8Z" fill="#1b1a1b"></path></g><g transform="translate(372 116)"><path d="M2.8 -3.2C4.2 -2.3 6.1 -1.8 7.2 -0.5C8.3 0.8 8.6 3 7.5 3.7C6.3 4.3 3.6 3.5 1.6 4.2C-0.5 4.9 -1.9 7.1 -3 7.1C-4.1 7.2 -4.8 5.2 -4.9 3.6C-5 1.9 -4.4 0.6 -4.1 -0.6C-3.7 -1.8 -3.6 -3 -3 -4.1C-2.3 -5.2 -1.2 -6.2 -0.2 -6C0.7 -5.7 1.5 -4.2 2.8 -3.2Z" fill="#1b1a1b"></path></g><g transform="translate(521 485)"><path d="M3.4 -4.3C4.1 -3.5 4 -2.1 4 -0.9C4 0.3 4 1.3 3.7 2.5C3.5 3.7 2.9 5 1.8 5.6C0.8 6.2 -0.7 6.1 -2.1 5.6C-3.5 5.2 -4.9 4.4 -5.2 3.3C-5.4 2.2 -4.6 0.8 -3.9 -0.3C-3.3 -1.4 -2.9 -2.2 -2.3 -3C-1.7 -3.8 -0.8 -4.5 0.3 -4.8C1.4 -5.2 2.8 -5 3.4 -4.3Z" fill="#1b1a1b"></path></g><g transform="translate(837 353)"><path d="M0.5 -0.6C0.6 -0.5 0.5 -0.3 0.5 -0.1C0.5 0 0.5 0.2 0.4 0.2C0.4 0.3 0.3 0.3 0.1 0.4C0 0.4 -0.1 0.5 -0.2 0.5C-0.3 0.5 -0.4 0.4 -0.5 0.3C-0.6 0.1 -0.7 0 -0.7 -0.2C-0.7 -0.3 -0.6 -0.5 -0.5 -0.5C-0.4 -0.6 -0.2 -0.5 0 -0.5C0.2 -0.5 0.4 -0.7 0.5 -0.6Z" fill="#1b1a1b"></path></g><g transform="translate(738 360)"><path d="M5.4 -6.4C6.6 -5.4 6.9 -3.3 7.1 -1.4C7.2 0.5 7.2 2.3 6.5 3.9C5.8 5.6 4.4 6.9 2.9 7.3C1.3 7.6 -0.4 6.8 -1.9 5.9C-3.3 5.1 -4.5 4.2 -5.8 2.9C-7.1 1.6 -8.5 -0.1 -8.1 -1.3C-7.8 -2.6 -5.7 -3.4 -4 -4.4C-2.4 -5.4 -1.2 -6.5 0.4 -7C2.1 -7.6 4.2 -7.5 5.4 -6.4Z" fill="#1b1a1b"></path></g><g transform="translate(277 408)"><path d="M4 -4.6C5.2 -3.9 6 -2.5 5.6 -1.5C5.3 -0.4 3.7 0.5 2.8 1.2C1.9 1.9 1.5 2.6 0.9 2.9C0.4 3.2 -0.4 3.2 -1.3 3.1C-2.2 3 -3.2 2.7 -3.6 2.1C-3.9 1.5 -3.4 0.5 -3 -0.2C-2.5 -0.9 -1.9 -1.3 -1.4 -2.1C-0.9 -3 -0.5 -4.3 0.5 -4.9C1.4 -5.5 2.9 -5.3 4 -4.6Z" fill="#1b1a1b"></path></g><g transform="translate(786 400)"><path d="M2 -3.4C2.5 -1.9 2.7 -1.2 3.9 0.1C5.1 1.4 7.1 3.3 6.8 4.1C6.6 4.9 4 4.4 2.2 4.3C0.4 4.1 -0.6 4.3 -1.3 3.9C-2 3.5 -2.4 2.5 -3.8 1.5C-5.2 0.5 -7.7 -0.7 -7.9 -1.7C-8 -2.7 -5.8 -3.5 -4.1 -4.8C-2.4 -6.1 -1.2 -7.9 -0.2 -7.6C0.7 -7.3 1.5 -5 2 -3.4Z" fill="#1b1a1b"></path></g><g transform="translate(785 122)"><path d="M3.8 -4.7C4.5 -3.9 4.4 -2.4 4.7 -0.8C4.9 0.7 5.6 2.1 5.2 3.2C4.8 4.3 3.4 5 1.9 5.9C0.3 6.8 -1.5 7.9 -3.2 7.7C-4.8 7.5 -6.4 6.1 -6.9 4.4C-7.3 2.7 -6.6 0.8 -5.7 -0.4C-4.8 -1.7 -3.6 -2.3 -2.7 -3C-1.7 -3.7 -0.8 -4.5 0.4 -4.9C1.5 -5.3 3.1 -5.4 3.8 -4.7Z" fill="#1b1a1b"></path></g><g transform="translate(591 349)"><path d="M3.1 -3.4C4.1 -2.9 4.9 -2 4.8 -1.1C4.6 -0.2 3.6 0.6 2.9 1.4C2.1 2.2 1.7 3 1.1 3.4C0.4 3.9 -0.6 4 -1.5 3.8C-2.5 3.6 -3.6 3.1 -4 2.3C-4.5 1.5 -4.4 0.4 -3.9 -0.4C-3.5 -1.3 -2.7 -1.8 -2 -2.2C-1.3 -2.7 -0.6 -3.2 0.2 -3.4C1.1 -3.7 2.2 -3.8 3.1 -3.4Z" fill="#1b1a1b"></path></g><g transform="translate(890 333)"><path d="M3.2 -3.6C3.8 -3.3 3.7 -2 3.3 -1.1C2.9 -0.1 2.2 0.4 1.9 1.2C1.5 2 1.5 3.1 1 3.7C0.5 4.3 -0.5 4.3 -1.4 4C-2.4 3.6 -3.2 3 -3.4 2.2C-3.6 1.4 -3.3 0.4 -2.9 -0.3C-2.5 -0.9 -2 -1.3 -1.5 -1.6C-1 -1.8 -0.5 -1.8 0.4 -2.3C1.3 -2.8 2.6 -3.8 3.2 -3.6Z" fill="#1b1a1b"></path></g><g transform="translate(718 256)"><path d="M2.7 -2.5C4.1 -2.2 6 -1.8 6.4 -0.9C6.8 -0.1 5.6 1.2 4.9 3.2C4.2 5.1 3.9 7.6 2.9 8C1.9 8.4 0 6.7 -1.5 5.5C-3 4.3 -4.1 3.7 -5.3 2.6C-6.5 1.5 -7.7 0 -7.8 -1.8C-8 -3.6 -7.2 -5.6 -5.7 -5.9C-4.3 -6.2 -2.1 -4.7 -0.7 -3.8C0.7 -3 1.4 -2.8 2.7 -2.5Z" fill="#1b1a1b"></path></g><g transform="translate(16 251)"><path d="M5.1 -5.3C6.8 -4.6 8.7 -3.2 9.5 -1.3C10.3 0.7 10.2 3.2 8.6 4.1C7 4.9 4.1 4.1 2.1 4C0.2 3.9 -0.8 4.5 -1.5 4.2C-2.2 4 -2.6 2.9 -3.8 1.7C-5 0.6 -7 -0.5 -7.4 -1.8C-7.7 -3.1 -6.5 -4.7 -5 -5.5C-3.5 -6.2 -1.7 -6.2 0 -6.1C1.7 -6.1 3.3 -6 5.1 -5.3Z" fill="#1b1a1b"></path></g><g transform="translate(786 179)"><path d="M1.5 -1.7C2.1 -1.4 2.7 -1 2.7 -0.5C2.7 -0.1 2.1 0.4 1.9 1.4C1.7 2.4 1.8 3.9 1.3 4.3C0.9 4.8 -0.2 4.2 -1.1 3.6C-2 3.1 -2.7 2.5 -2.8 1.9C-2.8 1.2 -2.2 0.5 -2 -0.3C-1.9 -1.1 -2.1 -2 -1.8 -2.3C-1.6 -2.7 -0.8 -2.7 -0.1 -2.5C0.5 -2.3 1 -2.1 1.5 -1.7Z" fill="#1b1a1b"></path></g><g transform="translate(647 478)"><path d="M3 -3.7C3.5 -3.1 3.3 -1.8 3 -0.9C2.7 0 2.2 0.5 2 1.4C1.8 2.3 1.8 3.6 1.2 4.2C0.6 4.7 -0.5 4.6 -1.6 4.3C-2.8 4 -3.9 3.5 -4.2 2.6C-4.4 1.8 -3.7 0.6 -3.2 -0.2C-2.6 -1.1 -2.2 -1.6 -1.7 -2.2C-1.2 -2.8 -0.6 -3.5 0.3 -3.8C1.2 -4.2 2.4 -4.3 3 -3.7Z" fill="#1b1a1b"></path></g><g transform="translate(64 328)"><path d="M0.3 -0.2C0.4 -0.2 0.6 -0.2 0.7 -0.1C0.7 0 0.5 0.1 0.4 0.2C0.3 0.3 0.2 0.3 0.1 0.4C0.1 0.4 0 0.3 -0.1 0.3C-0.2 0.3 -0.3 0.3 -0.4 0.2C-0.4 0.1 -0.5 0 -0.4 -0.1C-0.4 -0.2 -0.3 -0.2 -0.3 -0.3C-0.2 -0.4 -0.1 -0.4 0 -0.4C0.1 -0.4 0.1 -0.3 0.3 -0.2Z" fill="#1b1a1b"></path></g><g transform="translate(610 500)"><path d="M4.3 -5.5C5.3 -4.2 5.7 -2.7 6 -1.1C6.3 0.5 6.3 2.1 5.7 3.5C5.2 4.9 3.9 6.1 2.4 6.9C0.8 7.6 -1.1 7.9 -3.2 7.6C-5.3 7.3 -7.6 6.5 -8.6 4.9C-9.6 3.3 -9.3 0.9 -8.7 -1.4C-8.2 -3.6 -7.3 -5.7 -5.8 -6.9C-4.3 -8.1 -2.2 -8.5 -0.3 -8.1C1.6 -7.8 3.2 -6.8 4.3 -5.5Z" fill="#1b1a1b"></path></g><g transform="translate(121 170)"><path d="M2.1 -3C2.6 -2.1 2.8 -1.3 2.7 -0.6C2.7 0.1 2.4 0.6 2.2 1.6C2.1 2.6 2 4 1.5 4.2C1 4.5 0 3.6 -0.8 3C-1.6 2.4 -2.3 2 -2.8 1.5C-3.2 0.9 -3.6 0.1 -3.3 -0.5C-3.1 -1.1 -2.3 -1.4 -1.7 -2.3C-1 -3.2 -0.5 -4.6 0.1 -4.7C0.8 -4.9 1.6 -3.9 2.1 -3Z" fill="#1b1a1b"></path></g><g transform="translate(646 298)"><path d="M2.8 -3.5C3.2 -2.9 3.1 -1.7 3.4 -0.5C3.7 0.7 4.4 1.8 4.2 2.5C3.9 3.2 2.6 3.5 1.5 3.8C0.3 4 -0.7 4.4 -1.6 4.1C-2.5 3.9 -3.3 3.1 -3.7 2.2C-4.1 1.3 -4.1 0.3 -3.6 -0.4C-3.2 -1 -2.3 -1.3 -1.6 -2C-0.9 -2.6 -0.5 -3.5 0.3 -3.9C1.1 -4.3 2.3 -4.2 2.8 -3.5Z" fill="#1b1a1b"></path></g><g transform="translate(559 274)"><path d="M1.8 -1.7C2.6 -1.5 3.6 -1.2 3.7 -0.6C3.8 -0.1 3 0.6 2.5 1.3C1.9 2.1 1.6 2.9 1 3.4C0.4 3.9 -0.6 4.1 -1.4 3.8C-2.2 3.5 -2.8 2.8 -3.2 1.9C-3.5 1.1 -3.6 0.2 -3.6 -0.7C-3.5 -1.7 -3.4 -2.7 -2.7 -3C-2.1 -3.2 -1.1 -2.7 -0.3 -2.3C0.5 -2 1 -1.9 1.8 -1.7Z" fill="#1b1a1b"></path></g><g transform="translate(690 536)"><path d="M0.5 -0.6C0.7 -0.4 0.8 -0.3 1 -0.1C1.2 0.2 1.3 0.5 1.1 0.6C1 0.7 0.6 0.6 0.3 0.6C0 0.7 -0.2 0.9 -0.5 1C-0.7 1 -1 0.9 -1.2 0.7C-1.3 0.5 -1.2 0.1 -1.1 -0.2C-1.1 -0.5 -1 -0.8 -0.8 -1C-0.6 -1.2 -0.3 -1.3 -0.1 -1.2C0.2 -1.1 0.3 -0.8 0.5 -0.6Z" fill="#1b1a1b"></path></g><g transform="translate(127 557)"><path d="M2.4 -3C3.6 -1.9 5.2 -1.6 6.4 -0.3C7.6 1 8.5 3.2 8 5.1C7.5 7 5.6 8.6 3.6 8.7C1.7 8.9 -0.3 7.6 -1.8 6.4C-3.2 5.2 -4.1 4.1 -4.3 2.9C-4.5 1.7 -4 0.6 -4.3 -1.2C-4.5 -3 -5.6 -5.5 -5 -6.6C-4.4 -7.7 -2.2 -7.6 -0.8 -6.7C0.7 -5.7 1.3 -4 2.4 -3Z" fill="#1b1a1b"></path></g><g transform="translate(618 441)"><path d="M4 -4.4C5 -3.9 5.6 -2.5 5.6 -1.2C5.5 0.1 4.8 1.2 4.1 2.3C3.4 3.3 2.7 4.3 1.8 4.4C0.9 4.4 0 3.6 -1 3.1C-2 2.6 -3.1 2.5 -3.4 1.9C-3.7 1.4 -3.4 0.4 -3.5 -1C-3.7 -2.4 -4.4 -4.3 -3.9 -4.9C-3.4 -5.6 -1.7 -5 -0.1 -4.9C1.5 -4.7 2.9 -5 4 -4.4Z" fill="#1b1a1b"></path></g><g transform="translate(516 375)"><path d="M1.7 -2.3C1.9 -1.8 1.7 -1 2 -0.2C2.3 0.6 3.1 1.4 2.9 1.7C2.8 2.1 1.7 1.9 0.8 2.2C-0.1 2.6 -0.9 3.5 -1.2 3.3C-1.5 3.1 -1.4 2 -1.7 1.1C-1.9 0.3 -2.5 -0.1 -2.6 -0.6C-2.7 -1.2 -2.4 -1.8 -1.8 -2.2C-1.3 -2.7 -0.7 -3 0 -3C0.7 -3.1 1.4 -2.8 1.7 -2.3Z" fill="#1b1a1b"></path></g><g transform="translate(505 73)"><path d="M2.1 -2.3C2.7 -2.1 2.9 -1.3 2.8 -0.7C2.7 0 2.2 0.5 1.8 0.9C1.4 1.4 1.1 1.9 0.7 2C0.3 2.2 -0.2 2 -0.7 1.8C-1.3 1.7 -1.8 1.5 -2 1.2C-2.1 0.8 -1.8 0.3 -1.7 -0.3C-1.6 -0.9 -1.7 -1.5 -1.5 -1.7C-1.2 -1.9 -0.6 -1.7 0.1 -1.8C0.8 -2 1.6 -2.4 2.1 -2.3Z" fill="#1b1a1b"></path></g><g transform="translate(701 102)"><path d="M3 -4C4.3 -2.5 6 -1.9 6.4 -0.9C6.9 0.1 6.1 1.6 5.1 2.7C4.2 3.9 3.1 4.7 1.9 5.1C0.7 5.5 -0.6 5.3 -1.4 4.7C-2.2 4 -2.5 2.8 -3.2 1.8C-3.8 0.7 -4.9 -0.2 -5.6 -1.8C-6.2 -3.4 -6.5 -5.7 -5.5 -7.2C-4.5 -8.8 -2.3 -9.5 -0.7 -8.6C0.9 -7.8 1.7 -5.4 3 -4Z" fill="#1b1a1b"></path></g><g transform="translate(243 487)"><path d="M1.8 -2.3C2.3 -1.9 2.4 -1.1 2.2 -0.6C2 -0.1 1.4 0.2 1.2 0.7C0.9 1.3 1 2 0.6 2.4C0.3 2.8 -0.4 2.9 -0.9 2.7C-1.5 2.5 -1.9 1.9 -2.2 1.3C-2.5 0.7 -2.7 0.1 -2.5 -0.3C-2.3 -0.7 -1.6 -0.9 -1.1 -1.3C-0.6 -1.7 -0.3 -2.3 0.2 -2.5C0.7 -2.8 1.4 -2.7 1.8 -2.3Z" fill="#1b1a1b"></path></g><g transform="translate(549 428)"><path d="M0.4 -0.5C0.5 -0.4 0.4 -0.2 0.4 -0.1C0.4 0 0.3 0.1 0.3 0.2C0.3 0.3 0.3 0.5 0.2 0.6C0.1 0.7 -0.1 0.7 -0.2 0.6C-0.3 0.5 -0.3 0.4 -0.4 0.2C-0.5 0.1 -0.7 0 -0.7 -0.2C-0.7 -0.3 -0.6 -0.5 -0.5 -0.5C-0.4 -0.5 -0.2 -0.4 0 -0.4C0.2 -0.4 0.3 -0.5 0.4 -0.5Z" fill="#1b1a1b"></path></g><g transform="translate(94 73)"><path d="M2.3 -2.9C2.9 -2.2 3.2 -1.4 3.7 -0.4C4.2 0.7 4.9 1.9 4.4 2.4C3.9 2.8 2.3 2.3 1.1 2.7C-0.2 3.1 -1.1 4.2 -1.5 4.1C-1.9 3.9 -1.9 2.5 -2 1.5C-2.2 0.5 -2.6 0 -2.8 -0.8C-3.1 -1.7 -3.3 -2.9 -2.8 -3.5C-2.3 -4.2 -1.1 -4.4 -0.1 -4.2C0.8 -4 1.7 -3.5 2.3 -2.9Z" fill="#1b1a1b"></path></g><g transform="translate(216 569)"><path d="M2.8 -3.1C3.5 -2.7 3.9 -1.7 4.1 -0.7C4.2 0.3 4.1 1.3 3.7 2.3C3.3 3.2 2.5 4.1 1.5 4.6C0.5 5.1 -0.8 5.3 -1.4 4.7C-2 4.1 -1.9 2.6 -2.1 1.6C-2.3 0.5 -2.8 0 -3.1 -0.9C-3.4 -1.9 -3.6 -3.2 -3.1 -3.6C-2.5 -4 -1.3 -3.4 -0.1 -3.3C1 -3.1 2.1 -3.4 2.8 -3.1Z" fill="#1b1a1b"></path></g><g transform="translate(640 563)"><path d="M0.6 -0.6C0.8 -0.5 1 -0.4 1.2 -0.1C1.3 0.1 1.4 0.5 1.3 0.8C1.2 1.1 0.9 1.3 0.6 1.3C0.2 1.4 -0.1 1.2 -0.4 1.1C-0.6 0.9 -0.9 0.8 -1.1 0.5C-1.3 0.3 -1.6 0 -1.5 -0.3C-1.5 -0.5 -1.2 -0.8 -0.9 -0.9C-0.5 -1 -0.3 -1 0 -1C0.2 -0.9 0.4 -0.8 0.6 -0.6Z" fill="#1b1a1b"></path></g><g transform="translate(817 406)"><path d="M2.8 -3.3C3.7 -2.5 4.7 -1.7 5 -0.8C5.3 0.2 5 1.5 4.4 2.6C3.8 3.8 3 4.8 2.1 4.7C1.2 4.6 0.2 3.3 -0.9 2.7C-2 2.2 -3.2 2.4 -3.7 2C-4.1 1.6 -3.6 0.5 -3.1 -0.2C-2.6 -1 -2.1 -1.4 -1.6 -2.3C-1 -3.2 -0.5 -4.6 0.2 -4.8C0.9 -5.1 1.8 -4.2 2.8 -3.3Z" fill="#1b1a1b"></path></g><g transform="translate(242 242)"><path d="M1.3 -1.5C1.7 -1.2 2.1 -0.8 2.1 -0.5C2 -0.1 1.4 0.2 1.1 0.4C0.7 0.6 0.5 0.7 0.2 1C-0.1 1.2 -0.4 1.7 -0.9 1.8C-1.4 1.9 -2 1.7 -2.3 1.3C-2.6 0.8 -2.7 0.2 -2.5 -0.4C-2.3 -0.9 -1.9 -1.4 -1.5 -1.7C-1 -2 -0.5 -2.2 0 -2.1C0.4 -2.1 0.9 -1.8 1.3 -1.5Z" fill="#1b1a1b"></path></g><g transform="translate(520 211)"><path d="M3.5 -3.7C4.4 -3.4 5 -2.2 5.3 -0.9C5.6 0.4 5.7 1.8 5 2.9C4.4 4 3.2 4.8 2.1 5C0.9 5.1 -0.3 4.6 -1.4 4.1C-2.5 3.6 -3.5 3.1 -4.2 2.3C-4.9 1.4 -5.3 0.2 -5.1 -0.8C-4.8 -1.9 -3.9 -2.8 -3 -3.1C-2 -3.4 -1 -3.2 0.1 -3.4C1.3 -3.5 2.5 -4 3.5 -3.7Z" fill="#1b1a1b"></path></g><g transform="translate(210 19)"><path d="M1.8 -2.4C2.2 -1.8 2.4 -1.1 2.9 -0.2C3.4 0.7 4.4 1.9 4.1 2.3C3.8 2.8 2.3 2.5 1.2 2.4C0.2 2.4 -0.4 2.5 -1.4 2.7C-2.4 2.8 -3.7 2.9 -4.3 2.3C-4.9 1.7 -4.7 0.5 -4.3 -0.6C-4 -1.6 -3.4 -2.5 -2.6 -3C-1.9 -3.6 -0.9 -3.8 -0.1 -3.6C0.7 -3.5 1.4 -3 1.8 -2.4Z" fill="#1b1a1b"></path></g><g transform="translate(189 257)"><path d="M4.4 -5.8C5.7 -4.2 6.8 -2.8 7.6 -1C8.3 0.8 8.8 3.1 7.9 4.6C7 6 4.9 6.7 2.9 7C0.9 7.3 -0.8 7.2 -2.6 6.7C-4.4 6.3 -6.2 5.5 -7.6 4C-9 2.5 -9.9 0.3 -9.3 -1.4C-8.8 -3.1 -6.7 -4.4 -4.9 -5.9C-3.2 -7.4 -1.6 -9.2 0 -9.2C1.5 -9.2 3.1 -7.4 4.4 -5.8Z" fill="#1b1a1b"></path></g><g transform="translate(790 501)"><path d="M1.1 -1.2C1.5 -0.9 2 -0.7 2 -0.4C2.1 -0.1 1.6 0.3 1.3 0.6C0.9 0.8 0.7 1 0.4 1.1C0.1 1.2 -0.2 1.3 -0.8 1.4C-1.4 1.5 -2.4 1.7 -2.8 1.4C-3.3 1.1 -3.2 0.3 -3 -0.5C-2.9 -1.3 -2.7 -2.1 -2.1 -2.4C-1.6 -2.6 -0.8 -2.4 -0.2 -2.1C0.3 -1.8 0.6 -1.5 1.1 -1.2Z" fill="#1b1a1b"></path></g><g transform="translate(105 21)"><path d="M1.1 -1.6C1.5 -1.1 1.8 -0.7 2.2 -0.1C2.6 0.4 3.1 1.2 2.8 1.7C2.6 2.1 1.7 2.1 0.9 2.4C0.1 2.6 -0.6 3.1 -1.4 3.1C-2.1 3.1 -2.9 2.6 -3.4 1.9C-4 1.2 -4.1 0.2 -3.9 -0.6C-3.6 -1.4 -2.9 -2 -2.2 -2.5C-1.5 -3 -0.7 -3.3 -0.2 -3.1C0.4 -2.9 0.8 -2.1 1.1 -1.6Z" fill="#1b1a1b"></path></g><g transform="translate(582 398)"><path d="M3.1 -3.2C3.8 -3.1 4.1 -1.9 4.1 -0.9C4.1 0.2 3.9 1.2 3.4 1.8C2.9 2.5 2 2.8 1.1 3.3C0.2 3.7 -0.8 4.3 -1.2 3.9C-1.7 3.5 -1.5 2.2 -1.9 1.3C-2.2 0.3 -3 -0.2 -3.1 -0.7C-3.2 -1.2 -2.6 -1.8 -2 -2C-1.4 -2.1 -0.7 -1.9 0.3 -2.2C1.2 -2.5 2.4 -3.3 3.1 -3.2Z" fill="#1b1a1b"></path></g><g transform="translate(465 534)"><path d="M4.6 -5.5C5.8 -4.4 6.7 -2.9 6.9 -1.3C7.1 0.3 6.5 1.9 5.7 3.3C4.9 4.7 3.8 6 2.5 6.3C1.2 6.5 -0.3 5.8 -1.5 5C-2.7 4.2 -3.7 3.4 -4.1 2.5C-4.6 1.5 -4.6 0.3 -4.6 -0.9C-4.5 -2.2 -4.3 -3.6 -3.5 -4.8C-2.8 -5.9 -1.4 -6.9 0.1 -7.1C1.6 -7.2 3.3 -6.6 4.6 -5.5Z" fill="#1b1a1b"></path></g><g transform="translate(696 501)"><path d="M1.2 -1.2C1.7 -1 2.3 -0.8 2.9 -0.2C3.4 0.5 3.8 1.4 3.4 1.9C3 2.3 1.9 2.1 1 2.3C0 2.5 -0.7 3.1 -1.2 3C-1.7 2.9 -2 2.1 -2.5 1.4C-2.9 0.6 -3.6 0 -3.4 -0.6C-3.3 -1.1 -2.5 -1.5 -1.8 -1.7C-1.1 -1.9 -0.5 -1.8 -0.1 -1.7C0.3 -1.5 0.7 -1.4 1.2 -1.2Z" fill="#1b1a1b"></path></g><g transform="translate(495 499)"><path d="M1.3 -1.5C1.8 -1.2 2.3 -0.8 2.3 -0.4C2.4 0 2.1 0.6 1.9 1.1C1.6 1.6 1.3 2.2 0.8 2.4C0.4 2.6 -0.3 2.5 -0.7 2.3C-1.2 2 -1.5 1.5 -1.6 1C-1.8 0.6 -1.9 0.1 -1.8 -0.4C-1.8 -0.9 -1.7 -1.4 -1.4 -1.7C-1.1 -2 -0.5 -2.2 0 -2.1C0.4 -2.1 0.9 -1.8 1.3 -1.5Z" fill="#1b1a1b"></path></g><g transform="translate(12 318)"><path d="M6 -7C7.2 -6.2 7.2 -3.7 7.7 -1.3C8.1 1.1 9.1 3.5 8.1 4.2C7.1 4.9 4.1 4.1 2.2 3.8C0.3 3.5 -0.6 3.7 -1.5 3.6C-2.4 3.5 -3.3 3 -4.5 2C-5.6 1.1 -7.1 -0.2 -7.6 -2.1C-8.2 -4.1 -8 -6.6 -6.5 -7.4C-5.1 -8.1 -2.6 -7.1 -0.1 -7C2.4 -6.9 4.9 -7.8 6 -7Z" fill="#1b1a1b"></path></g><g transform="translate(223 540)"><path d="M3.1 -3.5C3.9 -3 4.5 -1.9 4.4 -1C4.3 0 3.6 0.8 3 1.6C2.4 2.5 1.9 3.2 1.3 3.3C0.7 3.4 0 2.8 -0.9 2.4C-1.7 2.1 -2.6 2 -2.8 1.6C-3 1.2 -2.5 0.4 -2.1 -0.1C-1.8 -0.7 -1.4 -1 -1.1 -1.5C-0.7 -2.1 -0.4 -2.8 0.4 -3.3C1.1 -3.8 2.3 -3.9 3.1 -3.5Z" fill="#1b1a1b"></path></g><g transform="translate(315 424)"><path d="M1.1 -1.3C1.3 -1.1 1.5 -0.7 1.5 -0.3C1.4 0 1.3 0.3 1.1 0.6C0.9 0.9 0.7 1.2 0.4 1.4C0.1 1.6 -0.3 1.7 -0.5 1.5C-0.6 1.3 -0.6 0.8 -0.6 0.5C-0.6 0.2 -0.7 0 -0.7 -0.2C-0.8 -0.5 -0.9 -0.8 -0.8 -1.1C-0.6 -1.3 -0.3 -1.5 0 -1.5C0.4 -1.6 0.8 -1.5 1.1 -1.3Z" fill="#1b1a1b"></path></g><g transform="translate(449 269)"><path d="M1.4 -2.1C2.1 -1.2 2.9 -0.9 3.1 -0.4C3.4 0.1 3.1 0.9 2.6 1.4C2.2 1.8 1.5 2.1 0.9 2.2C0.3 2.2 -0.2 2.2 -1.2 2.3C-2.2 2.4 -3.7 2.7 -4.7 2.2C-5.6 1.6 -6 0.3 -5.4 -0.7C-4.9 -1.6 -3.5 -2 -2.4 -2.8C-1.4 -3.6 -0.7 -4.7 -0.1 -4.6C0.4 -4.4 0.8 -2.9 1.4 -2.1Z" fill="#1b1a1b"></path></g><g transform="translate(407 205)"><path d="M3.2 -4.8C3.9 -3.2 4.1 -2 4.2 -0.8C4.4 0.4 4.6 1.6 4.2 2.4C3.7 3.1 2.5 3.4 1.3 4.1C0 4.8 -1.3 5.9 -2.2 5.7C-3.1 5.5 -3.5 3.9 -4.2 2.5C-4.8 1.2 -5.6 0 -5.5 -1C-5.4 -2 -4.3 -2.9 -3.2 -4.4C-2.1 -5.9 -1.1 -8 0.1 -8.2C1.3 -8.3 2.5 -6.4 3.2 -4.8Z" fill="#1b1a1b"></path></g><g transform="translate(668 185)"><path d="M2.1 -2.5C2.9 -1.8 3.7 -1.3 4.2 -0.5C4.7 0.4 4.8 1.6 4.2 2.4C3.7 3.2 2.6 3.6 1.5 3.9C0.4 4.2 -0.6 4.4 -1.5 4.1C-2.3 3.8 -2.9 2.9 -3.1 2C-3.4 1.1 -3.4 0.3 -3.2 -0.6C-3.1 -1.5 -2.9 -2.4 -2.4 -3.1C-1.8 -3.7 -0.9 -4.2 -0.1 -4C0.7 -3.9 1.3 -3.1 2.1 -2.5Z" fill="#1b1a1b"></path></g><g transform="translate(792 245)"><path d="M0.3 -0.3C0.4 -0.2 0.7 -0.2 0.8 -0.1C0.9 0 0.8 0.2 0.7 0.3C0.5 0.4 0.3 0.4 0.2 0.5C0 0.5 -0.1 0.6 -0.2 0.6C-0.4 0.6 -0.5 0.4 -0.5 0.3C-0.5 0.2 -0.5 0.1 -0.5 -0.1C-0.5 -0.2 -0.4 -0.4 -0.4 -0.5C-0.3 -0.7 -0.1 -0.8 0 -0.8C0.1 -0.7 0.1 -0.5 0.3 -0.3Z" fill="#1b1a1b"></path></g><g transform="translate(196 355)"><path d="M4.8 -5.7C6.5 -4.2 8.6 -3 9.1 -1.4C9.7 0.3 8.7 2.4 7.5 4C6.2 5.7 4.5 6.8 3 6.7C1.4 6.6 0 5.3 -1.8 4.7C-3.5 4.1 -5.6 4.3 -6.4 3.4C-7.1 2.6 -6.6 0.8 -6.4 -1.2C-6.1 -3.2 -6.2 -5.3 -5.2 -6.9C-4.1 -8.5 -2.1 -9.5 -0.3 -9.2C1.5 -8.9 3 -7.1 4.8 -5.7Z" fill="#1b1a1b"></path></g><g transform="translate(202 292)"><path d="M1.1 -1C1.7 -0.8 2.7 -0.7 2.8 -0.4C3 -0.1 2.3 0.4 1.8 0.9C1.4 1.5 1.2 2 0.8 2.2C0.4 2.4 -0.1 2.1 -0.5 1.8C-0.8 1.5 -0.9 1 -1.2 0.6C-1.5 0.3 -2 -0.1 -2.1 -0.5C-2.1 -0.9 -1.8 -1.3 -1.4 -1.5C-0.9 -1.7 -0.5 -1.7 -0.1 -1.6C0.2 -1.4 0.5 -1.1 1.1 -1Z" fill="#1b1a1b"></path></g><g transform="translate(358 588)"><path d="M2.6 -2.8C3.4 -2.5 4.1 -1.7 4 -0.9C3.9 -0.1 3.1 0.6 2.5 1.3C1.9 2.1 1.6 2.9 1 3.3C0.4 3.8 -0.5 3.9 -1.3 3.6C-2.2 3.3 -3 2.7 -3.1 2C-3.3 1.3 -2.8 0.4 -2.5 -0.2C-2.1 -0.9 -1.8 -1.4 -1.4 -1.8C-1 -2.2 -0.5 -2.5 0.2 -2.7C0.9 -2.9 1.8 -3.1 2.6 -2.8Z" fill="#1b1a1b"></path></g><g transform="translate(725 226)"><path d="M1.2 -1.3C1.6 -1.2 1.9 -0.8 2.1 -0.3C2.3 0.2 2.4 0.8 2.2 1.3C2 1.9 1.5 2.3 0.9 2.7C0.2 3.1 -0.6 3.4 -1.3 3.2C-2 3.1 -2.7 2.5 -3 1.8C-3.4 1.1 -3.5 0.2 -3.2 -0.4C-2.9 -1 -2.1 -1.3 -1.5 -1.4C-0.9 -1.5 -0.5 -1.3 0 -1.3C0.4 -1.3 0.9 -1.4 1.2 -1.3Z" fill="#1b1a1b"></path></g><g transform="translate(73 150)"><path d="M2.4 -2.8C3.4 -1.9 5 -1.5 5.6 -0.6C6.2 0.3 5.9 1.8 5.2 2.9C4.5 4.1 3.3 4.9 2 5.3C0.7 5.7 -0.7 5.6 -1.6 5C-2.6 4.4 -3.1 3.3 -3.8 2.2C-4.4 1.1 -5.1 0 -4.7 -0.6C-4.3 -1.3 -3 -1.6 -2 -2.5C-1 -3.5 -0.5 -5.1 0.1 -5.2C0.6 -5.3 1.3 -3.8 2.4 -2.8Z" fill="#1b1a1b"></path></g><g transform="translate(97 366)"><path d="M1.4 -1.7C1.7 -1.4 1.7 -0.9 1.7 -0.4C1.8 0.2 1.8 0.6 1.6 0.9C1.4 1.2 1 1.4 0.6 1.4C0.2 1.5 -0.2 1.5 -0.5 1.4C-0.8 1.2 -1 1 -1.5 0.6C-2.1 0.2 -3 -0.2 -3.1 -0.7C-3.1 -1.1 -2.3 -1.5 -1.7 -1.7C-1 -1.9 -0.5 -2.1 0 -2.1C0.6 -2.1 1.1 -2.1 1.4 -1.7Z" fill="#1b1a1b"></path></g><g transform="translate(885 39)"><path d="M0.5 -0.6C0.7 -0.4 1.1 -0.3 1.3 -0.1C1.5 0.1 1.5 0.5 1.3 0.7C1.2 0.9 0.8 0.9 0.4 1C0.1 1 -0.2 1.1 -0.4 1C-0.6 0.9 -0.7 0.7 -0.9 0.5C-1 0.3 -1.1 0 -1.1 -0.3C-1.2 -0.6 -1.2 -1 -1 -1.3C-0.8 -1.5 -0.4 -1.5 -0.1 -1.4C0.1 -1.2 0.3 -0.8 0.5 -0.6Z" fill="#1b1a1b"></path></g><g transform="translate(38 161)"><path d="M1.1 -1.3C1.4 -1.1 1.4 -0.7 1.5 -0.3C1.5 0.1 1.5 0.5 1.3 0.7C1.1 0.9 0.7 0.9 0.4 1C0 1.1 -0.3 1.4 -0.4 1.3C-0.6 1.2 -0.6 0.8 -0.8 0.4C-1 0.1 -1.3 -0.1 -1.4 -0.4C-1.5 -0.7 -1.4 -1.1 -1.1 -1.3C-0.8 -1.5 -0.4 -1.6 0 -1.6C0.4 -1.6 0.8 -1.6 1.1 -1.3Z" fill="#1b1a1b"></path></g><g transform="translate(241 442)"><path d="M2.5 -2.7C3.3 -2.3 4.1 -1.6 4.5 -0.6C4.8 0.4 4.8 1.6 4.1 2.1C3.5 2.6 2.2 2.5 1.1 2.6C0.1 2.8 -0.6 3.2 -1.4 3.2C-2.1 3.2 -3 2.7 -3.1 2C-3.2 1.3 -2.6 0.5 -2.3 -0.3C-2 -1.1 -2.1 -1.8 -1.8 -2.3C-1.4 -2.8 -0.7 -3 0.1 -3.1C0.8 -3.1 1.7 -3.1 2.5 -2.7Z" fill="#1b1a1b"></path></g><g transform="translate(769 150)"><path d="M3.1 -3.4C3.9 -3 4.3 -1.9 4.2 -0.9C4.2 0 3.6 0.9 2.9 1.3C2.2 1.7 1.4 1.6 0.8 1.6C0.1 1.7 -0.3 1.8 -0.7 1.8C-1.2 1.7 -1.7 1.5 -2.4 1C-3.1 0.5 -4 -0.2 -3.9 -0.7C-3.8 -1.1 -2.6 -1.4 -1.7 -1.8C-0.9 -2.2 -0.5 -2.7 0.3 -3.1C1.1 -3.6 2.3 -3.8 3.1 -3.4Z" fill="#1b1a1b"></path></g><g transform="translate(112 298)"><path d="M0.4 -0.6C0.6 -0.4 0.7 -0.3 0.7 -0.1C0.8 0.1 0.8 0.3 0.7 0.4C0.7 0.6 0.4 0.6 0.3 0.6C0.1 0.6 -0.1 0.6 -0.2 0.6C-0.4 0.5 -0.5 0.4 -0.5 0.3C-0.5 0.2 -0.4 0.1 -0.4 -0.1C-0.4 -0.2 -0.4 -0.4 -0.3 -0.5C-0.3 -0.7 -0.1 -0.8 0 -0.8C0.2 -0.8 0.3 -0.7 0.4 -0.6Z" fill="#1b1a1b"></path></g><g transform="translate(664 443)"><path d="M5.3 -7C6.6 -5.2 7.2 -3.3 6.7 -1.8C6.3 -0.3 4.7 0.8 3.9 2.3C3.1 3.8 3 5.8 2.1 6.5C1.2 7.2 -0.5 6.5 -2.4 6.1C-4.4 5.6 -6.6 5.4 -7.8 4.1C-9 2.8 -9.2 0.6 -8.3 -1C-7.5 -2.6 -5.6 -3.5 -4 -5.1C-2.4 -6.8 -1.2 -9.3 0.4 -9.8C2 -10.2 4 -8.7 5.3 -7Z" fill="#1b1a1b"></path></g><g transform="translate(422 462)"><path d="M1.3 -1.8C1.6 -1.4 1.4 -0.8 1.5 -0.3C1.6 0.3 1.9 0.8 1.8 1C1.6 1.2 1 1.2 0.6 1.2C0.2 1.1 -0.1 1 -0.4 0.9C-0.8 0.9 -1.3 1 -1.4 0.8C-1.5 0.6 -1.3 0.2 -1.1 -0.1C-1 -0.5 -0.9 -0.7 -0.7 -1.2C-0.6 -1.6 -0.3 -2.2 0.1 -2.4C0.6 -2.6 1.1 -2.3 1.3 -1.8Z" fill="#1b1a1b"></path></g><g transform="translate(544 50)"><path d="M5.3 -6.2C6.3 -5.5 6.3 -3.3 6.2 -1.5C6 0.4 5.8 1.8 5 2.6C4.2 3.4 2.8 3.5 1.5 3.9C0.2 4.2 -0.9 4.8 -2 4.7C-3.1 4.6 -4.2 3.9 -5.6 2.7C-6.9 1.5 -8.5 -0.2 -8 -1.1C-7.4 -2 -4.7 -2.2 -3 -2.8C-1.3 -3.4 -0.7 -4.5 0.7 -5.4C2.1 -6.3 4.3 -7 5.3 -6.2Z" fill="#1b1a1b"></path></g><g transform="translate(159 438)"><path d="M3.2 -4.8C3.7 -3.4 3.2 -2 3.8 -0.5C4.3 1.1 5.8 2.6 5.6 3.4C5.4 4.3 3.5 4.4 1.8 5.1C0.1 5.8 -1.5 7.1 -2.5 6.8C-3.6 6.5 -4.1 4.6 -4.7 3C-5.2 1.4 -5.8 0.1 -5.8 -1.2C-5.7 -2.5 -5.1 -4 -4.1 -5.2C-3 -6.5 -1.5 -7.6 -0.1 -7.5C1.4 -7.4 2.7 -6.2 3.2 -4.8Z" fill="#1b1a1b"></path></g><g transform="translate(218 152)"><path d="M2.1 -2.4C2.9 -1.8 4 -1.3 4.1 -0.7C4.2 -0.1 3.3 0.6 2.8 1.6C2.2 2.6 2 3.8 1.4 4.1C0.8 4.3 -0.2 3.7 -0.9 3.2C-1.7 2.6 -2.4 2.2 -2.5 1.6C-2.6 1 -2.2 0.4 -2 -0.2C-1.7 -0.8 -1.7 -1.4 -1.4 -2.1C-1.1 -2.8 -0.5 -3.6 0 -3.7C0.6 -3.7 1.2 -3 2.1 -2.4Z" fill="#1b1a1b"></path></g><g transform="translate(781 369)"><path d="M0.7 -1.1C0.9 -0.7 1 -0.5 1.3 -0.1C1.5 0.3 1.9 0.8 1.9 1.2C1.8 1.6 1.3 1.9 0.8 2.1C0.2 2.3 -0.4 2.4 -0.6 2.2C-0.9 1.9 -0.8 1.1 -0.9 0.7C-1 0.2 -1.2 0 -1.4 -0.4C-1.5 -0.8 -1.6 -1.4 -1.3 -1.7C-1.1 -2.1 -0.5 -2.3 -0.1 -2.1C0.3 -2 0.6 -1.5 0.7 -1.1Z" fill="#1b1a1b"></path></g><g transform="translate(633 410)"><path d="M4.8 -5.1C6.2 -4.6 7.2 -3 7.1 -1.6C6.9 -0.1 5.7 1.2 4.5 1.8C3.2 2.5 2 2.4 1.1 2.6C0.1 2.7 -0.6 3.3 -2 3.6C-3.3 3.9 -5.3 4.1 -5.9 3.3C-6.6 2.5 -5.9 0.8 -5 -0.3C-4.1 -1.4 -3.1 -1.9 -2.2 -2.5C-1.3 -3 -0.7 -3.7 0.5 -4.3C1.7 -4.9 3.4 -5.6 4.8 -5.1Z" fill="#1b1a1b"></path></g><g transform="translate(763 573)"><path d="M2.1 -2.1C2.7 -2 3.2 -1.3 3.3 -0.6C3.4 0.1 3.1 0.8 2.6 1.3C2.1 1.8 1.5 2.1 0.9 2.1C0.4 2.1 -0.1 1.9 -0.9 1.9C-1.7 1.8 -2.9 2.1 -3.5 1.7C-4 1.3 -4.1 0.3 -3.8 -0.6C-3.6 -1.5 -3 -2.2 -2.4 -2.4C-1.7 -2.5 -0.8 -2.1 -0.1 -2C0.7 -1.9 1.5 -2.3 2.1 -2.1Z" fill="#1b1a1b"></path></g><g transform="translate(473 435)"><path d="M1 -1.3C1.1 -1 1 -0.6 0.9 -0.3C0.8 0 0.7 0.2 0.6 0.3C0.5 0.5 0.4 0.6 0.2 0.6C0.1 0.6 0 0.6 -0.2 0.6C-0.4 0.5 -0.7 0.5 -0.9 0.4C-1.1 0.3 -1.3 0 -1.3 -0.3C-1.3 -0.5 -1.1 -0.8 -0.8 -1.1C-0.6 -1.3 -0.3 -1.6 0.1 -1.7C0.4 -1.7 0.8 -1.6 1 -1.3Z" fill="#1b1a1b"></path></g><g transform="translate(4 599)"><path d="M0.4 -0.6C0.6 -0.3 0.9 -0.3 1.1 -0.1C1.2 0.1 1.2 0.4 1.1 0.5C0.9 0.7 0.6 0.6 0.3 0.8C-0.1 0.9 -0.3 1.3 -0.6 1.3C-0.9 1.3 -1.1 1.1 -1.2 0.8C-1.3 0.5 -1.2 0.1 -1.2 -0.2C-1.2 -0.6 -1.1 -1 -0.9 -1.2C-0.8 -1.4 -0.4 -1.5 -0.1 -1.3C0.1 -1.1 0.2 -0.8 0.4 -0.6Z" fill="#1b1a1b"></path></g><g transform="translate(138 30)"><path d="M0.7 -0.9C0.9 -0.6 1.2 -0.4 1.4 -0.1C1.6 0.2 1.7 0.6 1.6 1.1C1.5 1.6 1.2 2.1 0.8 2.1C0.4 2.2 -0.1 1.9 -0.4 1.6C-0.7 1.2 -0.8 0.9 -1 0.6C-1.2 0.2 -1.6 -0.1 -1.7 -0.4C-1.8 -0.8 -1.6 -1.3 -1.3 -1.6C-1 -1.8 -0.5 -1.9 -0.1 -1.7C0.2 -1.6 0.4 -1.2 0.7 -0.9Z" fill="#1b1a1b"></path></g><g transform="translate(363 163)"><path d="M0.3 -0.4C0.5 -0.3 0.6 -0.2 0.6 -0.1C0.7 0 0.7 0.2 0.6 0.3C0.5 0.5 0.4 0.6 0.3 0.6C0.1 0.5 0 0.4 -0.1 0.3C-0.3 0.3 -0.5 0.3 -0.6 0.3C-0.7 0.2 -0.8 0 -0.8 -0.1C-0.7 -0.2 -0.5 -0.3 -0.4 -0.4C-0.2 -0.4 -0.1 -0.4 0 -0.4C0.1 -0.4 0.2 -0.4 0.3 -0.4Z" fill="#1b1a1b"></path></g><g transform="translate(677 26)"><path d="M3 -3.4C3.8 -3 4.2 -1.9 3.9 -1.1C3.5 -0.2 2.6 0.4 2.1 1.3C1.7 2.3 1.7 3.6 1.3 3.8C0.9 4 0.1 3.1 -1 2.7C-2 2.3 -3.2 2.4 -3.8 1.9C-4.5 1.4 -4.6 0.3 -4.4 -0.8C-4.2 -1.9 -3.8 -2.9 -3 -3.3C-2.2 -3.7 -1.1 -3.4 0 -3.4C1.1 -3.4 2.3 -3.7 3 -3.4Z" fill="#1b1a1b"></path></g><g transform="translate(501 259)"><path d="M3.6 -4.1C4.3 -3.8 4.2 -2.2 4 -1.1C3.8 0.1 3.4 0.9 3.1 2.3C2.9 3.6 2.8 5.5 1.9 6.3C1 7.1 -0.7 6.7 -2.1 6.1C-3.5 5.4 -4.7 4.4 -5 3.2C-5.4 2 -4.9 0.6 -4.8 -1C-4.6 -2.5 -4.9 -4.3 -4.1 -4.6C-3.4 -4.9 -1.7 -3.8 -0.1 -3.6C1.5 -3.5 3 -4.4 3.6 -4.1Z" fill="#1b1a1b"></path></g><g transform="translate(306 295)"><path d="M2.5 -3.2C2.9 -2.7 2.6 -1.5 2.7 -0.6C2.8 0.4 3.2 1.3 3.1 2.2C3.1 3.2 2.5 4.2 1.4 5.1C0.4 5.9 -1.1 6.6 -2.2 6.2C-3.2 5.7 -3.8 4.1 -4.1 2.8C-4.5 1.4 -4.6 0.3 -4.2 -0.5C-3.7 -1.2 -2.7 -1.6 -1.9 -2.1C-1.1 -2.6 -0.6 -3.3 0.2 -3.6C1.1 -3.9 2.1 -3.8 2.5 -3.2Z" fill="#1b1a1b"></path></g><g transform="translate(560 79)"><path d="M2.5 -3C3.8 -1.8 5.9 -1.6 6.2 -0.9C6.5 -0.2 5.1 0.9 4.2 2.4C3.3 3.9 3 5.6 2.3 5.7C1.5 5.8 0.3 4.2 -1 3.4C-2.2 2.6 -3.5 2.7 -4.6 2.1C-5.7 1.4 -6.5 0.1 -6.1 -0.9C-5.7 -1.8 -4 -2.2 -2.7 -3.4C-1.5 -4.7 -0.7 -6.7 -0.1 -6.5C0.6 -6.4 1.1 -4.2 2.5 -3Z" fill="#1b1a1b"></path></g><g transform="translate(366 539)"><path d="M2.7 -3C3.3 -2.7 3.5 -1.7 3.5 -0.7C3.6 0.3 3.6 1.1 3.1 1.7C2.7 2.3 1.8 2.5 1 2.8C0.2 3.2 -0.7 3.6 -1.1 3.4C-1.5 3.1 -1.6 2 -1.6 1.3C-1.7 0.5 -1.8 0.1 -1.7 -0.3C-1.6 -0.6 -1.3 -0.9 -1 -1.2C-0.7 -1.6 -0.3 -1.9 0.4 -2.4C1.1 -2.8 2.1 -3.3 2.7 -3Z" fill="#1b1a1b"></path></g><g transform="translate(783 594)"><path d="M3.5 -3.9C4.6 -3.3 5.5 -2.2 5.8 -1C6 0.3 5.7 1.7 4.9 2.7C4.2 3.7 3 4.4 2 4.3C1 4.1 0.1 3.1 -0.6 2.5C-1.4 1.9 -2 1.7 -2.8 1.2C-3.6 0.7 -4.7 -0.2 -4.7 -0.9C-4.6 -1.6 -3.5 -2.2 -2.5 -2.9C-1.6 -3.5 -0.8 -4.3 0.2 -4.5C1.2 -4.8 2.4 -4.6 3.5 -3.9Z" fill="#1b1a1b"></path></g><g transform="translate(518 520)"><path d="M1.1 -1.3C1.5 -1 1.8 -0.7 1.9 -0.4C1.9 0 1.5 0.3 1.3 0.7C1 1 0.8 1.3 0.5 1.4C0.2 1.5 -0.1 1.3 -0.5 1.2C-1 1.2 -1.5 1.2 -1.6 1C-1.7 0.7 -1.3 0.3 -1.2 -0.3C-1.2 -0.8 -1.5 -1.4 -1.3 -1.8C-1.2 -2.1 -0.6 -2.1 -0.1 -2C0.4 -1.9 0.7 -1.6 1.1 -1.3Z" fill="#1b1a1b"></path></g></g></svg>