<svg enable-background="new 0 0 512.082 512.082" height="512" viewBox="0 0 512.082 512.082" width="512" xmlns="http://www.w3.org/2000/svg"><path d="m398.038 231.645 17.161-29.724c9.923-17.187 4.034-39.164-13.153-49.087-9.921-5.728-18.176-4.529-17.963-4.818-.016-.534-.01 2.289-.01-43.7 0-8.837-7.147-15.971-15.971-15.971-35.285 0-63.883 28.598-63.883 63.883v19.963c0-19.846-16.088-35.934-35.934-35.934s-35.934 16.088-35.934 35.934v15.971c0-19.846-16.088-35.934-35.934-35.934s-35.934 16.088-35.934 35.934c0 31.907.091 31.561-.01 31.556-.208-19.667-16.208-35.548-35.924-35.548-18.432 0-33.72 13.913-35.71 31.953-.382-.019-.225-8.924-.225 175.667 0 61.742 50.052 111.795 111.795 111.795h111.795c61.743 0 111.795-50.053 111.795-111.795.001-75.92-11.499-110.97-25.961-160.145z" fill="#f9cfac"/><path d="m304.61 297.896c-3.29 1.858-2.782 1.905-.41-.39.13.13.27.26.41.39z"/><g fill="#ffe4cc"><path d="m424 391.786c0 34.92-16 66.1-41.08 86.6-14.21 6.55-30.04 10.2-46.71 10.2h-111.8c-61.74 0-111.79-50.05-111.79-111.8v-34.26c21.579 5.07 43.869-4.032 55.81-22.8 24.075 15.501 56.382 8.447 71.86-15.97 6.289 4.047 13.766 6.896 21.84 7.84-23.95 26.09-37.78 60.55-37.78 97.18 0 4.42 3.58 8 8 8s8-3.58 8-8c0-40.72 19.24-78.42 51.25-102.35 3.86-1.94 7.45-4.36 10.68-7.17 2.316-2.001 1.727-1.92 2.33-1.36 21.165 19.904 54.529 18.474 74.04-3.02 4.78-5.227 4.64-5.675 25.63-42.03 16.24 55.321 19.72 91.899 19.72 138.94z"/><path d="m160.48 220.106v71.87c0 17.27-12.19 31.7-28.43 35.15-16.24-3.45-28.43-17.88-28.43-35.15v-101.09c23.768-17.069 56.86.089 56.86 29.22z"/><path d="m384.07 104.316v27.7c-18.49.01-35.73 9.96-44.97 25.97l-18.88 32.7v-80.74c11.7-13.25 28.82-21.6 47.88-21.6 8.829 0 15.97 7.132 15.97 15.97z"/><path d="m232.35 188.166v87.84c0 17.09-11.94 31.4-27.93 35.03-16-3.63-27.94-17.94-27.94-35.03v-117.74c23.633-15.838 55.87 1.121 55.87 29.9z"/><path d="m304.22 172.196v46.2s5.155 51.325-9.77 66.25c-4.8 5.11-11.09 8.82-18.16 10.43-16-3.64-27.94-17.95-27.94-35.04v-117.74c23.388-15.674 55.87.838 55.87 29.9z"/><path d="m322.193 291.145c17.139 9.895 39.137 4.082 49.087-13.153l43.919-76.071c9.923-17.187 4.034-39.164-13.153-49.087-17.139-9.895-39.137-4.082-49.087 13.153l-43.919 76.071c-9.923 17.187-4.034 39.164 13.153 49.087z"/></g><path d="m406.681 232.674 15.446-26.752c15.266-26.44-.441-59.689-30.054-65.188v-36.417c0-13.22-10.682-23.971-23.971-23.971-35.232 0-64.604 25.485-70.701 58.985-22.992-20.395-59.404-11.452-70.26 17.469-27.078-26.531-72.988-8.399-74.61 29.461-26.104-21.621-66.114-6.599-71.383 27.015-.336.884-.529 1.839-.529 2.84 0 192.201-.584 181.59 1.499 194.65.692 4.341 4.767 7.334 9.16 6.641 4.363-.695 7.336-4.797 6.641-9.16-1.723-10.811-1.3-11.241-1.3-82.384 23.096 19.066 58.412 9.907 69.073-18.497 22.687 22.228 60.709 13.758 71.868-15.971 6.375 6.246 14.635 10.572 23.841 12.027-23.49 25.998-37.051 60.109-37.051 96.353 0 4.418 3.582 8 8 8s8-3.582 8-8c0-46.6 25.214-89.244 65.918-111.798 19.534 23.738 56.72 20.374 71.937-5.984l17.426-30.182c13.472 45.791 20.369 79.57 20.369 139.975 0 57.235-46.56 103.8-103.79 103.8h-111.8c-29.648 0-57.945-12.728-77.636-34.92-2.932-3.304-7.988-3.606-11.294-.675-3.305 2.933-3.606 7.989-.675 11.294 22.725 25.611 55.385 40.301 89.604 40.301h111.8c66.053 0 119.79-53.742 119.79-119.8.001-71.464-9.592-105.653-25.318-159.112zm-94.461-80.445c0-30.813 25.069-55.883 55.883-55.883 4.415 0 7.971 3.55 7.971 7.971v36.449c-12.991 2.427-23.688 10.216-30.041 21.222l-33.813 58.562c0-9.684 0-58.611 0-68.321zm-159.737 139.743c0 15.403-12.531 27.935-27.934 27.935-15.339 0-27.825-12.428-27.93-27.742v-72.253c.104-15.314 12.591-27.741 27.93-27.741 15.402 0 27.934 12.531 27.934 27.934zm71.869-15.971c0 15.403-12.531 27.935-27.934 27.935s-27.935-12.531-27.935-27.935c0-8.848 0-73.702 0-87.839 0-15.402 12.531-27.934 27.935-27.934 15.402 0 27.934 12.531 27.934 27.934zm16-15.97c0-9.825 0-77.07 0-87.839 0-15.402 12.531-27.934 27.935-27.934 15.402 0 27.934 12.531 27.934 27.934v87.839c0 15.403-12.531 27.935-27.934 27.935-15.404-.001-27.935-12.532-27.935-27.935zm124 13.961c-7.702 13.337-24.82 17.924-38.159 10.224v.001c-13.339-7.702-17.926-24.819-10.225-38.159l43.921-76.07c7.718-13.369 24.785-17.946 38.157-10.225 13.37 7.719 17.945 24.786 10.226 38.158z"/><path d="m106.905 436.902c-4.803-10.114-19.306-3.184-14.431 6.91 4.852 10.133 19.406 3.482 14.431-6.91z"/><path d="m510.284 141.286c2.366-3.01 1.716-.293 1.716-60.94 0-4.418-3.582-8-8-8s-8 3.582-8 8v29.928c-111.932-146.756-368.938-146.424-480 1.321v-31.249c0-4.418-3.582-8-8-8s-8 3.582-8 8v56c0 4.418 3.582 8 8 8h56c4.418 0 8-3.582 8-8s-3.582-8-8-8h-40.367c102.593-149.153 362.936-149.452 465.735 0h-41.368c-4.418 0-8 3.582-8 8s3.582 8 8 8c60.312 0 56.403.135 57.923-.243 1.658-.406 3.226-1.371 4.361-2.817z" fill="#ef6767"/></svg>