<svg enable-background="new 0 0 512.011 512.011" height="512" viewBox="0 0 512.011 512.011" width="512" xmlns="http://www.w3.org/2000/svg"><path d="m504 275.176c0 21.601-.737 39.814-10.96 64.48-7.16 17.3-17.7 33.2-31.2 46.7l-55.45 55.45c-19.24 19.25-45.35 30.06-72.57 30.06h-180.44c-85.268 0-153.146-73.186-145.07-160.85 3.5-39.26 36.48-70.04 76.66-70.04h78.85c32.33 0 64.03 8.87 91.66 25.65 19.947 12.134 42.839 20.585 67.49 24 23.732 3.267 41.103 24.111 41.16 47.52 0 25.561-20.506 48.21-48.18 48.21h24.96l53.81-53.8c15.23-15.25 23.76-35.902 23.76-57.38 0-23.61 19.15-42.75 42.76-42.75 23.718 0 42.76 19.234 42.76 42.75z" fill="#f9cfac"/><path d="m503.64 269.616c-2.349 33.911-16.789 66.73-41.8 91.74l-55.45 55.45c-19.24 19.25-45.35 30.06-72.57 30.06h-180.44c-77.001 0-140.16-59.885-145.07-135.85 3.5-39.26 36.48-70.04 76.66-70.04h78.85c32.33 0 64.03 8.87 91.66 25.65 19.947 12.134 42.839 20.585 67.49 24 16.747 2.306 31.115 13.599 37.61 29.59-.811 0-.58-1.209-.58 8 0 22.57-18.14 40.93-40.43 40.93h-111.83c-4.42 0-8 3.58-8 8s3.58 8 8 8c130.915 1.415 98.754 1.21 133.17 1.21 58.742-58.742 63.449-60.945 71.39-80.13 4.04-9.75 6.18-20.29 6.18-31.05 0-23.61 19.15-42.75 42.76-42.75 21.74 0 39.68 16.21 42.4 37.19z" fill="#ffe4cc"/><path d="m461.24 224.426c-27.788 0-50.76 22.46-50.76 50.75 0 19.017-7.436 37.723-21.416 51.723l-17.25 17.247c3.118-29.565-17.771-57.316-47.746-61.443-18.783-2.603-36.231-8.226-51.819-15.972-3.958-1.964-8.758-.351-10.724 3.605-1.966 3.957-.352 8.759 3.605 10.725 17.8 8.842 36.96 14.748 56.748 17.49 19.951 2.748 34.251 20.37 34.251 39.665 0 22.133-18.024 40.14-40.18 40.14h-111.259c-4.418 0-8 3.582-8 8s3.582 8 8 8h136.22c2.122 0 4.156-.843 5.656-2.343l53.814-53.804c16.545-16.57 26.099-39.149 26.099-63.033 0-18.939 15.301-34.75 34.76-34.75 19.167 0 34.76 15.589 34.76 34.75v9.39c0 35.503-13.905 70.222-39.817 96.133l-55.451 55.452c-17.863 17.872-41.626 27.715-66.912 27.715h-180.439c-75.941 0-137.38-61.428-137.38-137.38v-8.55c0-38.024 30.94-68.96 68.97-68.96 81.009 0 93.907-1.667 121.091 5.384 4.279 1.106 8.643-1.459 9.752-5.735 1.109-4.277-1.458-8.644-5.735-9.753-28.713-7.447-40.498-5.896-125.108-5.896-46.853 0-84.97 38.113-84.97 84.96v8.55c0 84.785 68.583 153.38 153.38 153.38h180.44c29.561 0 57.343-11.508 78.227-32.402l55.45-55.45c28.057-28.058 44.503-66.49 44.503-107.448v-9.39c0-27.983-22.771-50.75-50.76-50.75z"/><path d="m234.021 264.289c3.531 1.605 4.528 2.429 6.924 2.429 8.448 0 11.109-11.46 3.534-15.182-1.272-.626-2.556-1.23-3.839-1.813-4.022-1.829-8.765-.05-10.593 3.974-1.828 4.022-.049 8.764 3.974 10.592z"/><path d="m505.563 207.991c3.214-.638 5.666-3.168 6.282-6.281.229-1.154.155 1.782.155-57.564 0-4.418-3.582-8-8-8s-8 3.582-8 8v36.686l-132.686-132.686h36.686c4.418 0 8-3.582 8-8s-3.582-8-8-8h-56c-4.418 0-8 3.582-8 8v56c0 4.418 3.582 8 8 8s8-3.582 8-8v-36.686l132.686 132.686h-36.686c-4.418 0-8 3.582-8 8s3.582 8 8 8c60.573 0 56.422.07 57.563-.155z" fill="#ef6767"/></svg>