<svg enable-background="new 0 0 512.008 512.008" height="512" viewBox="0 0 512.008 512.008" width="512" xmlns="http://www.w3.org/2000/svg"><path d="m503.984 100.97c0 20.516-16.662 36.842-36.84 36.83l-32.94.01c-.126 20.392-16.667 36.618-36.82 36.63h-35.51c1.727 22.063-15.563 39.94-36.71 39.95l-53.18 1.61-11.53 41.31c-4.52 16.86 13.61 30.76 28.71 22.03l77.97-45.07c23.265-13.44 50.435-17.593 79.74-9.93 30.784 8.259 33.691 48.561 8.04 63.37l-236.43 136.5c-40.435 23.351-88.7 29.86-134.31 17.52-54.92-14.87-87.37-71.49-72.64-126.45l26.53-99c11.226-42.61 47.438-75.56 99.99-75.56 12.23-23.729 36.97-39.95 65.51-39.94h6.06c12.77-21.91 36.52-36.64 63.7-36.64l193.82.01c20.35 0 36.83 16.49 36.84 36.82z" fill="#f9cfac"/><g fill="#ffe4cc"><path d="m503.984 100.97c0 20.452-16.606 36.842-36.84 36.83-18.802.011-16.93.1-16.93-.19.021-29.133-23.563-52.84-52.82-52.84l-175.19.01c13.25-12.78 31.27-20.64 51.12-20.64l193.82.01c20.35-.01 36.83 16.49 36.84 36.82z"/><path d="m432.954 147.16c-4.21 15.72-18.54 27.27-35.57 27.28h-19.48c-1.314-23.245-17.786-42.222-39.03-47.92-9.506-2.569.513-1.8-189.67-1.8 13.47-14.72 32.83-23.95 54.36-23.94 9.714 0 186.143-.009 193.83-.01 24.244 0 41.834 23.024 35.56 46.39z"/><path d="m470.714 246.81c-2.54 8.37-8.18 15.5-15.8 19.9l-236.43 136.5c-25.361 14.646-53.206 22.323-80.66 23.49-12.96-.55-25.93-2.53-38.65-5.98-42.4-11.479-71.41-47.83-75.65-89.11 1.182-11.463.491-6.817 29.54-115.33 12.403-47.081 53.143-75.56 96.73-75.56 191.3 0 178.309-.53 184.93 1.25 15.779 4.233 27.28 18.604 27.28 35.58-.01 20.35-16.49 36.83-36.84 36.84-204.393 0-188.139-.069-194.63.09-3.04.46-5.66 2.66-6.51 5.83-5.741 21.458-5.038 18.781-13.56 50.59 8.53 2.29 17.3-2.78 19.59-11.31l7.83-29.21c46.24 0 68.068.01 129.78.01-4.178 15.598-4.517 16.866-7.21 26.92-4.29 16.01 11.84 29.35 26.4 23.18 1.618-.665-2.887 1.853 80.28-46.22 23.666-13.679 51.811-17.392 78.25-10.32 13.487 3.527 21.836 12.122 25.33 22.86z"/></g><path d="m117.574 214.43-2.04.05c.67-.11 1.35-.13 2.04-.05z" fill="#f9cfac"/><path d="m467.155 56.147c-.213 0-193.134-.007-193.83-.007-27.304 0-53.025 13.856-68.129 36.636-32.091 0-57.601 15.922-71.862 39.974-48.04.651-90.088 33.265-102.567 79.824l-26.96 100.635c-15.853 59.152 19.263 120.266 78.275 136.232 47.369 12.838 97.816 6.29 140.402-18.303l65.39-37.75c3.826-2.209 5.138-7.103 2.929-10.929-2.21-3.825-7.101-5.137-10.929-2.929l-65.391 37.751c-38.833 22.427-84.895 28.458-128.219 16.715-50.521-13.668-80.577-65.995-67.003-116.646.875-3.263 26.299-98.124 26.97-100.669 10.725-40.015 47.144-67.962 88.563-67.962h190.37c15.228 0 27.511 11.722 28.741 26.424 1.465 16.658-11.852 31.238-28.741 31.246l-205.42-.01c-3.621 0-6.791 2.433-7.728 5.931l-13.55 50.59c-1.144 4.268 1.39 8.654 5.658 9.797 4.266 1.144 8.654-1.389 9.797-5.658l11.962-44.659 135.645.007-8.802 32.852c-6.37 23.77 19.173 43.327 40.441 31.027l77.969-45.069c21.69-12.531 48-16.002 72.223-9.507 26.629 6.964 26.467 38.174 7.555 49.093l-112.66 65.05c-7.063 4.078-4.158 14.932 4.008 14.929 3.146 0-5.712 4.53 116.652-66.122 31.799-18.359 27.717-67.916-10.015-78.038-31.545-8.26-61.264-3.413-85.769 10.743l-77.971 45.07c-8.964 5.178-19.661-3.029-16.979-13.034l9.911-36.993 47.075.002c23.059-.011 42.108-17.528 44.562-39.953l27.658.002c21.302-.006 40.082-15.159 44.052-36.634l25.703-.001c20.342 0 38.089-13.706 43.313-33.203 7.649-28.501-13.948-56.454-43.299-56.454zm-69.767 110.292-28.786-.002c-3.964-15.472-16.035-27.968-31.802-32.193-7.961-2.14 3.694-1.524-183.974-1.524 12.145-14.816 30.481-23.943 50.735-23.943 9.714.002 186.315-.005 193.83-.005 7.745 0 14.966 3.027 20.38 8.441 18.054 18.057 5.366 49.219-20.383 49.226zm97.614-57.981c-3.346 12.489-14.719 21.346-27.854 21.346l-25.62.001c-3.588-20.605-21.588-37.034-44.138-37.034l-171.84.005c12.283-12.978 29.561-20.636 47.77-20.636 4.457 0 185.803.007 193.83.007 18.813 0 32.785 17.902 27.852 36.311z"/><path d="m310.573 361.803-3.479 2.01c-3.826 2.21-5.137 7.104-2.927 10.929 2.221 3.845 7.121 5.126 10.929 2.927l3.479-2.01c3.826-2.21 5.137-7.104 2.927-10.929-2.209-3.827-7.102-5.135-10.929-2.927z"/><path d="m238.91 279.132c-63.238 8.565-110.926 63.967-110.926 128.868 0 4.418 3.582 8 8 8s8-3.582 8-8c0-56.932 41.732-105.517 97.074-113.013 4.378-.593 7.446-4.623 6.854-9.002-.593-4.378-4.62-7.448-9.002-6.853z"/></svg>