<svg enable-background="new 0 0 512.002 512.002" height="512" viewBox="0 0 512.002 512.002" width="512" xmlns="http://www.w3.org/2000/svg"><path d="m504 257.251c0 42.296-51.069 63.059-80.6 33.53l-43.4-43.4v152c0 42.63-51.656 63.51-81.41 33.72-8.63-8.63-13.97-20.55-13.97-33.72v36.93c0 42.719-51.678 63.436-81.42 33.73-8.63-8.63-13.97-20.56-13.97-33.73v-44.62c0 42.618-51.638 63.492-81.41 33.72-8.63-8.63-13.97-20.55-13.97-33.72v-59.23c0 38.359-46.475 57.131-73.28 30.36-7.77-7.78-12.57-18.51-12.57-30.36v-205.33c0-54.75 44.38-99.13 99.13-99.13h173.74c49.35 0 90.26 36.04 97.85 83.25 22.973 23.212 88.285 89.202 111.64 112.8 8.692 8.789 13.64 20.686 13.64 33.2z" fill="#f9cfac"/><path d="m378.72 111.251c-7.59-47.21-48.5-83.25-97.85-83.25h-157.74c-54.748 0-99.13 44.382-99.13 99.13v195.33c0 29.555 29.207 50.266 57.1 40.53 7.87-7.79 12.75-18.59 12.75-30.53v-192c10.463 0 19 8.477 19 19v214.23c0 35.91 38.21 58.753 69.73 42.3 4.22-7.12 6.65-15.42 6.65-24.3v-252.23c10.463 0 19 8.477 19 19v259.85c0 35.716 38 58.843 69.74 42.3 4.23-7.12 6.65-15.43 6.65-24.3v-296.85c10.463 0 19 8.477 19 19v222.92c0 35.7 37.988 58.874 69.72 42.31 4.23-7.12 6.66-15.43 6.66-24.31 0-298.533.472-277.472-1.28-288.13z" fill="#ffe4cc"/><path d="m502.84 246.841c-6.443 28.566-37.179 44.337-64.12 33.19-11.371-4.712-14.344-9.274-42.72-37.65v-113.67l94.36 95.34c6.26 6.33 10.55 14.24 12.48 22.79z" fill="#ffe4cc"/><path d="m8 276.001c4.418 0 8-3.582 8-8v-8c0-4.418-3.582-8-8-8s-8 3.582-8 8v8c0 4.418 3.582 8 8 8z"/><path d="m496.047 218.425-109.903-111.053c-9.392-50.294-53.396-87.371-105.273-87.371h-173.742c-59.071 0-107.129 48.058-107.129 107.129v100.871c0 4.418 3.582 8 8 8s8-3.582 8-8c0-12.18 0-87.911 0-100.871 0-50.249 40.88-91.129 91.129-91.129h173.742c44.989 0 82.82 32.181 89.958 76.537 1.629 9.958 1.171-12.797 1.171 286.848 0 21.887-17.806 39.692-39.692 39.692-21.926 0-39.692-17.768-39.692-39.692v-256.923c0-4.418-3.582-8-8-8s-8 3.582-8 8v293.846c0 21.887-17.806 39.692-39.692 39.692-21.938 0-39.692-17.753-39.692-39.692 0-13.684 0-278.094 0-293.846 0-4.418-3.582-8-8-8s-8 3.582-8 8v249.23c0 21.887-17.806 39.692-39.692 39.692-21.921 0-39.692-17.766-39.692-39.692 0-.765.004-28 .004-249.232 0-4.418-3.582-8-8-8-4.391 0-8.004 3.554-8.004 8.002v190.152c-.084 19.184-15.717 34.766-34.926 34.766-19.425 0-34.92-15.733-34.92-34.92v-32.46c0-4.418-3.582-8-8-8s-8 3.582-8 8v32.46c0 44.714 53.594 67.45 85.846 37.009v22.223c0 49.683 60.559 74.44 95.385 39.016v5.6c0 30.779 24.905 55.692 55.692 55.692 30.017 0 54.548-23.873 55.64-53.627 34.626 35.3 95.437 11.032 95.437-38.988v-132.686l29.743 29.742c10.364 10.368 24.371 16.175 39.041 16.175 49.185-.001 73.43-59.651 39.261-94.192zm-.047 38.976c0 27.831-28.392 46.921-54.22 36.234-9.547-3.952-9.296-5.082-53.78-49.564 0-19.841 0-98.546 0-112.078l96.673 97.684c7.088 7.166 11.327 16.819 11.327 27.724z"/></svg>