<svg enable-background="new 0 0 512.081 512.081" height="512" viewBox="0 0 512.081 512.081" width="512" xmlns="http://www.w3.org/2000/svg"><path d="m400 175.958c-30.93 0-56 25.07-56 56v-128c0-8.84-3.58-16.84-9.37-22.63-19.966-19.967-54.63-5.976-54.63 22.63 0-15.856 1.826-27.434-9.37-38.63-19.966-19.967-54.63-5.976-54.63 22.63v32c0-8.84-3.58-16.84-9.37-22.63-19.966-19.967-54.63-5.976-54.63 22.63v52c0-7.73-3.14-14.73-8.2-19.8-17.556-17.521-47.8-5.13-47.8 19.8v204c0 70.692 57.308 128 128 128h48c79.529 0 144-64.471 144-144 0-16.895 0-151.101 0-168 0-8.853-7.16-16-16-16z" fill="#f9cfac"/><path d="m416 191.958v168c0 53.23-28.88 99.72-71.84 124.63-17.26 7.32-36.24 11.37-56.16 11.37h-48c-70.692 0-128-57.308-128-128v-221.3c18.568-8.827 40 4.796 40 25.3v140c8.809 0 16-7.136 16-16v-203.721c21.153-12.215 48 2.972 48 27.72 0 196.294.1 192 0 192 8.837 0 16-7.163 16-16v-235.72c21.349-12.328 48 3.16 48 27.72v224c8.809 0 16-7.136 16-16v-219.72c21.153-12.215 48 2.972 48 27.72v194.92c-53.511 26.217-87.886 80.959-88 140.783-.008 4.041 2.85 7.662 6.853 8.217 4.931.684 9.147-3.124 9.147-7.92 0-51.816 28.663-103.192 83.31-128.72 2.95-1.34 4.69-4.24 4.69-7.28v-111.19c10.16-10.37 24.33-16.81 40-16.81 8.853.001 16 7.16 16 16.001z" fill="#ffe4cc"/><path d="m391.508 440.669c-3.523-2.667-8.541-1.973-11.207 1.551-.759 1.004-1.538 1.997-2.325 2.972-4.257 5.272-.408 13.026 6.219 13.026 4.408 0 6.255-2.894 8.864-6.342 2.667-3.524 1.972-8.541-1.551-11.207z"/><path d="m400 167.958c-19.101 0-36.263 8.422-48 21.735v-85.735c0-34.14-40.533-52.932-66.49-29.935-5.551-14.975-20.034-26.065-37.51-26.065-22.054 0-39.996 17.941-40 39.994-26.015-19.587-64-1.101-64 32.006v22.058c-23.516-15.771-56 .954-56 29.942v204c0 74.99 61.009 136 136 136h48c34.569 0 68.406-11.922 95.278-33.57 3.441-2.771 3.983-7.808 1.211-11.248-2.771-3.439-7.808-3.981-11.249-1.212-24.039 19.365-54.312 30.03-85.241 30.03h-48c-66.168 0-120-53.832-120-120 0-4.28 0-198.025 0-204 0-17.709 21.561-26.701 34.138-14.148 3.78 3.787 5.862 8.813 5.862 14.148v132c0 4.418 3.582 8 8 8s8-3.582 8-8c0-23.415 0-162.546 0-184 0-21.24 25.897-32.051 40.973-16.973 4.531 4.531 7.027 10.559 7.027 16.973v184c0 4.418 3.582 8 8 8s8-3.582 8-8c0-7.053 0-204.536 0-216 0-21.24 25.897-32.051 40.973-16.973 8.542 8.542 7.027 16.749 7.027 32.973v200c0 4.418 3.582 8 8 8s8-3.582 8-8v-200c0-21.24 25.897-32.051 40.973-16.973 4.531 4.531 7.027 10.559 7.027 16.973v194.94c-53.602 26.26-88 81.125-88 141.06 0 4.418 3.582 8 8 8s8-3.582 8-8c0-53.745 30.908-104.863 83.314-128.719 2.037-.92 3.712-2.767 4.372-5.082.467-1.625.313 3.215.313-74.199 0-26.468 21.533-48 48-48 4.443 0 8 3.572 8 8v168c0 19.862-4.18 38.996-12.425 56.869-1.851 4.012-.098 8.765 3.914 10.615 4.037 1.86 8.775.076 10.616-3.914 17.097-37.063 13.897-63.242 13.897-119.57v-112c0-13.241-10.696-24-24-24z"/><path d="m510.279 140.904c2.368-3.009 1.721-.236 1.721-60.947 0-4.418-3.582-8-8-8s-8 3.582-8 8v29.929c-111.697-146.452-368.742-146.688-480 1.321v-31.25c0-4.418-3.582-8-8-8s-8 3.582-8 8v56c0 4.418 3.582 8 8 8h56c4.418 0 8-3.582 8-8s-3.582-8-8-8h-40.368c102.592-149.153 362.938-149.453 465.736 0h-41.368c-4.418 0-8 3.582-8 8s3.582 8 8 8c60.312 0 56.403.135 57.924-.243 1.685-.413 3.238-1.391 4.355-2.81z" fill="#ef6767"/></svg>