<svg enable-background="new 0 0 511.991 511.991" height="512" viewBox="0 0 511.991 511.991" width="512" xmlns="http://www.w3.org/2000/svg"><path d="m451.692 255.991c-22.87 0-44.8 9.08-60.97 25.25l-51.44 51.44c-10.08 10.08-27.31 2.94-27.31-11.32v-260.78c0-19.6-15.43-36.06-35.03-36.58-20.29-.53-36.97 15.741-36.97 35.99v-16c0-19.88-16.12-36-36-36-19.893 0-36 16.12-36 36v208c0-19.88-16.12-36-36-36-19.893 0-36 16.12-36 36v-108c0-17.67-14.33-32-32-32-17.679 0-32 14.319-32 32v228c0 72.9 59.1 132 132 132h48.35c38.19 0 74.82-15.17 101.83-42.18 172.064-172.064 160.603-159.314 163.67-166.71 7.694-18.551-5.925-39.11-26.13-39.11z" fill="#f9cfac"/><g fill="#ffe4cc"><path d="m167.972 251.991v80c0 17.133-11.954 31.462-28 35.11-16.03-3.64-28-17.98-28-35.11v-109.94c23.599-15.802 56 .967 56 29.94z"/><path d="m273.032 343.982c-55.33 7.37-97.06 55.09-97.06 111.01 0 4.42-3.58 8-8 8s-8-3.58-8-8c0-63.9 47.7-118.45 110.94-126.87 4.39-.58 8.41 2.49 8.99 6.87.58 4.379-2.49 8.409-6.87 8.99z"/><path d="m451.692 255.991c-22.87 0-44.8 9.08-60.97 25.25l-51.43 51.43c-10.08 10.08-27.32 2.95-27.32-11.31v-260.78c0-29.027-31.842-46.508-55.94-30.57 0 .105-.06 242.1-.06 241.98 0 8.837-7.163 16-16 16-.1 0 0 4.94 0-243.26 0-28.476-31.625-46.987-56-30.68v325.94c0 25.903-22.426 46.25-47.81 43.83-22.51-1.92-40.19-20.81-40.19-43.83v-195.32c0-24.985-26.576-40.797-48-28.39v239.71c0 72.902 59.098 132 132 132h48.35c38.19 0 74.82-15.17 101.83-42.18 154.176-154.176 144.593-143.29 147.67-150.71 7.694-18.551-5.925-39.11-26.13-39.11z"/></g><path d="m311.972 223.991c-4.418 0-8 3.582-8 8v8c0 4.418 3.582 8 8 8s8-3.582 8-8v-8c0-4.418-3.582-8-8-8z"/><path d="m451.692 247.991c-25.171 0-48.833 9.8-66.627 27.593l-51.44 51.44c-5.035 5.038-13.652 1.473-13.652-5.663v-49.37c0-4.418-3.582-8-8-8s-8 3.582-8 8v49.37c0 21.41 25.849 32.091 40.967 16.978l51.44-51.44c14.771-14.772 34.415-22.907 55.313-22.907 14.487 0 24.257 14.739 18.739 28.047-2.202 5.316 10.54-8.36-161.937 164.116-25.688 25.689-59.843 39.837-96.172 39.837h-48.35c-68.374 0-124-55.626-124-124 0-86.875 0-152.876 0-228 0-13.233 10.767-24 24-24s24 10.767 24 24v188c0 24.262 19.738 44 44 44s44-19.738 44-44c0-12.836 0-270.525 0-288 0-7.477 2.913-14.511 8.192-19.799 17.531-17.502 47.808-5.174 47.808 19.799v236c0 4.418 3.582 8 8 8s8-3.582 8-8v-220c0-7.477 2.913-14.511 8.193-19.799 17.866-17.842 47.807-4.63 47.807 20.389v139.41c0 4.418 3.582 8 8 8s8-3.582 8-8v-139.411c0-38.883-46.701-59.525-74.796-32.011-11.264-29.996-49.717-38.265-72.326-15.691-8.306 8.316-12.879 19.366-12.879 31.112v174.084c-16.268-13.454-39.74-13.448-56 0v-74.084c0-22.056-17.944-40-40-40s-40 17.944-40 40v228c0 77.196 62.804 140 140 140h48.35c40.603 0 78.776-15.812 107.487-44.522 171.206-171.206 161.456-159.784 165.402-169.303 9.945-23.977-7.773-50.175-33.519-50.175zm-319.72-24c15.439 0 28 12.561 28 28v80c0 15.439-12.561 28-28 28s-28-12.561-28-28c0-14.996 0-64.404 0-80 0-15.439 12.561-28 28-28z"/><path d="m270.915 328.121c-63.248 8.425-110.943 62.967-110.943 126.87 0 4.418 3.582 8 8 8s8-3.582 8-8c0-55.916 41.725-103.641 97.057-111.011 4.379-.583 7.457-4.606 6.873-8.986-.582-4.379-4.601-7.449-8.987-6.873z"/></svg>