<svg enable-background="new 0 0 512.014 512.014" height="512" viewBox="0 0 512.014 512.014" width="512" xmlns="http://www.w3.org/2000/svg"><path d="m471.703 304.293-157.54 157.54c-27.01 27.01-63.64 42.18-101.83 42.18h-48.35c-72.9 0-132-59.1-132-132v-228c0-8.84 3.58-16.84 9.37-22.63 19.966-19.967 54.63-5.976 54.63 22.63 0 141.992-.358 105.301.97 99.65 3.822-16.043 18.189-27.65 35.03-27.65 19.85 0 36 16.092 36 36v13.84c33.379-126.141 32.46-122.569 32.46-122.67l-17.65-65.86c-7.453-27.732 19.393-52.988 46.54-43.23 5.251-18.478 24.658-30.021 43.82-24.83 19.206 5.221 30.606 25.176 25.46 44.64-7.819 29.565-2.719 10.291-23.4 88.43-.36 1.362-3.63-11.806 43.39 163.66 4.492 16.733 25.326 22.075 37.38 10.02l34.75-34.75c16.17-16.17 38.1-25.25 60.97-25.25 25.155.001 37.705 30.576 20 48.28z" fill="#f9cfac"/><g fill="#ffe4cc"><path d="m213.243 32.264-21.13 79.84-9.32-34.78c-5.68-21.134 8.726-42.464 30.45-45.06z"/><path d="m167.983 252.014v80c0 17.133-11.954 31.462-28 35.11-16.03-3.64-28-17.98-28-35.11v-109.94c23.6-15.802 56 .966 56 29.94z"/><path d="m471.703 304.293-141.54 141.54c-27.01 27.01-63.64 42.18-101.83 42.18h-48.35c-72.9 0-132-59.1-132-132 0-28.293 0-201.249 0-239.72 21.497-12.404 48 3.465 48 28.4v187.32c0 24.45 16.64 45.3 40.46 50.71 4.454 1.019 2.83.972 7.09 0 23.227-5.289 40.45-25.953 40.45-50.71v-80c0-8.71-2.15-16.92-5.95-24.13 15.09-57.04 34.047-128.685 51.03-192.84 5.165-19.449 24.894-30.98 44.09-25.78 19.206 5.221 30.606 25.176 25.46 44.64-60.877 230.174-57.12 214.588-57.12 217.94 0 7.11 4.7 13.62 11.86 15.63l29.96-113.18c38.137 142.325 35.154 135.157 40.23 140.84 8.584 9.552 23.401 9.919 32.44.88l34.75-34.75c16.17-16.17 38.1-25.25 60.97-25.25 25.155.001 37.705 30.576 20 48.28z"/></g><path d="m431.006 333.677-1.359 1.359c-3.124 3.125-3.124 8.189 0 11.314 3.126 3.124 8.189 3.123 11.314 0l1.359-1.359c3.124-3.125 3.124-8.189 0-11.314-3.125-3.123-8.189-3.123-11.314 0z"/><path d="m451.703 248.014c-25.171 0-48.833 9.8-66.627 27.593l-34.75 34.75c-7.757 7.76-21.12 4.27-23.995-6.433l-43.072-160.734 23.088-87.243c6.31-23.864-7.764-48.056-31.103-54.408-20.473-5.548-41.584 4.307-50.768 23.058-31.102-5.154-57.735 23.826-49.412 54.798l17.099 63.805-22.704 85.793c-14.175-22.992-45.058-27.783-65.478-10.895v-74.084c0-22.056-17.944-40-40-40s-40 17.944-40 40v228c0 77.196 62.804 140 140 140h48.35c40.603 0 78.776-15.811 107.487-44.522l98.5-98.5c3.124-3.125 3.124-8.189 0-11.314-3.124-3.122-8.188-3.123-11.314 0l-98.5 98.5c-25.688 25.689-59.843 39.837-96.172 39.837h-48.35c-68.374 0-124-55.626-124-124 0-8.111 0-221.588 0-228 0-13.233 10.767-24 24-24s24 10.767 24 24v188c0 24.262 19.738 44 44 44s44-19.738 44-44v-65.123l60.811-229.792c4.087-15.345 19.412-24.144 34.259-20.118 14.989 4.078 23.851 19.659 19.826 34.876-.648 2.448-60.524 228.688-60.696 229.374-1.246 5.069 2.606 9.925 7.765 9.925 3.232 0 6.076-1.979 7.305-4.771.423-.953-1.545 6.254 29.775-112.094l35.848 133.778c6.078 22.628 34.341 30.025 50.764 13.603l34.75-34.75c14.771-14.772 34.415-22.907 55.313-22.907 14.487 0 24.257 14.739 18.739 28.047-2.053 4.955-4.026 6.205-16.796 18.976-3.124 3.125-3.124 8.189 0 11.314 3.125 3.123 8.189 3.123 11.314 0 12.666-12.666 16.783-15.771 20.262-24.162 9.946-23.98-7.772-50.177-33.518-50.177zm-261.184-172.767c-5.025-18.698 10.028-36.545 28.928-35.141l-19.052 71.993zm-30.536 256.767c0 15.439-12.561 28-28 28s-28-12.561-28-28c0-14.996 0-64.404 0-80 0-15.439 12.561-28 28-28s28 12.561 28 28z"/><path d="m270.927 328.144c-63.248 8.425-110.943 62.967-110.943 126.87 0 4.418 3.582 8 8 8s8-3.582 8-8c0-55.916 41.725-103.641 97.057-111.011 4.379-.583 7.457-4.606 6.873-8.986-.583-4.379-4.602-7.45-8.987-6.873z"/></svg>