<svg enable-background="new 0 0 512.002 512.002" height="512" viewBox="0 0 512.002 512.002" width="512" xmlns="http://www.w3.org/2000/svg"><path d="m504.002 283.103v40.73c0 58.647-47.547 106.24-106.24 106.24-27.55 0-54.02 10.7-73.83 29.85l-40.02 38.68c-7.16 7.16-18.81 7.16-25.97 0-22.18-22.18-26.99-55.15-14.46-82.01l-43.8-43.8c-19.43-19.43-21.32-49.77-5.66-71.32h-144.69c-22.808 0-41.33-18.489-41.33-41.33 0-22.83 18.51-41.33 41.33-41.33 207.452 0 222.341 2.967 270.97-9.19 41.501-10.376 69.867-9.18 101.03-9.18 45.66 0 82.67 37.01 82.67 82.66z" fill="#f9cfac"/><path d="m323.982 306.643c-5.598 11.368-15.972 19.486-42.99 45.25l-19.33-19.33c-3.13-3.13-8.19-3.13-11.32 0-3.12 3.12-3.12 8.19 0 11.31l19.07 19.07c-19.232 18.335-29.198 25.985-37.84 41.73l-31.89-31.88c-19.43-19.43-21.32-49.77-5.66-71.32h117.14c5.25 0 9.65 2.03 12.82 5.17z" fill="#ffe4cc"/><path d="m504.002 283.103v8.73c0 58.647-47.547 106.24-106.24 106.24-27.55 0-54.02 10.7-73.83 29.85l-40.02 38.68c-7.16 7.16-18.81 7.16-25.97 0-10.07-10.07-16.56-22.37-19.47-35.31 2.91-12.95 9.4-25.24 19.47-35.31l65.89-62.84c26.446-26.446 26.188-53.67-12.67-53.67h-261.83c-18.871 0-34.99-12.703-39.85-30.33 4.833-17.586 20.954-30.33 39.85-30.33 207.533 0 222.333 2.964 270.97-9.19 41.501-10.376 69.867-9.18 101.03-9.18 45.66 0 82.67 37.01 82.67 82.66z" fill="#ffe4cc"/><path d="m421.332 192.443c-34.64 0-61.552-.935-102.97 9.418-43.491 10.87-71.968 8.952-126.601 8.952-4.418 0-8 3.582-8 8s3.582 8 8 8c52.68 0 84.349 2.099 130.48-9.43 40.617-10.153 68.448-8.94 99.09-8.94 41.173 0 74.67 33.492 74.67 74.66v40.729c0 54.273-43.926 98.24-98.24 98.24-29.783 0-57.978 11.399-79.39 32.099l-40.02 38.68c-4.708 4.432-10.993 3.856-14.754.095-19.761-19.761-23.93-48.943-13.036-72.618 8.72-16.497 2.97-9.084 78.79-81.395 17.194-16.394 5.58-45.46-18.19-45.46h-261.829c-8.896 0-17.265-3.467-23.563-9.758-20.799-20.799-6.25-56.902 23.563-56.902h78.91c4.418 0 8-3.582 8-8s-3.582-8-8-8h-78.91c-44.076 0-65.684 53.416-34.873 84.22 9.323 9.313 21.708 14.44 34.873 14.44h131.102c-9.872 23.64-4.532 50.856 13.595 68.973l39.984 39.984c-10.946 28.561-5.147 62.411 18.272 85.829 10.269 10.271 26.928 10.298 37.229.055l39.978-38.639c18.413-17.8 42.658-27.603 68.27-27.603 63.107 0 114.24-51.078 114.24-114.24v-40.729c0-49.99-40.675-90.66-90.67-90.66zm-215.991 174.687c-15.551-15.542-18.244-39.216-7.029-57.657h112.85c9.349 0 13.926 11.42 7.148 17.881l-31.661 30.196-24.99-24.99c-3.125-3.123-8.189-3.123-11.314 0-3.124 3.125-3.124 8.189 0 11.314l24.722 24.722c-22.793 21.738-26.828 24.744-33.412 34.847z"/><path d="m159.761 226.813c11.268 0 11.278-16 0-16-4.418 0-8 3.582-8 8s3.582 8 8 8z"/><path d="m232.002.023h-24c-83.561 0-160 65.429-160 164.686l-18.343-18.343c-3.125-3.123-8.189-3.123-11.314 0-3.124 3.125-3.124 8.189 0 11.314 33.621 33.621 33.024 34.343 37.657 34.343 4.548 0 3.849-.535 37.657-34.343 3.124-3.125 3.124-8.189 0-11.314-3.125-3.123-8.189-3.123-11.314 0l-18.343 18.343c0-90.171 69.064-148.686 144-148.686h24c4.418 0 8-3.582 8-8s-3.582-8-8-8z" fill="#ef6767"/></svg>