<svg enable-background="new 0 0 512.009 512.009" height="512" viewBox="0 0 512.009 512.009" width="512" xmlns="http://www.w3.org/2000/svg"><path d="m424.205 272.009h-16c22.091 0 40-17.909 40-40s-17.909-40-40-40c-.101 0-104.894 0-104 0 19.657-45.867 23.999-84.031 23.999-128.001 0-30.842-24.986-55.999-55.999-55.999-17.673 0-32 14.327-32 32 0 59.72-30.765 115.228-81.408 146.88l-29.185 18.24c-50.643 31.652-81.408 87.16-81.408 146.88 0 83.947 68.053 152 152 152h196c19.882 0 36-16.118 36-36s-16.118-36-36-36h12c22.091 0 40-17.909 40-40s-17.909-40-40-40h16c22.091 0 40-17.909 40-40 .001-22.091-17.907-40-39.999-40z" fill="#f9cfac"/><g fill="#ffe4cc"><path d="m328.205 64.009c0 37.121-2.587 70.283-17.7 112.03-46.381 1.389-71.432 56.11-41.06 92.1-9.63 7.64-16.7 18.4-19.68 30.74-24.41 28.71-59.83 45.13-97.56 45.13h-16c-4.42 0-8 3.58-8 8s3.58 8 8 8h16c36.26 0 70.62-13.48 96.98-37.55 2.978 15.765 12.598 29.078 25.43 37.07-16.49 23.079-13.464 56.016 9.56 75.32-12.486 15.048-15.322 35.606-7.97 53.16h-76c-81.195 0-147.785-63.767-151.8-144.27 2.69-56.54 32.92-108.43 81.21-138.61 31.867-19.92 63.956-36.209 88.87-81.15 14.03-25.3 21.72-54.11 21.72-83.97 0-8.84 3.58-16.84 9.37-22.63 23.53-23.53 78.63-.647 78.63 46.63z"/><path d="m447.405 224.009c-3.695 18.197-19.812 32-39.2 32h-96c-19.35 0-35.49-13.74-39.2-32 3.695-18.197 19.811-32 39.2-32h96c19.35 0 35.49 13.74 39.2 32z"/><path d="m463.405 304.009c-3.695 18.197-19.812 32-39.2 32h-120c-19.35 0-35.49-13.74-39.2-32 3.695-18.197 19.811-32 39.2-32h120c19.35 0 35.49 13.74 39.2 32z"/><path d="m447.405 384.009c-3.695 18.197-19.812 32-39.2 32h-88c-19.35 0-35.49-13.74-39.2-32 3.695-18.197 19.811-32 39.2-32h88c19.35 0 35.49 13.74 39.2 32z"/><path d="m431.315 460.009c-3.651 16.058-17.991 28-35.11 28h-72c-17.13 0-31.47-11.97-35.11-28 3.644-16.028 17.956-28 35.11-28h72c17.13 0 31.47 11.97 35.11 28z"/></g><path d="m440.974 267.037c31.739-29.709 10.535-83.028-32.768-83.028-12.045 0-83.843 0-92.127 0 16.751-43.802 20.127-79.75 20.127-120 0-53.903-63.36-81.211-92.287-52.287-7.554 7.554-11.713 17.6-11.713 28.287 0 41.076-15.346 80.708-42.882 111.032-2.97 3.271-2.727 8.33.544 11.3 3.271 2.971 8.331 2.729 11.301-.544 30.165-33.213 47.038-76.68 47.038-121.788 0-6.414 2.496-12.441 7.027-16.973 18.343-18.345 64.973.788 64.973 40.973 0 41.004-3.776 77.838-22.24 122.156-36.477 11.354-45.88 59.016-15.814 83.232-11.39 5.917-20.196 16.311-23.956 28.956-24.429 29.03-60.044 45.656-97.99 45.656h-16c-4.418 0-8 3.582-8 8s3.582 8 8 8h16c36.32 0 70.743-13.535 97.129-37.682 3.517 15.987 15.019 29.011 30.103 34.654-23.549 22.042-19.237 60.686 9.165 76.799-19.125 15.453-21.901 43.38-6.312 62.229h-90.084c-79.577 0-144-64.384-144-144 0-57.336 29.028-109.708 77.649-140.095l15.03-9.39c3.747-2.342 4.887-7.276 2.546-11.023-2.341-3.748-7.275-4.886-11.023-2.547-22.496 14.055-53.346 31.663-77.483 75.21-65.28 117.771 16.786 247.845 137.278 247.845h196c39.587 0 58.893-48.368 30.467-75.7 32.088-13.426 39.797-55.464 14.301-79.329 41.521-15.532 41.575-74.389.001-89.943zm-128.769-67.028h96c17.645 0 32 14.355 32 32s-14.355 32-32 32h-96c-17.645 0-32-14.355-32-32s14.355-32 32-32zm84 296c-14.661 0-55.084 0-72 0-15.439 0-28-12.561-28-28s12.561-28 28-28h72c15.439 0 28 12.561 28 28s-12.56 28-28 28zm12-72c-9.604 0-78.604 0-88 0-17.645 0-32-14.355-32-32s14.355-32 32-32h88c17.645 0 32 14.355 32 32s-14.355 32-32 32zm16-80c-12.759 0-101.878 0-120 0-17.645 0-32-14.355-32-32s14.355-32 32-32h120c17.645 0 32 14.355 32 32s-14.355 32-32 32z"/><path d="m169.952 187.31c2.976 0 4.563-1.417 6.394-2.807 3.92-2.959 4.276-7.981 1.727-11.345-2.536-3.347-7.462-4.398-11.39-1.407-.502.381-1.006.762-1.517 1.143-6.117 4.557-2.933 14.416 4.786 14.416z"/></svg>