<svg enable-background="new 0 0 512 512" height="512" viewBox="0 0 512 512" width="512" xmlns="http://www.w3.org/2000/svg"><path d="m491.433 259.028c-26.856-26.814-73.279-7.942-73.279 30.356 0-14.822 2.1-31.953-13.974-48.026-29.828-29.828-81.411-8.799-81.411 33.719 0-8.161 0-185.207 0-198.457 0-26.333-21.342-47.692-47.692-47.692-26.338 0-47.692 21.342-47.692 47.692v36.303c0-26.325-21.365-47.692-47.692-47.692-26.338 0-47.692 21.354-47.692 47.692v171.692c-46.582-46.582-47.245-48.892-58.721-53.642-31.093-12.869-65.28 10.044-65.28 43.627 0 13.059 5.206 24.823 13.64 33.349l111.636 112.804c7.595 47.203 48.503 83.247 97.852 83.247h173.743c54.751 0 99.129-44.378 99.129-99.129 0-34.804 0-80.988 0-115.487 0-11.851-4.805-22.582-12.567-30.356z" fill="#f9cfac"/><path d="m133 391.469-111.36-112.519c-5.27-5.33-9.14-11.78-11.39-18.79 8.441-26.32 37.617-39.703 63.03-29.19 12.041 4.991 13.8 8.73 58.72 53.65z" fill="#ffe4cc"/><path d="m434.18 255.93c-.051 1.223-.03 119.779-.03 119.61 0 8.809-7.136 16-16 16v-116.46c0-42.8-52.759-64.158-82.38-32.73v142.19c0 7.18-5.82 13-13 13-.1 0 0 7.12 0-320.92 0-38.585-43.206-60.606-74.39-39.53v339.45c0 11.564-9.369 21-21 21v-284.62c0-38.621-43.843-61.363-75.38-38.83v316.78c0 54.538 44.175 99.13 99.13 99.13h173.74c16.76 0 32.55-4.16 46.4-11.52 20.1-18.14 32.73-44.4 32.73-73.61 0-34.804 0-80.951 0-115.49 0-36.044-41.944-55.911-69.82-33.45z" fill="#ffe4cc"/><path d="m314.77 120.24c0 4.418 3.582 8 8 8s8-3.582 8-8c0-11.268-16-11.278-16 0z"/><path d="m422.765 255.894c-14.104-38.494-63.426-48.893-91.996-19.833v-84.301c0-4.418-3.582-8-8-8s-8 3.582-8 8v237.778c0 4.427 3.588 8.002 8 8.002 4.409 0 8-3.572 8-8.002v-114.461c0-21.887 17.806-39.692 39.692-39.692 21.921 0 39.692 17.766 39.692 39.692v114.461c0 4.418 3.582 8 8 8s8-3.582 8-8v-100.153c0-19.257 15.666-34.923 34.923-34.923 19.166 0 34.923 15.485 34.923 34.923v115.486c.001 50.249-40.879 91.129-91.128 91.129h-173.742c-51.223 0-91.129-41.181-91.129-91.129 0-14.465 0-280.371 0-291.948 0-35.463 42.966-52.851 67.754-28.061 7.453 7.453 11.574 17.339 11.626 27.86v276.818c0 5.752 5.883 9.585 11.115 7.371 2.873-1.214 4.89-4.058 4.89-7.373 0-5.37-.005-307.096-.005-312.918 0-35.138 42.815-52.995 67.763-28.073 13.154 13.153 11.627 26.977 11.627 39.693 0 4.418 3.582 8 8 8s8-3.582 8-8c0-14.934 1.398-33.298-16.316-51.011-34.133-34.095-92.724-11.282-95.005 36.717-34.661-35.383-95.449-10.928-95.449 38.977v152.378c-30.236-30.235-34.287-36.183-47.662-41.72-36.302-15.019-76.338 11.758-76.338 51.018 0 15.15 5.884 28.797 15.953 38.977l109.903 111.053c9.391 50.294 53.395 87.371 105.273 87.371h173.742c59.071 0 107.129-48.058 107.129-107.129 0-34.804 0-80.987 0-115.486 0-46.574-58.188-68.964-89.235-33.491zm-406.765 18.861c0-35.356 42.536-52.302 66.942-27.882l41.058 41.056v112.078l-96.673-97.684c-7.305-7.385-11.327-17.175-11.327-27.568z"/><path d="m462.183 45.075c2.368-2.882 2.375-6.948.255-9.809-.609-.83 1.717 1.575-32.781-32.924-3.125-3.123-8.189-3.123-11.314 0-3.124 3.125-3.124 8.189 0 11.314l18.343 18.344h-12.686c-44.112 0-80 35.888-80 80v72c0 4.418 3.582 8 8 8s8-3.582 8-8v-72c0-35.29 28.71-64 64-64h12.686l-18.344 18.343c-5.054 5.056-1.405 13.657 5.658 13.657 2.048 0 4.095-.781 5.657-2.343 33.207-33.206 32.132-32.102 32.526-32.582z" fill="#ef6767"/></svg>