<svg enable-background="new 0 0 512 512" height="512" viewBox="0 0 512 512" width="512" xmlns="http://www.w3.org/2000/svg"><path d="m471.719 304.28-157.54 157.54c-27.01 27.01-63.64 42.18-101.83 42.18h-48.35c-72.9 0-132-59.1-132-132v-108c0-17.679 14.319-32 32-32 17.67 0 32 14.33 32 32v-12c0-19.893 16.119-36 36-36 19.88 0 36 16.12 36 36v-208c0-19.893 16.119-36 36-36 19.88 0 36 16.12 36 36v16c0-20.214 16.647-36.521 36.97-35.99 19.6.52 35.03 16.98 35.03 36.58v260.78c0 14.26 17.23 21.4 27.31 11.32l51.44-51.44c16.17-16.17 38.1-25.25 60.97-25.25 25.329 0 37.62 30.66 20 48.28z" fill="#f9cfac"/><g fill="#ffe4cc"><path d="m479.709 280.29-165.53 165.53c-27.01 27.01-63.64 42.18-101.83 42.18h-32.35c-61.083 0-112.299-41.499-127.4-97.37 18.872 4.55 37.569-2.569 48.82-16.6 34.853 25.498 82.58-.751 82.58-42.89 0-338.334-.033-315.606.06-317.12 24.552-16.321 55.94 2.452 55.94 30.73v219.25c0 8.853 7.16 16 16 16v-249.94c24.163-16.108 56 1.588 56 30.53v260.78c0 14.279 17.259 21.371 27.32 11.31l51.43-51.43c16.17-16.17 38.1-25.25 60.97-25.25 14.325 0 26.076 10.606 27.99 24.29z"/><path d="m167.999 252v80c0 17.133-11.954 31.462-28 35.11-16.03-3.64-28-17.98-28-35.11 0-115.326-.032-108.469.06-109.97 23.481-15.668 55.94.91 55.94 29.97z"/><path d="m95.999 264v80c0 14.895-10.183 27.449-24 30.99-13.8-3.55-24-16.08-24-30.99v-107.72c21.159-12.218 48 2.993 48 27.72z"/></g><path d="m167.999 184c4.418 0 8-3.582 8-8v-8c0-4.418-3.582-8-8-8s-8 3.582-8 8v8c0 4.418 3.582 8 8 8z"/><path d="m451.715 248c-25.169 0-48.831 9.801-66.627 27.598l-51.432 51.432c-5.039 5.039-13.657 1.472-13.657-5.656v-260.784c0-38.871-46.694-59.525-74.796-32.011-6.262-16.677-22.367-28.579-41.204-28.579-24.084 0-44 19.457-44 44v92c0 4.418 3.582 8 8 8s8-3.582 8-8v-92c0-15.631 12.681-28 28-28 15.439 0 28 12.561 28 28v236c0 4.418 3.582 8 8 8s8-3.582 8-8v-220c0-15.544 12.746-28.419 28.763-27.99 15.019.396 27.237 13.218 27.237 28.58v260.783c0 21.374 25.835 32.108 40.97 16.971l51.432-51.433c14.774-14.774 34.419-22.911 55.314-22.911 17.958 0 27.086 21.884 14.343 34.627l-157.539 157.539c-25.687 25.688-59.839 39.834-96.167 39.834h-48.353c-67.023 0-121.789-53.452-123.927-119.965 19.94 14.931 48.5 8.115 59.684-14.138 27.214 29.329 76.243 9.799 76.243-29.897 0-24.223 0-99.931 0-124 0-4.418-3.582-8-8-8s-8 3.582-8 8v10.084c-22.805-18.861-57.153-10.152-68.557 16.855-25.328-23.932-67.443-6.069-67.443 29.06v108c0 77.196 62.804 140 140 140h48.353c40.601 0 78.772-15.811 107.48-44.52l157.54-157.54c22.802-22.802 6.451-61.939-25.657-61.939zm-347.716 4c0-15.439 12.561-28 28-28s28 12.561 28 28v80c0 15.439-12.561 28-28 28s-28-12.561-28-28c0-11.621 0-69.761 0-80zm-64 12c0-13.233 10.766-24 24-24s24 10.767 24 24v80c0 13.233-10.766 24-24 24s-24-10.767-24-24c0-9.836 0-69.752 0-80z"/><path d="m167.999 463c4.418 0 8-3.582 8-8 0-55.916 41.725-103.641 97.056-111.011 4.38-.583 7.457-4.606 6.874-8.986-.584-4.381-4.613-7.466-8.986-6.873-63.249 8.425-110.944 62.967-110.944 126.87 0 4.418 3.582 8 8 8z"/></svg>