<svg enable-background="new 0 0 512.158 512.158" height="512" viewBox="0 0 512.158 512.158" width="512" xmlns="http://www.w3.org/2000/svg"><path d="m416.038 441.938c0 9.81-7.93 17.77-17.73 17.77h-90.23c-65.271 0-73.425 44.33-138.75 44.33h-42.94c-65.298 0-118.23-52.928-118.23-118.23 0-29.792 7.423-41.47 35.24-108.22 6-14.41 9.09-29.86 9.09-45.47v-149.26c0-22.007 17.825-39.9 39.91-39.9 22.03 0 39.9 17.86 39.9 39.9v61.31l65.79-113.96c12.24-21.2 39.36-28.46 60.56-16.23 17.75 10.261 25.714 30.878 20.7 49.77l33.96-33.96c17.31-17.31 45.38-17.31 62.7 0 17.271 17.291 17.369 45.311 0 62.7-112.151 112.14-100.349 100.36-101.23 101.22 16.81.16 32.91 6.88 44.84 18.75l74.65 74.33c7.947 7.947 12.9 18.871 12.9 31.55-.193 38.916-47.274 58.87-75.73 30.38l-50.84-50.84c-9.719-9.7-23.069-15.51-37.47-15.51-22.013 0-39.9 17.859-39.9 39.9 0 22.03 17.87 39.9 39.9 39.9h93.11c44.06 0 79.79 35.71 79.8 79.77z" fill="#f9cfac"/><path d="m336.238 362.168h-92.39c-25.998 0-45.773-24.067-39.48-49.4-6.16-25.05 12.863-49.4 38.76-49.4 14.403 0 27.752 5.812 37.47 15.51l50.84 50.84c25.276 25.306 67.278 12.892 74.72-21.16-1.78-8.18-5.87-15.75-11.89-21.77l-74.65-74.33c-7.26-7.23-16.06-12.56-25.64-15.64-60.838 60.822-56.856 58.08-61.39 58.08-7.031 0-10.731-8.572-5.66-13.66 91.533-91.534 148.074-147.254 152.12-152.12 13.054-16.007 13.328-39.096.44-55.4-16.033-20.574-47.163-22.948-66.18-3.93l-16.77 16.77c1.163 11.872-.988 21.296-5.47 31.51-2.39 5.118-32.239 55.871-99.77 172.83-2.171 3.756-7.013 5.168-10.93 2.93-3.83-2.21-5.14-7.11-2.93-10.93l99.37-172.11c9.367-20.325 1.974-45.171-18.16-56.81-21.2-12.23-48.32-4.97-60.56 16.23l-49.79 86.25v135.44c-7.73 2.892-16-2.815-16-11.09v-157.95c0-25.22-23.211-44.239-48.08-39.06-18.313 3.817-31.73 20.007-31.73 39.06v149.26c0 15.306-2.987 30.825-9.09 45.47-28.572 68.562-32.973 75.199-34.86 98.78 4.858 60.65 55.595 108.67 117.85 108.67h42.94c65.757 0 73.158-44.33 138.75-44.33h90.23c7.67 0 14.2-4.88 16.68-11.71-6.19-37.91-39.1-66.83-78.75-66.83zm-191.94 3.45c0 39.45-22.281 75.576-57.63 93.24-3.985 1.993-8.772.349-10.73-3.58-1.98-3.95-.37-8.75 3.58-10.73 30.09-15.04 48.78-45.29 48.78-78.93v-38.05c0-4.42 3.58-8 8-8s8 3.58 8 8z" fill="#ffe4cc"/><path d="m381.597 366.816c35.651-13.514 44.738-59.276 18.315-85.697l-74.649-74.33c-9.363-9.324-20.837-15.774-33.342-18.91l89.74-89.734c9.888-9.889 15.333-23.033 15.333-37.013 0-46.883-56.736-69.612-89.348-37.002l-19.558 19.558c-8.218-48.311-72.528-59.758-96.929-17.479l-50.862 88.101v-31.452c0-42.391-51.684-63.967-81.777-33.877-9.049 9.05-14.033 21.081-14.033 33.877v93.779c0 4.418 3.582 8 8 8s8-3.582 8-8v-93.779c0-8.522 3.319-16.536 9.347-22.563 20.009-20.011 54.463-5.719 54.463 22.563v164.04c0 4.418 3.582 8 8 8s8-3.582 8-8v-100.587l64.719-112.103c4.849-8.402 12.683-14.413 22.06-16.925 31.43-8.424 56.899 25.536 40.872 53.261l-99.51 172.352c-2.209 3.826-.898 8.719 2.928 10.928 3.801 2.195 8.705.923 10.928-2.928 108.41-187.766 101.689-175.034 104.154-182.939l32.512-32.512c22.64-22.643 62.034-6.857 62.034 25.688 0 9.706-3.781 18.833-10.647 25.698-96.132 96.125 139.115-139.104-154.418 154.407-5.054 5.055-1.407 13.657 5.657 13.657 2.047 0 4.095-.781 5.657-2.343l50.718-50.714c13.602.897 26.274 6.591 36.012 16.289l74.638 74.318c6.426 6.426 10.557 15.48 10.557 25.854-.156 31.931-38.642 48.223-62.073 24.762l-50.845-50.845c-11.351-11.329-26.761-17.848-43.121-17.848-26.465 0-47.9 21.433-47.9 47.9 0 26.412 21.488 47.899 47.9 47.899h93.11c39.582 0 71.791 32.197 71.8 71.771 0 5.387-4.365 9.77-9.73 9.77h-90.23c-68.576 0-76.004 44.33-138.75 44.33h-42.94c-78.058 0-132.193-79.515-101.756-152.623 28.195-67.656 33.951-76.768 35.601-103.413.273-4.409-3.081-8.206-7.49-8.479-4.405-.271-8.206 3.079-8.479 7.49-1.495 24.148-7.477 33.644-34.4 98.249-34.875 83.76 27.173 174.775 116.525 174.775h42.94c67.976 0 76.201-44.33 138.75-44.33h90.23c14.188 0 25.73-11.561 25.73-25.771-.009-31.812-17.03-59.726-42.443-75.12zm-138.469-12.648c-28.499 0-42.476-34.531-22.554-54.453 10.743-10.743 26.171-11.564 39.771-5.926 11.177 4.632 10.538 5.688 65.229 60.379z"/><path d="m52.488 216.638c4.418 0 8-3.582 8-8v-1.199c0-4.418-3.582-8-8-8s-8 3.582-8 8v1.199c0 4.418 3.581 8 8 8z"/><path d="m79.1 467.705c1.202 0 2.423-.272 3.571-.847 17.328-8.664 31.871-21.954 42.056-38.434 18.62-30.128 15.568-53.672 15.568-92.859 0-4.418-3.582-8-8-8s-8 3.582-8 8v38.056c0 33.64-18.691 63.883-48.779 78.927-7.513 3.756-4.842 15.157 3.584 15.157z"/><path d="m509.814 362.381c-3.124-3.123-8.189-3.123-11.313 0l-26.343 26.344v-92.687c0-66.168-53.832-120-120-120-4.418 0-8 3.582-8 8s3.582 8 8 8c57.346 0 104 46.654 104 104v92.599l-26.255-26.256c-3.123-3.122-8.188-3.123-11.313 0-3.125 3.124-3.125 8.189 0 11.314l39.289 39.29c2.996 3.797 8.587 4.082 11.956.688 1.143-1.143-7.871 7.873 39.98-39.978 3.124-3.125 3.124-8.189-.001-11.314z" fill="#ef6767"/></svg>