<svg enable-background="new 0 0 512 512" height="512" viewBox="0 0 512 512" width="512" xmlns="http://www.w3.org/2000/svg"><path d="m387.878 251.879-11.88-11.879c0-120.614.126-112-.227-112-1.991-17.997-17.246-32-35.773-32h-40c-9.94 0-18.94 4.03-25.46 10.54-22.492 22.526-6.657 61.46 25.46 61.46h4v11.146c-5.397 1.392-6.85 4.196-6.85 3.724-13.071-17.981-38.982-19.935-54.61-4.33-11.49 11.508-10.54 23.711-10.54 33.46 0-32.105-38.929-47.957-61.46-25.46-6.51 6.52-10.54 15.52-10.54 25.46v36c0-28.594-34.658-42.602-54.63-22.63-5.79 5.79-9.37 13.79-9.37 22.63v124c0 72.9 59.1 132 132 132h56c72.9 0 132-59.1 132-132v-52.24c0-25.461-10.11-49.87-28.12-67.881z" fill="#f9cfac"/><path d="m387.878 251.879-11.88-11.879c0-120.614.126-112-.227-112-1.991-17.997-17.246-32-35.773-32h-40c-9.94 0-18.94 4.03-25.46 10.54-22.492 22.526-6.657 61.46 25.46 61.46h4v11.146c-5.397 1.392-6.85 4.196-6.85 3.724-13.071-17.981-38.982-19.935-54.61-4.33-11.49 11.508-10.54 23.711-10.54 33.46 0-32.105-38.929-47.957-61.46-25.46-6.51 6.52-10.54 15.52-10.54 25.46v36c0-28.594-34.658-42.602-54.63-22.63-5.79 5.79-9.37 13.79-9.37 22.63v124c0 72.9 59.1 132 132 132h56c72.9 0 132-59.1 132-132v-52.24c0-25.461-10.11-49.87-28.12-67.881z" fill="#f9cfac"/><g fill="#ffe4cc"><path d="m375.998 132v85.37l-45.38-45.37c-4.798-4.798-6.551-4-2.62-4 8.853 0 16-7.16 16-16h-59.785c-10.995 0-20.148-8.784-20.215-19.778-.12-19.983 16.03-36.222 36-36.222h40c19.882 0 36 16.117 36 36z"/><path d="m285.158 266.95c-25.73-25.9-26.242-68.172-.08-94.64-11.278-6.12-25.674-5.888-37.08 1.75v117.94c0 14.38 8.43 26.79 20.62 32.55 9.97-7.75 20.97-14.06 32.64-18.75 3.096-7.475 2.74-12.762 2.74-19.73z"/><path d="m231.998 212v88c0 17.133-11.954 31.462-28 35.11-16.03-3.64-28-17.98-28-35.11v-117.94c23.599-15.803 56 .966 56 29.94z"/><path d="m159.998 248v72c0 14.895-10.183 27.449-24 30.99-13.8-3.55-24-16.08-24-30.99v-99.72c21.159-12.219 48 2.993 48 27.72z"/><path d="m415.998 319.759v52.241c0 48.5-26.16 90.89-65.13 113.83-30.299 12.68-50.2 10.17-106.87 10.17-72.48 0-131.32-58.42-131.99-130.74 21.393 7.573 45.393-.9 57.22-20.7 21.602 13.066 50.134 8.719 66.82-11.43 4.39 3.41 9.37 6.13 14.78 7.99-18.079 20.018-30.248 45.85-33.768 73.94-.596 4.753 3.157 8.94 7.947 8.94 4.033 0 7.429-3.011 7.931-7.032 6.735-53.925 49.259-96.747 103.061-103.908 0-11.09-4.36-21.73-12.14-29.62l-27.3-27.72c-19.907-20.047-19.857-52.462.17-72.45 6.23-6.22 16.35-6.19 22.58.04l68.57 68.57c18.009 18.01 28.119 42.419 28.119 67.879z"/></g><path d="m393.535 246.222-9.537-9.537v-104.685c0-24.262-19.738-44-44-44h-40c-37.675 0-57.279 43.825-33.876 72.046-15.959.666-29.739 9.81-36.912 23.142-26.616-30.638-77.212-11.832-77.212 28.813v4.022c-26.116-19.65-64-1.059-64 31.978v124c0 77.196 62.804 140 140 140h56c50.272 0 96.941-27.178 121.796-70.929 2.183-3.841.837-8.725-3.005-10.907-3.842-2.185-8.725-.837-10.907 3.005-22.017 38.754-63.356 62.83-107.884 62.83h-56c-68.374 0-124-55.626-124-124v-20.022c21.777 16.385 53.602 6.603 62.083-19.754 21.139 19.64 55.013 13.958 68.685-11.436 7.967 9.184 19.661 15.045 32.709 15.198-26.759 23.643-43.477 58.186-43.477 96.013 0 4.418 3.582 8 8 8s8-3.582 8-8c0-55.916 41.726-103.641 97.057-111.011 3.975-.529 6.943-3.92 6.943-7.93 0-13.359-5.304-25.98-14.439-35.232-27.217-27.635-17.951-18.301-19.948-20.254-8.949-9.087-19.943-18.368-19.943-37.993 0-11.582 4.515-22.467 12.713-30.649 3.1-3.096 8.154-3.081 11.27.036l68.57 68.57c16.623 16.622 25.777 38.72 25.777 62.223 0 56.454.024 53.315-.056 56-.133 4.416 3.339 8.104 7.756 8.236 4.413.17 8.104-3.338 8.236-7.756.089-2.913.063.054.063-56.48.001-27.776-10.817-53.892-30.462-73.537zm-241.537 73.778c0 13.233-10.766 24-24 24s-24-10.767-24-24c0-15.022 0-56.939 0-72 0-13.233 10.766-24 24-24s24 10.767 24 24zm72-20c0 15.439-12.561 28-28 28s-28-12.561-28-28c0-12.722 0-75.251 0-88 0-15.439 12.561-28 28-28s28 12.561 28 28zm103.346 6.375c-6.96 1.359-13.704 3.289-20.193 5.724 5.549-10.784 4.847-19.065 4.847-29.301 6.688 6.791 13.042 12.001 15.346 23.577zm-36.487-45.042 5.141 5.22v25.447c0 15.367-12.41 28-28 28-15.439 0-28-12.561-28-28v-80c0-9.766-.833-18.759 8.192-27.799 10.603-10.585 27.226-10.819 38.191-1.299-18.298 23.145-16.903 56.898 4.476 78.431zm32.277-85.333h16.864c4.418 0 8-3.582 8-8s-3.582-8-8-8h-40c-24.792 0-37.382-30.192-19.808-47.799 5.297-5.289 12.331-8.201 19.808-8.201h40c15.439 0 28 12.561 28 28v88.686c-47.032-47.033-43.495-43.572-44.864-44.686z"/><path d="m342.181 37.075c2.37-2.885 2.373-6.951.255-9.809-.552-.752 1.436 1.294-24.781-24.924-3.125-3.123-8.189-3.123-11.314 0-3.124 3.125-3.124 8.189 0 11.314l10.343 10.344h-36.686c-44.112 0-80 35.888-80 80v20.687l-10.843-10.844c-3.124-3.123-8.189-3.123-11.313 0-3.125 3.125-3.125 8.189 0 11.314l24.5 24.5c3.125 3.124 8.189 3.123 11.313 0l24.5-24.5c3.125-3.125 3.125-8.189 0-11.314-3.124-3.123-8.189-3.123-11.313 0l-10.843 10.844v-20.687c0-35.29 28.71-64 64-64h36.686l-10.343 10.343c-5.056 5.056-1.407 13.657 5.656 13.657 2.048 0 4.095-.781 5.657-2.343 25.645-25.645 24.155-24.131 24.526-24.582z" fill="#ef6767"/><circle cx="410.946" cy="408.271" r="8"/></svg>