<svg enable-background="new 0 0 512.15 512.15" height="512" viewBox="0 0 512.15 512.15" width="512" xmlns="http://www.w3.org/2000/svg"><path d="m473.8 199.713c-18.66-18.66-44.43-30.2-72.9-30.2h-52.59c-27.35 0-53.57-10.86-72.91-30.2l-106.48-109.28c-16.647-16.647-43.87-16.48-60.26.76-15.84 16.64-14.91 43.11 1.34 59.36l50.18 51.67-82.74-47.05c-19.102-11.003-43.316-4.321-54.2 14.53-10.96 18.98-4.45 43.25 14.52 54.21 94.427 53.19 79.208 44.61 81.07 45.68h-71.15c-10.96 0-20.88 4.44-28.06 11.62-24.773 24.773-7.386 67.74 28.06 67.74h79.595l-22.071 12.747c-17.045 9.842-22.925 31.695-13.057 48.757 9.858 17.075 31.682 22.927 48.757 13.069l121.904-70.382c.373-.683-.7-1.406 16.992 12.959-2.63 8.16-7.18 15.83-13.66 22.31l-46.71 49.82c-30.6 30.6-30.6 80.229 0 110.83 7.74 7.74 20.31 7.74 28.05 0l76.9-80.01c19.73-19.73 46.5-30.82 74.4-30.82 92.629.001 140.555-112.62 75.02-178.12z" fill="#f9cfac"/><g fill="#ffe4cc"><path d="m242.35 304.553-101.45 58.57c-17.07 9.86-38.9 4.01-48.75-13.07-8.798-15.187-5.159-34.519 8.34-45.5z"/><path d="m224.28 288.553h-176.6c-21.91 0-39.68-17.77-39.68-39.68 0-21.92 17.759-39.68 39.68-39.68h38.57c30.54 17.204 5.943 3.091 138.03 79.36z"/><path d="m503.33 260.834c-5.896 52.501-50.455 93.33-104.55 93.33-27.9 0-54.67 11.09-74.4 30.82l-76.9 80.01c-7.74 7.74-20.31 7.74-28.05 0-12.28-12.28-19.63-27.63-22.05-43.58 2.42-15.95 9.77-31.3 22.05-43.58l46.71-49.82c21.754-21.769 21.82-57.128 0-78.92-77.329-77.329-42.451-41.891-156.14-158.94-16.197-16.197-17.23-42.659-1.34-59.36 16.414-17.265 43.637-17.383 60.26-.76l106.48 109.28c19.34 19.34 45.56 30.2 72.91 30.2h52.59c52.712-.001 96.568 39.707 102.43 91.32z"/><path d="m266.04 294.533c-2.56-2.082-111.144-65.038-228.28-131.02-18.97-10.96-25.48-35.23-14.52-54.21 10.901-18.88 35.131-25.514 54.2-14.53l32.92 18.72c99.487 102.428 66.926 69.377 144.47 146.92 9.158 9.142 13.072 21.913 11.21 34.12z"/></g><path d="m479.457 194.056c-20.985-20.985-48.884-32.543-78.557-32.543h-52.59c-25.388 0-49.255-9.879-67.216-27.819l-15.874-16.294c-3.083-3.165-8.148-3.23-11.313-.147-3.165 3.084-3.231 8.148-.147 11.313.273.281 15.764 16.181 15.983 16.404 20.986 20.985 48.889 32.543 78.567 32.543h52.59c52.536 0 95.1 42.521 95.1 95.1 0 53.725-43.486 97.221-97.22 97.221-31.654 0-60.993 13.333-80.168 33.275l-76.839 79.947c-4.618 4.565-12.089 4.547-16.686-.05-27.495-27.494-27.499-72.018 0-99.516.183-.184-3.491 3.729 46.804-49.915 7.168-7.199 12.245-15.7 15.261-24.744.191-.449.337-.911.442-1.379 6.751-21.893 1.495-46.724-15.798-64.016-52.009-52.008-61.978-61.416-156.14-158.94-21.837-21.837-7.004-58.792 23.503-58.792 9.086 0 17.631 3.533 24.067 9.951l44.533 45.701c3.083 3.165 8.149 3.229 11.313.146 3.165-3.083 3.23-8.148.146-11.313-55.234-56.683-42.744-43.914-44.643-45.813-19.881-19.881-52.246-19.573-71.711.901-18.555 19.491-17.906 51.099 1.433 70.487l11.023 11.349c-36.588-20.803-41.867-25.654-57.683-25.654-16.992 0-32.826 9.134-41.326 23.84-13.145 22.765-5.318 51.986 17.522 65.184l54.525 30.711h-40.678c-26.359 0-47.68 21.317-47.68 47.68 0 26.291 21.389 47.681 47.68 47.681h50.162c-34.704 24.579-17.268 79.374 25.287 79.374 7.569 0 15.042-1.986 21.774-5.873l117.739-67.977 7.589 6.163c-4.204 9.329-3.73 7.691-56.552 64.031-33.28 33.377-33.975 87.979.094 122.05 10.852 10.851 28.511 10.852 39.363 0 .138-.14.674-.699 76.956-80.067 18.093-18.063 43.124-28.42 68.687-28.42 99.58-.002 151.387-121.11 80.678-191.78zm-463.457 54.817c0-17.516 14.16-31.68 31.68-31.68h69.008l109.749 63.36h-178.757c-17.469 0-31.68-14.212-31.68-31.68zm120.903 107.326c-13.25 7.65-30.169 3.126-37.832-10.147-7.744-13.388-2.897-30.299 10.133-37.823l20.215-11.675h110.792zm132.684-69.094c-.395-.321-102.989-60.206-227.825-130.521-15.128-8.741-20.329-28.159-11.596-43.283 8.702-15.057 28.041-20.39 43.32-11.569l81.758 46.485c55.036 56.663 31.489 32.783 105.239 106.534 9.941 9.941 14.575 23.21 13.909 36.258z"/><path d="m231.422 105.649c3.069 3.158 8.134 3.252 11.313.162 3.169-3.078 3.242-8.144.163-11.313l-1.37-1.41c-3.08-3.169-8.145-3.241-11.313-.162-3.169 3.078-3.242 8.144-.163 11.313z"/></svg>