<svg enable-background="new 0 0 512.117 512.117" height="512" viewBox="0 0 512.117 512.117" width="512" xmlns="http://www.w3.org/2000/svg"><path d="m421.447 108.27c-34.099 0-60.419-.973-101.03 9.18-24.41 6.11-49.46 9.19-74.62 9.19l-191.81-25.94c-37.596-5.097-60.286 39.608-35.49 67.12 6.47 7.2 15.52 12.08 25.8 13.18l59.62 6.32-41.25 4.37c-20.56 2.19-36.18 19.53-36.18 40.22 0 24.837 21.739 43.402 45.77 40.22l113.59-15.06c2.51 8.62 7.16 16.75 13.95 23.55l43.8 43.79c-12.54 26.87-7.72 59.84 14.46 82.02 7.16 7.17 18.81 7.17 25.97 0l40.02-38.68c19.81-19.15 46.28-29.85 73.83-29.85 58.664 0 106.24-47.558 106.24-106.24v-40.72c0-45.66-37.01-82.67-82.67-82.67z" fill="#f9cfac"/><g fill="#ffe4cc"><path d="m280.057 260.72c-33.498 31.947-40.04 36.626-48.36 51.79-34.708-34.697-34.76-34.25-38.76-40.24 77.52-10.285 60.056-7.971 87.12-11.55z"/><path d="m313.677 227.81c0 1.208.322.539-13.96 14.16-24.331 3.225-193.749 25.691-227.46 30.16-24.24 3.21-45.77-15.65-45.77-40.09 0-14.838 7.835-27.69 19.56-34.77 277.135 29.392 263.908 28.04 265.23 28.04 1.503 0 2.4 1.204 2.4 2.5z"/><path d="m504.117 190.94v13.79c0 58.678-47.558 106.24-106.24 106.24-27.55 0-54.02 10.7-73.83 29.85l-40.02 38.68c-7.16 7.17-18.81 7.17-25.97 0-10.73-10.72-17.4-23.97-20-37.84 2.6-13.87 9.27-27.12 20-37.85l65.89-62.84c12.026-11.462 3.848-31.66-12.67-31.66l-266.98-28.31c-20.529-2.197-36.18-19.499-36.18-40.22 0-24.443 21.55-43.373 45.87-40.08l191.81 25.94c25.16 0 50.21-3.08 74.62-9.19 41.501-10.376 69.867-9.18 101.03-9.18 45.66 0 82.67 37.01 82.67 82.67z"/></g><path d="m319.87 125.582c5.739 0 9.467-4.974 8.294-9.957-1.013-4.301-5.318-6.962-9.622-5.952-10.183 2.446-7.837 15.909 1.328 15.909z"/><path d="m421.447 100.27c-28.195 0-45.757-.618-73.073 3.468-4.37.654-7.382 4.727-6.729 9.096.654 4.37 4.721 7.372 9.096 6.729 26.06-3.899 42.543-3.292 70.706-3.292 41.173 0 74.67 33.497 74.67 74.67v40.721c0 54.28-43.926 98.239-98.24 98.239-29.783 0-57.978 11.399-79.39 32.099l-40.02 38.68c-4.727 4.457-11.005 3.851-14.754.094-19.794-19.786-23.916-48.972-13.033-72.619 8.666-16.444 3.259-9.361 78.786-81.393 7.665-7.308 10.398-18.609 6.287-28.882-3.972-9.923-13.365-16.384-24.017-16.564-47.239-5.009 105.651 11.203-266.589-28.268-16.497-1.768-29.031-15.668-29.031-32.266 0-19.681 17.378-34.792 36.798-32.152 206.001 27.859 192.046 26.012 192.882 26.012 14.621 0 29.348-1.025 43.77-3.047 4.376-.613 7.426-4.658 6.813-9.033s-4.655-7.419-9.033-6.813c-13.515 1.895-27.31 2.867-41.015 2.892l-191.269-25.868c-44.372-6-72.728 46.864-42.515 80.396 7.949 8.845 18.638 14.486 31.772 15.879-15.376 8.09-25.832 24.192-25.832 42.993 0 26.717 21.68 48.444 48.461 48.441 4.577 0-3.203.849 113.535-14.628 6.504 15.636 13.554 20.316 53.646 60.407-10.926 28.514-5.183 62.379 18.268 85.822 10.293 10.309 26.955 10.291 37.235.057l39.976-38.637c18.413-17.8 42.658-27.603 68.27-27.603 63.12 0 114.24-51.078 114.24-114.239v-40.721c-.001-49.995-40.676-90.67-90.671-90.67zm-350.243 163.932c-19.426 2.567-36.717-12.556-36.717-32.162 0-17.055 12.716-30.661 29.022-32.391l40.401-4.284c220.026 23.331 206.714 21.944 207.366 21.944 7.775 0 11.952 7.718 9.858 13.755zm125.918-.554 106.222-14.083c-53.27 50.804-54.563 50.946-61.574 61.708-38.487-38.487-40.175-39.179-44.648-47.625z"/></svg>