<svg enable-background="new 0 0 512 512" height="512" viewBox="0 0 512 512" width="512" xmlns="http://www.w3.org/2000/svg"><path d="m491.433 259.028c-26.856-26.814-73.279-7.942-73.279 30.356 0-14.822 2.1-31.953-13.974-48.026-29.828-29.828-81.411-8.799-81.411 33.719 0-12.58 1.394-28.819-13.974-44.187-29.704-29.704-81.411-9.004-81.411 33.73v-151.697c0-13.163-5.342-25.086-13.974-33.718-29.825-29.826-81.41-8.805-81.41 33.718v171.692l-43.4-43.4c-29.435-29.435-80.6-8.917-80.6 33.54 0 12.424 4.9 24.359 13.64 33.194l111.636 112.804c7.595 47.203 48.503 83.247 97.852 83.247h173.743c54.751 0 99.129-44.378 99.129-99.129 0-34.804 0-80.988 0-115.487 0-11.851-4.805-22.582-12.567-30.356z" fill="#f9cfac"/><path d="m133.02 393.49-111.38-112.54c-5.52-5.58-9.51-12.4-11.7-19.79 7.972-26.89 37.541-40.863 63.34-30.19 12.041 4.991 13.8 8.73 58.72 53.65z" fill="#ffe4cc"/><path d="m440.15 251.9v118.64c0 12.15-9.85 22-22 22-.1 0 0 2.802 0-117.46 0-38.573-43.248-60.638-74.38-39.53v135.99c0 11.564-9.369 21-21 21v-127.92c0-38.081-42.705-60.944-74.39-39.53v145.45c0 11.598-9.402 21-21 21-.1 0 0 6.339 0-278.62 0-39.112-44.308-61.03-75.38-38.83 0 362.655-.519 335.721 1.28 346.66 7.59 47.21 48.5 83.25 97.85 83.25h153.74c54.748 0 99.13-44.382 99.13-99.13 0-34.804 0-80.951 0-115.49 0-32.779-35.386-53.435-63.85-37.48z" fill="#ffe4cc"/><path d="m132 168.5c4.418 0 8-3.582 8-8v-1c0-4.418-3.582-8-8-8s-8 3.582-8 8v1c0 4.418 3.582 8 8 8z"/><path d="m422.765 255.894c-15.108-41.235-70.255-49.697-96.894-14.147-16.061-35.628-62.986-44.123-90.491-16.138v-112.689c0-14.861-5.792-28.844-16.313-39.377-35.002-35-95.067-9.903-95.067 39.377v15.58c0 4.418 3.582 8 8 8s8-3.582 8-8v-15.58c0-35.134 42.815-52.999 67.75-28.066 7.5 7.509 11.63 17.476 11.63 28.066v276.62c0 5.752 5.883 9.585 11.115 7.371 2.873-1.214 4.889-4.058 4.889-7.373v-124.918c0-35.218 42.868-52.961 67.753-28.073 12.975 12.973 11.632 26.594 11.632 38.53v114.461c0 4.418 3.582 8 8 8s8-3.582 8-8v-114.461c0-35.463 42.964-52.851 67.753-28.062 13.58 13.578 11.632 28.117 11.632 42.369v100.153c0 4.418 3.582 8 8 8s8-3.582 8-8v-100.152c0-30.917 37.661-46.628 59.617-24.704 6.596 6.606 10.229 15.38 10.229 24.704v115.486c0 50.249-40.88 91.129-91.129 91.129h-173.743c-44.989 0-82.82-32.181-89.958-76.539-1.562-9.553-1.17 5.967-1.17-227.961 0-4.418-3.582-8-8-8s-8 3.582-8 8v73.801l-29.743-29.743c-34.471-34.471-94.257-10.323-94.257 39.197 0 14.635 5.666 28.421 15.954 38.821l109.902 111.052c9.39 50.293 53.393 87.372 105.272 87.372h173.743c59.071 0 107.129-48.058 107.129-107.129 0-34.804 0-80.987 0-115.486 0-46.574-58.188-68.964-89.235-33.491zm-406.765 18.861c0-35.366 42.532-52.297 66.943-27.882l41.057 41.056v112.078l-96.672-97.684c-7.305-7.385-11.328-17.175-11.328-27.568z"/><path d="m366.183 45.075c2.37-2.885 2.373-6.951.255-9.809-.609-.83 1.717 1.575-32.781-32.924-3.125-3.123-8.189-3.123-11.314 0-3.124 3.125-3.124 8.189 0 11.314l18.343 18.344h-12.686c-44.112 0-80 35.888-80 80v72c0 4.418 3.582 8 8 8s8-3.582 8-8v-72c0-35.29 28.71-64 64-64h12.686l-18.344 18.343c-5.054 5.056-1.405 13.657 5.658 13.657 2.048 0 4.095-.781 5.657-2.343 33.207-33.206 32.132-32.102 32.526-32.582z" fill="#ef6767"/></svg>