<svg enable-background="new 0 0 512.008 512.008" height="512" viewBox="0 0 512.008 512.008" width="512" xmlns="http://www.w3.org/2000/svg"><path d="m445.368 263.9-65.44 65.44c-14.53 14.53-25.86 31.96-33.24 51.15l-12.26 41.49c-14.37 48.64-59.05 82.02-109.77 82.02-64.758 0-114.78-52.398-114.78-114.46 0-172.062-51.18-278.237-51.18-308.09 0-16.85 11.25-32.27 28.29-36.83 20.36-5.45 41.28 6.63 46.73 26.98l14.32 53.58v-79.03c0-34.001 41.278-50.832 65.13-26.98 6.91 6.91 11.18 16.44 11.18 26.98v111.83l21.65-80.83c4-14.91 17.49-24.75 32.24-24.75 21.879 0 37.948 20.803 32.26 42.04l-12.62 47.1h87.86c34.613 0 51.748 41.156 27.74 65.13-6.9 6.91-16.44 11.18-26.98 11.18h-112.6l-20.93 85.81c23.087.501 46.72-8.55 64.16-25.98l24.95-24.95c22.14-22.14 52.09-34.66 83.37-34.88 24.911-.177 36.908 29.063 19.92 46.05z" fill="#f9cfac"/><g fill="#ffe4cc"><path d="m224.348 46.15v233.54c-13.61-7.81-24.04-20.83-28.29-36.74-50.06-187.393-47.038-176.347-48.02-179.2v-17.6c0-21.06 17.08-38.15 38.15-38.15 21.069 0 38.16 17.072 38.16 38.15z"/><path d="m445.368 263.9-65.44 65.44c-48.627 48.627-31.642 89.916-66.7 132.71-73.81 60.542-187.35 8.828-187.35-88.51 0-127.541-25.805-208.399-49.87-298.19-2.499-9.293-1.398-19.123 3.09-27.64 21.559-11.393 48.284.23 54.62 23.89l46.89 175.48c15.683 58.722 90.574 76.546 136.52 30.6l24.95-24.95c22.14-22.14 52.09-34.66 83.37-34.88 24.911-.177 36.908 29.063 19.92 46.05z"/><path d="m417.358 202.14c-7.003 9.637-18.332 15.71-30.86 15.71h-112.6l-17.02 69.79c-5.157.243-10.96-.263-16.53-1.6v-135.22c11.77-6.01 24.97-9.28 38.63-9.28h106.76c31.768 0 49.96 35.426 31.62 60.6z"/><path d="m310.498 94.44-8.33 31.1c-30.122 0-43.914-1.782-72.56 12.79l16.39-61.18c4-14.91 17.49-24.75 32.24-24.75 21.879 0 37.948 20.803 32.26 42.04z"/></g><path d="m100.398 264.092c4.381-.574 7.466-4.591 6.892-8.972-.066-.504-.146-1.009-.239-1.527-.783-4.348-4.941-7.244-9.291-6.456-4.349.782-7.239 4.941-6.457 9.29.047.263.088.518.122.773.581 4.423 4.643 7.468 8.973 6.892z"/><path d="m425.391 209.85c-1.353.01-2.702.048-4.048.099 26.045-29.881 4.233-76.411-35.608-76.411h-77.434l9.927-37.026c5.898-22.034-7.228-44.774-29.27-50.694-22.297-5.96-44.824 7.43-50.689 29.267l-5.925 22.117v-51.048c.001-25.516-20.634-46.154-46.153-46.154-25.449 0-46.154 20.705-46.154 46.154v19.002c-8.26-21.906-32.028-34.442-55.117-28.265-20.149 5.392-34.222 23.715-34.222 44.559 0 15.386 22.582 80.95 35.083 144.104.857 4.334 5.073 7.151 9.401 6.294 4.334-.857 7.152-5.067 6.294-9.401-11.886-60.05-34.778-129.921-34.778-140.997 0-13.612 9.194-25.579 22.359-29.103 16.06-4.294 32.633 5.265 36.932 21.317.03.112 45.415 169.96 46.89 175.479 10.029 37.552 44.514 62.55 80.087 62.55 28.121 0 51.86-10.399 69.819-28.357l24.951-24.95c21.409-21.41 49.748-32.538 77.913-32.538 17.706 0 25.956 20.502 14.063 32.395l-65.44 65.44c-15.427 15.427-27.22 33.573-35.05 53.936-.174.45.622-2.195-12.466 42.095-13.056 44.192-54.377 76.286-102.408 76.286-58.815 0-106.47-47.595-106.47-106.46 0-34.181-2.072-68.713-6.158-102.637-.528-4.386-4.505-7.508-8.899-6.985-4.387.528-7.514 4.513-6.986 8.899 4.01 33.291 6.043 67.179 6.043 100.723 0 102.112 116.661 157.443 196.084 98.099 21.332-15.938 36.594-37.858 44.137-63.391l12.168-41.18c7.022-18.14 17.557-34.312 31.316-48.071l65.441-65.44c21.925-21.928 6.664-59.707-25.633-59.707zm-8.749-30.857c.392 17.059-13.301 30.853-30.144 30.853h-112.601c-3.688 0-6.898 2.521-7.772 6.104l-19.345 79.32c-4.945-.54-9.778-1.598-14.435-3.18v-126.844c13.361-10.151 29.778-15.708 46.631-15.708h106.759c16.68 0 30.546 13.211 30.907 29.455zm-162.919-99.764c3.587-13.356 17.368-21.628 31.095-17.957 13.52 3.631 21.574 17.583 17.956 31.099l-11.037 41.167c-17.132 0-33.467-.915-55.325 10.313zm-65.386 165.786-32.3-120.879v-77.982c0-26.688 32.535-40.269 51.479-21.325 5.693 5.693 8.829 13.267 8.829 21.325v237.995c-14.328-9.608-23.824-23.467-28.008-39.134zm74.931 50.173 16.912-69.342h84.293c-43.161 24.09-52.005 63.96-101.205 69.342z"/></svg>